<?xml version="1.0" encoding="UTF-8"?>
<svg width="1440px" height="708px" viewBox="0 0 1440 708" version="1.1" xmlns="http://www.w3.org/2000/svg" xmlns:xlink="http://www.w3.org/1999/xlink">
    <title>Group 38</title>
    <defs>
        <path d="M490.261764,120.556129 L489.752404,121.072774 C484.997818,115.642968 480.11631,110.288645 474.980956,105.088645 C345.050667,-26.4025806 139.062034,-33.8989677 0.393292929,82.492129 L0.393292929,189.830194 C0.393292929,203.304903 11.2693872,214.229935 24.6864377,214.229935 L139.574734,214.229935 C201.332579,176.328645 282.262411,182.949419 337.321751,234.09729 L337.450343,233.964774 L362.918357,259.741677 L362.920027,162.310452 C362.920027,142.095871 379.234586,125.710839 399.358492,125.709161 L495.355367,125.709161 L490.261764,120.556129 Z" id="path-1"></path>
        <path d="M114.795687,0.0943225806 C111.33105,3.25127742 107.872437,6.41818065 104.505858,9.73430968 C-34.7240093,146.960703 -34.7240093,369.444774 104.505858,506.671168 C106.580624,508.716059 108.733702,510.627973 110.845783,512.611184 L219.96134,512.611184 C233.403227,512.611184 244.301647,501.812873 244.301647,488.492646 L244.301647,380.479194 C242.258507,378.652006 240.245487,376.773419 238.272627,374.831826 C172.920593,310.419335 172.920593,205.9878 238.272627,141.57531 C241.915473,137.9856 245.695533,134.623045 249.57432,131.434587 L151.306147,131.434587 C131.142145,131.434587 114.795687,115.236955 114.795687,95.2556194 L114.795687,0.0943225806 Z" id="path-3"></path>
        <path d="M0.695824735,150.984167 C137.160198,268.166871 340.605541,262.64514 470.747449,134.420984 L470.747449,24.9248511 C470.747449,11.4795461 459.886445,0.57835461 446.486982,0.57835461 L338.822615,0.57835461 C280.758276,55.5245106 193.269823,59.9516028 130.472141,13.8361986 L130.472141,114.464088 C130.472141,134.633552 114.178968,150.984167 94.0814417,150.984167 L0.695824735,150.984167 Z" id="path-5"></path>
        <path d="M229.075036,97.346259 L132.531295,0.804172662 L0.418633094,132.916835 L96.9623741,229.460741 L96.9623741,133.44964 C96.9623741,113.510791 113.126906,97.346259 133.06741,97.346259 L229.075036,97.346259 Z" id="path-7"></path>
        <path d="M0.156934959,24.5482927 L0.156934959,130.671081 L71.0848049,201.600602 L201.216057,71.471 L130.288187,0.541479675 L24.163748,0.541479675 C10.9043821,0.541479675 0.156934959,11.2889268 0.156934959,24.5482927 Z" id="path-9"></path>
        <path d="M137.991892,512.611184 C140.078108,510.629963 142.202865,508.712245 144.252216,506.671334 C281.976,369.44809 281.976,146.962361 144.252216,9.73928387 C140.922649,6.42149677 137.500919,3.24961935 134.074162,0.0943225806 L134.074162,95.2589355 C134.074162,115.240271 117.704486,131.437903 97.5109189,131.437903 L0.750702703,131.437903 C4.588,134.626361 8.32978378,137.990574 11.9308108,141.578626 C76.5783784,205.989458 76.5783784,310.420994 11.9324865,374.831826 C9.98032432,376.775077 7.98962162,378.653665 5.96875676,380.479194 L5.97043243,488.492646 C5.97210811,501.812873 16.8841081,512.611184 30.3448108,512.611184 L137.991892,512.611184 Z" id="path-11"></path>
        <path d="M493.93643,82.4485161 C357.556403,-32.416129 155.877477,-26.5300645 26.1468456,100.037935 L26.0186846,99.9070968 L0.636134228,125.685677 L96.3092081,125.685677 C116.365584,125.685677 132.625396,142.072387 132.625396,162.28529 L132.62706,259.741677 L143.618953,248.576774 L158.009611,233.961419 L158.137772,234.092258 C213.010685,182.937677 293.670604,176.315226 355.221208,214.221548 L469.725638,214.221548 C483.096,214.221548 493.93643,203.298194 493.93643,189.821806 L493.93643,82.4485161 Z" id="path-13"></path>
        <path d="M429.635333,0.55780292 L321.578344,0.55780292 L300.358418,21.8383248 L239.322857,83.0563102 L0.257765568,322.819526 L96.2197289,322.819526 C116.260586,322.819526 132.504806,339.111409 132.504806,359.211069 L132.504806,455.456437 L239.322857,348.324796 L371.569897,215.689719 L453.825385,133.19288 L453.825385,24.8188321 C453.825385,11.4190584 442.995905,0.55780292 429.635333,0.55780292 Z" id="path-15"></path>
        <path d="M12.455,145.300752 C143.59,262.872772 340.381667,264.751733 473.631667,150.973121 L379.455,150.973121 C359.37,150.973121 343.088333,134.622338 343.088333,114.452874 L343.088333,13.8361986 C279.935,59.9465816 191.951667,55.5194894 133.558333,0.57835461 L25.125,0.57835461 C11.735,0.57835461 0.881666667,11.4795461 0.881666667,24.9248511 L0.881666667,134.62284 L11.945,145.818445 L12.455,145.300752 Z" id="path-17"></path>
    </defs>
    <g id="02-Screens" stroke="none" stroke-width="1" fill="none" fill-rule="evenodd">
        <g id="Group-38" transform="translate(0.000000, 0.000000)">
            <g id="Group-4" transform="translate(128.000000, 0.000000)">
                <mask id="mask-2" fill="white">
                    <use xlink:href="#path-1"></use>
                </mask>
                <g id="Clip-2"></g>
                <path d="M490.261764,120.556129 L489.752404,121.072774 C484.997818,115.642968 480.11631,110.288645 474.980956,105.088645 C345.050667,-26.4025806 139.062034,-33.8989677 0.393292929,82.492129 L0.393292929,189.830194 C0.393292929,203.304903 11.2693872,214.229935 24.6864377,214.229935 L139.574734,214.229935 C201.332579,176.328645 282.262411,182.949419 337.321751,234.09729 L337.450343,233.964774 L362.918357,259.741677 L362.920027,162.310452 C362.920027,142.095871 379.234586,125.710839 399.358492,125.709161 L495.355367,125.709161 L490.261764,120.556129 Z" id="Fill-1" fill="#FFFFFF" mask="url(#mask-2)"></path>
                <path d="M490.261764,120.556129 L489.752404,121.072774 C484.997818,115.642968 480.11631,110.288645 474.980956,105.088645 C345.050667,-26.4025806 139.062034,-33.8989677 0.393292929,82.492129 L0.393292929,189.830194 C0.393292929,203.304903 11.2693872,214.229935 24.6864377,214.229935 L139.574734,214.229935 C201.332579,176.328645 282.262411,182.949419 337.321751,234.09729 L337.450343,233.964774 L362.918357,259.741677 L362.920027,162.310452 C362.920027,142.095871 379.234586,125.710839 399.358492,125.709161 L495.355367,125.709161 L490.261764,120.556129 Z" id="Stroke-3" stroke="#0C0C0C" stroke-width="2" mask="url(#mask-2)"></path>
            </g>
            <g id="Group-8" transform="translate(0.000000, 97.000000)">
                <mask id="mask-4" fill="white">
                    <use xlink:href="#path-3"></use>
                </mask>
                <g id="Clip-6"></g>
                <path d="M114.795687,0.0943225806 C111.33105,3.25127742 107.872437,6.41818065 104.505858,9.73430968 C-34.7240093,146.960703 -34.7240093,369.444774 104.505858,506.671168 C106.580624,508.716059 108.733702,510.627973 110.845783,512.611184 L219.96134,512.611184 C233.403227,512.611184 244.301647,501.812873 244.301647,488.492646 L244.301647,380.479194 C242.258507,378.652006 240.245487,376.773419 238.272627,374.831826 C172.920593,310.419335 172.920593,205.9878 238.272627,141.57531 C241.915473,137.9856 245.695533,134.623045 249.57432,131.434587 L151.306147,131.434587 C131.142145,131.434587 114.795687,115.236955 114.795687,95.2556194 L114.795687,0.0943225806 Z" id="Fill-5" fill="#FFFFFF" mask="url(#mask-4)"></path>
                <path d="M114.795687,0.0943225806 C111.33105,3.25127742 107.872437,6.41818065 104.505858,9.73430968 C-34.7240093,146.960703 -34.7240093,369.444774 104.505858,506.671168 C106.580624,508.716059 108.733702,510.627973 110.845783,512.611184 L219.96134,512.611184 C233.403227,512.611184 244.301647,501.812873 244.301647,488.492646 L244.301647,380.479194 C242.258507,378.652006 240.245487,376.773419 238.272627,374.831826 C172.920593,310.419335 172.920593,205.9878 238.272627,141.57531 C241.915473,137.9856 245.695533,134.623045 249.57432,131.434587 L151.306147,131.434587 C131.142145,131.434587 114.795687,115.236955 114.795687,95.2556194 L114.795687,0.0943225806 Z" id="Stroke-7" stroke="#0C0C0C" stroke-width="2" mask="url(#mask-4)"></path>
            </g>
            <g id="Group-12" transform="translate(125.000000, 473.000000)">
                <mask id="mask-6" fill="white">
                    <use xlink:href="#path-5"></use>
                </mask>
                <g id="Clip-10"></g>
                <path d="M0.695824735,150.984167 C137.160198,268.166871 340.605541,262.64514 470.747449,134.420984 L470.747449,24.9248511 C470.747449,11.4795461 459.886445,0.57835461 446.486982,0.57835461 L338.822615,0.57835461 C280.758276,55.5245106 193.269823,59.9516028 130.472141,13.8361986 L130.472141,114.464088 C130.472141,134.633552 114.178968,150.984167 94.0814417,150.984167 L0.695824735,150.984167 Z" id="Fill-9" fill="#FFFFFF" mask="url(#mask-6)"></path>
                <path d="M0.695824735,150.984167 C137.160198,268.166871 340.605541,262.64514 470.747449,134.420984 L470.747449,24.9248511 C470.747449,11.4795461 459.886445,0.57835461 446.486982,0.57835461 L338.822615,0.57835461 C280.758276,55.5245106 193.269823,59.9516028 130.472141,13.8361986 L130.472141,114.464088 C130.472141,134.633552 114.178968,150.984167 94.0814417,150.984167 L0.695824735,150.984167 Z" id="Stroke-11" stroke="#0C0C0C" stroke-width="2" mask="url(#mask-6)"></path>
            </g>
            <g id="Group-16" transform="translate(732.000000, 364.000000)">
                <mask id="mask-8" fill="white">
                    <use xlink:href="#path-7"></use>
                </mask>
                <g id="Clip-14"></g>
                <path d="M229.075036,97.346259 L132.531295,0.804172662 L0.418633094,132.916835 L96.9623741,229.460741 L96.9623741,133.44964 C96.9623741,113.510791 113.126906,97.346259 133.06741,97.346259 L229.075036,97.346259 Z" id="Fill-13" fill="#FFFFFF" mask="url(#mask-8)"></path>
                <path d="M229.075036,97.346259 L132.531295,0.804172662 L0.418633094,132.916835 L96.9623741,229.460741 L96.9623741,133.44964 C96.9623741,113.510791 113.126906,97.346259 133.06741,97.346259 L229.075036,97.346259 Z" id="Stroke-15" stroke="#0C0C0C" stroke-width="2" mask="url(#mask-8)"></path>
            </g>
            <g id="Group-20" transform="translate(506.000000, 141.000000)">
                <mask id="mask-10" fill="white">
                    <use xlink:href="#path-9"></use>
                </mask>
                <g id="Clip-18"></g>
                <path d="M0.156934959,24.5482927 L0.156934959,130.671081 L71.0848049,201.600602 L201.216057,71.471 L130.288187,0.541479675 L24.163748,0.541479675 C10.9043821,0.541479675 0.156934959,11.2889268 0.156934959,24.5482927 Z" id="Fill-17" fill="#FFFFFF" mask="url(#mask-10)"></path>
                <path d="M0.156934959,24.5482927 L0.156934959,130.671081 L71.0848049,201.600602 L201.216057,71.471 L130.288187,0.541479675 L24.163748,0.541479675 C10.9043821,0.541479675 0.156934959,11.2889268 0.156934959,24.5482927 Z" id="Stroke-19" stroke="#0C0C0C" stroke-width="2" mask="url(#mask-10)"></path>
            </g>
            <g id="Group-24" transform="translate(1192.000000, 97.000000)">
                <mask id="mask-12" fill="white">
                    <use xlink:href="#path-11"></use>
                </mask>
                <g id="Clip-22"></g>
                <path d="M137.991892,512.611184 C140.078108,510.629963 142.202865,508.712245 144.252216,506.671334 C281.976,369.44809 281.976,146.962361 144.252216,9.73928387 C140.922649,6.42149677 137.500919,3.24961935 134.074162,0.0943225806 L134.074162,95.2589355 C134.074162,115.240271 117.704486,131.437903 97.5109189,131.437903 L0.750702703,131.437903 C4.588,134.626361 8.32978378,137.990574 11.9308108,141.578626 C76.5783784,205.989458 76.5783784,310.420994 11.9324865,374.831826 C9.98032432,376.775077 7.98962162,378.653665 5.96875676,380.479194 L5.97043243,488.492646 C5.97210811,501.812873 16.8841081,512.611184 30.3448108,512.611184 L137.991892,512.611184 Z" id="Fill-21" fill="#FFFFFF" mask="url(#mask-12)"></path>
                <path d="M137.991892,512.611184 C140.078108,510.629963 142.202865,508.712245 144.252216,506.671334 C281.976,369.44809 281.976,146.962361 144.252216,9.73928387 C140.922649,6.42149677 137.500919,3.24961935 134.074162,0.0943225806 L134.074162,95.2589355 C134.074162,115.240271 117.704486,131.437903 97.5109189,131.437903 L0.750702703,131.437903 C4.588,134.626361 8.32978378,137.990574 11.9308108,141.578626 C76.5783784,205.989458 76.5783784,310.420994 11.9324865,374.831826 C9.98032432,376.775077 7.98962162,378.653665 5.96875676,380.479194 L5.97043243,488.492646 C5.97210811,501.812873 16.8841081,512.611184 30.3448108,512.611184 L137.991892,512.611184 Z" id="Stroke-23" stroke="#0C0C0C" stroke-width="2" mask="url(#mask-12)"></path>
            </g>
            <g id="Group-28" transform="translate(820.000000, 0.000000)">
                <mask id="mask-14" fill="white">
                    <use xlink:href="#path-13"></use>
                </mask>
                <g id="Clip-26"></g>
                <path d="M493.93643,82.4485161 C357.556403,-32.416129 155.877477,-26.5300645 26.1468456,100.037935 L26.0186846,99.9070968 L0.636134228,125.685677 L96.3092081,125.685677 C116.365584,125.685677 132.625396,142.072387 132.625396,162.28529 L132.62706,259.741677 L143.618953,248.576774 L158.009611,233.961419 L158.137772,234.092258 C213.010685,182.937677 293.670604,176.315226 355.221208,214.221548 L469.725638,214.221548 C483.096,214.221548 493.93643,203.298194 493.93643,189.821806 L493.93643,82.4485161 Z" id="Fill-25" fill="#FFFFFF" mask="url(#mask-14)"></path>
                <path d="M493.93643,82.4485161 C357.556403,-32.416129 155.877477,-26.5300645 26.1468456,100.037935 L26.0186846,99.9070968 L0.636134228,125.685677 L96.3092081,125.685677 C116.365584,125.685677 132.625396,142.072387 132.625396,162.28529 L132.62706,259.741677 L143.618953,248.576774 L158.009611,233.961419 L158.137772,234.092258 C213.010685,182.937677 293.670604,176.315226 355.221208,214.221548 L469.725638,214.221548 C483.096,214.221548 493.93643,203.298194 493.93643,189.821806 L493.93643,82.4485161 Z" id="Stroke-27" stroke="#0C0C0C" stroke-width="2" mask="url(#mask-14)"></path>
            </g>
            <g id="Group-32" transform="translate(481.000000, 138.000000)">
                <mask id="mask-16" fill="white">
                    <use xlink:href="#path-15"></use>
                </mask>
                <g id="Clip-30"></g>
                <path d="M429.635333,0.55780292 L321.578344,0.55780292 L300.358418,21.8383248 L239.322857,83.0563102 L0.257765568,322.819526 L96.2197289,322.819526 C116.260586,322.819526 132.504806,339.111409 132.504806,359.211069 L132.504806,455.456437 L239.322857,348.324796 L371.569897,215.689719 L453.825385,133.19288 L453.825385,24.8188321 C453.825385,11.4190584 442.995905,0.55780292 429.635333,0.55780292 Z" id="Fill-29" fill="#FFFFFF" mask="url(#mask-16)"></path>
                <path d="M429.635333,0.55780292 L321.578344,0.55780292 L300.358418,21.8383248 L239.322857,83.0563102 L0.257765568,322.819526 L96.2197289,322.819526 C116.260586,322.819526 132.504806,339.111409 132.504806,359.211069 L132.504806,455.456437 L239.322857,348.324796 L371.569897,215.689719 L453.825385,133.19288 L453.825385,24.8188321 C453.825385,11.4190584 442.995905,0.55780292 429.635333,0.55780292 Z" id="Stroke-31" stroke="#0C0C0C" stroke-width="2" mask="url(#mask-16)"></path>
            </g>
            <g id="Group-36" transform="translate(843.000000, 473.000000)">
                <mask id="mask-18" fill="white">
                    <use xlink:href="#path-17"></use>
                </mask>
                <g id="Clip-34"></g>
                <path d="M12.455,145.300752 C143.59,262.872772 340.381667,264.751733 473.631667,150.973121 L379.455,150.973121 C359.37,150.973121 343.088333,134.622338 343.088333,114.452874 L343.088333,13.8361986 C279.935,59.9465816 191.951667,55.5194894 133.558333,0.57835461 L25.125,0.57835461 C11.735,0.57835461 0.881666667,11.4795461 0.881666667,24.9248511 L0.881666667,134.62284 L11.945,145.818445 L12.455,145.300752 Z" id="Fill-33" fill="#FFFFFF" mask="url(#mask-18)"></path>
                <path d="M12.455,145.300752 C143.59,262.872772 340.381667,264.751733 473.631667,150.973121 L379.455,150.973121 C359.37,150.973121 343.088333,134.622338 343.088333,114.452874 L343.088333,13.8361986 C279.935,59.9465816 191.951667,55.5194894 133.558333,0.57835461 L25.125,0.57835461 C11.735,0.57835461 0.881666667,11.4795461 0.881666667,24.9248511 L0.881666667,134.62284 L11.945,145.818445 L12.455,145.300752 Z" id="Stroke-35" stroke="#0C0C0C" stroke-width="2" mask="url(#mask-18)"></path>
            </g>
            <path d="M370.384432,601.723875 L363.116247,602.003363 L362.92809,597.133051 L382.896033,596.365333 L383.082524,601.235645 L375.894265,601.512137 L376.751794,623.788095 L371.240296,624 L370.384432,601.723875 Z M392.022474,623.078306 C388.922048,623.40457 386.600892,622.858911 385.059004,621.441164 C383.517117,620.023417 382.561346,617.566288 382.193358,614.069944 C381.808719,610.414796 382.243311,607.610597 383.497136,605.657511 C384.75096,603.70426 386.902276,602.567498 389.949418,602.246728 C392.758451,601.951094 394.96305,602.475612 396.564882,603.820116 C398.165048,605.164787 399.124148,607.333606 399.438853,610.326572 L399.430528,614.063452 L387.746484,615.293265 C387.898009,616.214626 388.137784,616.905771 388.467475,617.366535 C388.797166,617.827298 389.283376,618.124265 389.927772,618.257267 C390.570503,618.390435 391.449678,618.398426 392.561969,618.281404 C393.436149,618.189351 394.48017,618.052686 395.694031,617.871411 C396.906228,617.690135 397.788734,617.543816 398.339884,617.432287 L399.438853,617.195912 L399.933389,621.120893 C397.01779,622.177753 394.380263,622.830113 392.022474,623.078306 Z M1066.05542,602.797547 L1071.35212,603.232676 L1071.17895,605.3429 C1073.5717,604.203309 1075.76631,603.51516 1077.76277,603.278286 L1077.32152,608.653474 C1075.29842,608.888184 1073.41352,609.20113 1071.67182,609.59248 L1070.85092,609.805716 L1069.75528,623.144225 L1064.41862,622.705767 L1066.05542,602.797547 Z M1051.29592,621.435338 C1048.32038,620.977903 1046.2007,619.72928 1044.93689,617.689136 C1043.67474,615.649158 1043.29842,612.970636 1043.80795,609.653904 C1044.31414,606.363305 1045.47638,603.941466 1047.29135,602.38822 C1049.10798,600.834974 1051.5024,600.286985 1054.47794,600.744586 C1057.45348,601.20202 1059.57483,602.444151 1060.83864,604.470978 C1062.10412,606.497806 1062.48377,609.156519 1061.97757,612.447117 C1061.46805,615.764016 1060.30248,618.205664 1058.48585,619.772061 C1056.66755,621.338457 1054.27147,621.892772 1051.29592,621.435338 Z M411.392644,620.321381 C409.660934,620.632164 407.507953,620.77532 404.932035,620.75085 L403.631588,620.740863 L402.997183,616.308676 C406.245803,616.158362 408.590272,615.953615 410.032253,615.694602 C411.003009,615.520484 411.750641,615.277784 412.276815,614.966835 C412.802988,614.655886 413.014456,614.212101 412.91122,613.635315 C412.816309,613.111129 412.479958,612.779206 411.900501,612.639879 C411.319379,612.500384 410.381925,612.43896 409.084808,612.455274 C408.603593,612.487567 408.267241,612.494059 408.074089,612.474583 C406.720358,612.474084 405.591417,612.37221 404.68893,612.168961 C403.786443,611.965879 403.003844,611.524591 402.341132,610.845597 C401.676755,610.166437 401.220516,609.132215 400.97075,607.742767 C400.571125,605.514688 400.955764,603.740715 402.126333,602.421013 C403.296902,601.101311 405.075235,600.227225 407.46133,599.798755 C408.87667,599.544403 411.006339,599.419058 413.848674,599.422642 L415.189084,599.42555 L415.895088,603.804303 C412.646468,603.954783 410.262037,604.166522 408.741796,604.439684 C407.8493,604.599653 407.164942,604.817383 406.687056,605.09271 C406.207506,605.368036 406.016019,605.767875 406.11093,606.292227 C406.209171,606.842713 406.540527,607.182293 407.104998,607.310801 C407.669468,607.439475 408.5603,607.50273 409.779157,607.500566 L411.197827,607.489247 C413.370789,607.531861 414.977615,607.886089 416.016641,608.551766 C417.057332,609.217443 417.74169,610.467731 418.071381,612.302629 C418.476002,614.557008 418.13299,616.337141 417.042346,617.642527 C415.950037,618.948079 414.066803,619.840975 411.392644,620.321381 Z M1035.63561,618.558062 C1034.12702,618.221644 1033.00974,617.726756 1032.28209,617.073397 C1031.55444,616.419872 1031.12817,615.519652 1031.00162,614.372736 C1030.87507,613.225821 1031.01994,611.71652 1031.43788,609.844834 L1033.24785,601.734362 L1030.94667,601.22133 L1031.93907,596.776159 L1034.24025,597.289358 L1035.44912,591.869392 L1040.67588,593.034951 L1039.46702,598.45475 L1044.26418,599.524594 L1043.27178,603.969765 L1038.47461,602.899921 L1036.69129,610.893371 C1036.46483,611.907118 1036.39157,612.661851 1036.47149,613.157239 C1036.55308,613.652793 1036.95937,613.968736 1037.69368,614.105067 L1040.67588,614.68818 L1039.9782,618.912585 C1038.88589,618.914621 1038.03836,618.889319 1037.43725,618.836884 C1036.83448,618.784282 1036.23338,618.691397 1035.63561,618.558062 Z M1051.98861,616.933903 C1053.25242,617.128329 1054.25815,616.811221 1055.00411,615.983079 C1055.75175,615.154769 1056.28624,613.7009 1056.60594,611.621305 C1056.92564,609.541709 1056.85238,608.007772 1056.38449,607.019661 C1055.91659,606.031549 1055.04907,605.44028 1053.78526,605.24602 C1052.52144,605.051594 1051.51905,605.355385 1050.77475,606.157393 C1050.03211,606.959235 1049.49927,608.400121 1049.17957,610.479716 C1048.85987,612.559312 1048.93147,614.106399 1049.39604,615.120811 C1049.8606,616.135224 1050.72479,616.739643 1051.98861,616.933903 Z M429.642197,616.389576 C428.141938,616.756789 426.91975,616.808891 425.978966,616.545716 C425.036516,616.282708 424.253917,615.664972 423.632833,614.693007 C423.010083,613.720875 422.472254,612.303628 422.016015,610.440931 L420.039535,602.369244 L417.750016,602.929551 L416.667697,598.505687 L418.957217,597.94538 L417.636789,592.551382 L422.838577,591.278955 L424.159006,596.672953 L428.932863,595.505064 L430.016846,599.928927 L425.241324,601.096817 L427.189497,609.051981 C427.435933,610.061067 427.70568,610.769691 427.997073,611.178186 C428.288467,611.586514 428.794659,611.689221 429.512319,611.486138 L432.442904,610.686793 L433.693399,614.782063 C432.714317,615.268129 431.943373,615.621193 431.380567,615.841087 C430.817762,616.061149 430.238305,616.244089 429.642197,616.389576 Z M1024.81908,594.813585 L1029.98757,596.211191 L1024.7708,615.493684 L1019.60231,614.096078 L1024.81908,594.813585 Z M1004.88611,588.413498 L1009.92305,590.108236 L1009.56672,591.168425 C1010.71398,590.935879 1011.69806,590.831342 1012.51895,590.854647 C1013.33985,590.878118 1014.18073,591.034258 1015.03826,591.323067 C1017.36108,592.104601 1018.76476,593.405659 1019.24764,595.226408 C1019.73219,597.046991 1019.45079,599.509779 1018.4051,602.614607 L1014.95167,612.875754 L1009.87643,611.168198 L1013.27824,601.058531 C1013.86602,599.316684 1014.06917,598.022451 1013.891,597.175498 C1013.71117,596.328545 1013.0418,595.709644 1011.87955,595.318794 C1011.047,595.038474 1010.04128,594.896649 1008.86072,594.89332 L1008.35619,594.891822 L1003.58899,609.052814 L998.513752,607.345425 L1004.88611,588.413498 Z M394.155474,610.521165 C393.988964,608.931963 393.627636,607.851965 393.071491,607.281004 C392.515346,606.71021 391.614524,606.490315 390.369025,606.62132 C389.09855,606.755154 388.23103,607.174469 387.769796,607.879098 C387.308561,608.583893 387.145381,609.70584 387.280255,611.24477 L394.155474,610.521165 Z M986.196968,602.769416 C983.431229,601.580552 981.692859,599.840204 980.983524,597.548704 C980.272524,595.257037 980.578903,592.569859 981.905992,589.487004 C983.221425,586.428619 984.953135,584.375324 987.101121,583.32712 C989.247441,582.278916 991.705137,582.349329 994.470876,583.538359 C997.236616,584.727389 998.976651,586.461412 999.692647,588.74076 C1000.40864,591.020109 1000.10892,593.688976 998.79349,596.747361 C997.466401,599.830216 995.728031,601.901822 993.57505,602.962344 C991.422069,604.022699 988.962708,603.958445 986.196968,602.769416 Z M987.996947,598.585588 C989.172512,599.090631 990.224858,599.036031 991.155652,598.421624 C992.088111,597.807384 992.968951,596.533792 993.799839,594.600848 C994.632392,592.667905 994.945431,591.164597 994.740623,590.090591 C994.535816,589.016752 993.844797,588.227228 992.670898,587.722186 C991.495333,587.217144 990.447982,587.259591 989.527179,587.849362 C988.606376,588.439299 987.73053,589.70074 986.897978,591.633517 C986.06709,593.56646 985.749055,595.082087 985.943872,596.180395 C986.137025,597.278871 986.823048,598.080546 987.996947,598.585588 Z M987.352551,573.373426 L974.118295,597.100757 L969.301145,594.41591 L979.538213,576.062102 L979.015369,575.770296 L964.720441,590.489764 L959.903291,587.804917 L964.913593,567.910181 L964.39075,567.618375 L954.153683,585.972183 L949.336533,583.287336 L962.57079,559.560005 L970.773098,564.132019 L965.328204,583.738778 L979.150243,568.801413 L987.352551,573.373426 Z M1026.89547,587.139074 L1032.06396,588.536679 L1030.65528,593.743075 L1025.48679,592.345304 L1026.89547,587.139074 Z M1332.41564,478.286656 C1331.15849,480.725307 1329.71318,482.451506 1328.07971,483.466917 C1326.44624,484.483993 1324.55635,484.850207 1322.40836,484.567224 C1320.26038,484.282576 1317.74274,483.397004 1314.85544,481.907179 C1311.94317,480.405702 1309.73691,478.855952 1308.23832,477.257927 C1306.73806,475.661568 1305.91216,473.893753 1305.75731,471.956149 C1305.60412,470.018545 1306.15527,467.831249 1307.41242,465.392597 C1308.67124,462.95561 1310.13487,461.237734 1311.80331,460.238969 C1313.47174,459.241869 1315.39161,458.890636 1317.5629,459.186936 C1319.7342,459.481572 1322.27515,460.380461 1325.18742,461.881938 C1328.02809,463.348458 1330.18773,464.858258 1331.66302,466.413002 C1333.1383,467.967747 1333.9542,469.715586 1334.10906,471.65319 C1334.26225,473.590795 1333.69777,475.801395 1332.41564,478.286656 Z M1328.15464,476.089372 C1328.81402,474.810953 1329.06379,473.674025 1328.90394,472.676925 C1328.74242,471.679824 1328.15297,470.730997 1327.13393,469.832108 C1326.11489,468.931555 1324.59797,467.962753 1322.58653,466.924037 C1320.57342,465.886986 1318.88999,465.21282 1317.53626,464.903202 C1316.18087,464.59525 1315.02695,464.651846 1314.07451,465.074657 C1313.12207,465.497468 1312.32282,466.33643 1311.67509,467.591545 C1311.02737,468.844996 1310.80757,469.983588 1311.01571,471.003993 C1311.22218,472.024398 1311.84493,472.998194 1312.88229,473.922052 C1313.91965,474.84591 1315.44323,475.828029 1317.45634,476.86508 C1319.32625,477.830553 1320.90977,478.481415 1322.20355,478.81933 C1323.499,479.157246 1324.6396,479.123954 1325.62701,478.719454 C1326.61608,478.314954 1327.45863,477.437705 1328.15464,476.089372 Z M1320.29701,456.68503 L1322.29513,451.761118 L1323.29586,452.165617 C1323.1177,450.973758 1323.06275,450.009949 1323.13102,449.275857 C1323.19929,448.541765 1323.38411,447.804343 1323.68383,447.063592 C1324.64626,444.694854 1326.14319,443.254968 1328.17629,442.742268 C1330.20938,442.231233 1332.94182,442.67069 1336.3736,444.062303 C1338.74471,445.024447 1340.50472,446.069821 1341.65698,447.198425 C1342.80923,448.325365 1343.44863,449.620431 1343.57518,451.080293 C1343.70173,452.540154 1343.35872,454.268018 1342.54781,456.267213 C1342.14652,457.254326 1341.62201,458.263079 1340.97428,459.293471 L1348.60213,462.387979 L1346.58902,467.348512 L1320.29701,456.68503 Z M110.783699,449.433995 C109.835422,446.945405 109.942988,444.852992 111.10673,443.155091 C112.270305,441.458855 114.445599,440.002322 117.632277,438.788823 C121.117842,437.46213 123.898235,437.109233 125.973455,437.730132 C128.048843,438.349366 129.574745,439.942396 130.551662,442.505894 C130.9025,443.426422 131.263994,444.899601 131.636312,446.923765 L139.179905,444.050651 L141.086117,449.052799 L114.944631,459.008823 L113.052738,454.043296 L113.837003,453.743666 C112.975144,452.903039 112.319592,452.15563 111.87018,451.499774 C111.420935,450.845583 111.058775,450.156435 110.783699,449.433995 Z M1338.05702,455.007104 C1338.6165,453.623815 1338.6115,452.486887 1338.04037,451.594657 C1337.46757,450.700762 1336.23206,449.868458 1334.33051,449.097744 C1332.45394,448.337018 1330.97866,448.040717 1329.90466,448.207178 C1328.83067,448.375304 1328.05307,449.051135 1327.57185,450.236336 C1327.22052,451.100268 1327.04568,452.064076 1327.04568,453.127761 L1327.05067,453.647119 L1336.75158,457.582254 C1337.35102,456.531886 1337.78561,455.672948 1338.05702,455.007104 Z M115.706083,448.886338 C116.04743,449.781898 116.585758,450.745706 117.320736,451.776099 L117.631944,452.255506 L127.453567,448.516795 C127.199972,447.101878 126.902418,445.94664 126.561071,445.05108 C126.105831,443.855891 125.355368,443.15842 124.309682,442.958667 C123.264163,442.758914 121.720444,443.046892 119.679025,443.824264 C117.811775,444.535052 116.576101,445.277467 115.972001,446.048181 C115.368067,446.820559 115.279317,447.766057 115.706083,448.886338 Z M1349.65448,436.611515 C1348.7087,439.581176 1347.27837,441.487153 1345.36017,442.33111 C1343.44197,443.173402 1340.80777,443.063538 1337.45592,441.996524 C1333.95254,440.8829 1331.55811,439.359783 1330.27099,437.427173 C1328.98553,435.494562 1328.80736,433.069228 1329.73649,430.151169 C1330.59235,427.461161 1331.95774,425.651732 1333.83098,424.724545 C1335.70589,423.797358 1338.07867,423.790699 1340.94764,424.702905 L1344.36777,426.209376 L1340.80611,437.402204 C1341.71026,437.635249 1342.43958,437.691846 1342.99406,437.575323 C1343.54854,437.457136 1344.01643,437.130873 1344.39608,436.594869 C1344.77739,436.058865 1345.13705,435.258188 1345.47506,434.192838 C1345.74148,433.35554 1346.0362,432.343458 1346.3559,431.159922 C1346.67727,429.976385 1346.89706,429.110788 1347.01529,428.561468 L1347.24008,427.459497 L1351.03485,428.581443 C1350.83337,431.67595 1350.3738,434.352641 1349.65448,436.611515 Z M132.481353,424.874359 L134.09101,429.981379 L107.410696,438.385987 L105.801205,433.280633 L132.481353,424.874359 Z M1339.00447,429.618494 C1337.48089,429.134093 1336.34696,429.032552 1335.60099,429.312206 C1334.85502,429.59186 1334.29222,430.327617 1333.91257,431.521142 C1333.5246,432.739635 1333.56124,433.701779 1334.02247,434.407573 C1334.48204,435.111702 1335.44447,435.710961 1336.90976,436.20535 L1339.00447,429.618494 Z M122.205988,417.866357 L123.612003,423.031638 L104.331916,428.276819 L102.925901,423.111539 L122.205988,417.866357 Z M1333.35476,419.750694 L1334.61358,414.588743 L1336.67165,415.08979 C1335.91903,412.549597 1335.58267,410.274077 1335.66093,408.264895 L1340.90269,409.54165 C1340.81776,411.577466 1340.83275,413.485107 1340.94598,415.267903 L1341.02923,416.110195 L1354.03537,419.277945 L1352.76823,424.479847 L1333.35476,419.750694 Z M129.879459,415.778938 L131.285641,420.944219 L126.079856,422.359136 L124.673841,417.193855 L129.879459,415.778938 Z M98.9509617,407.968595 C98.6044533,406.298992 98.6715571,404.917367 99.152273,403.825384 C99.6328224,402.733401 100.536975,401.8445 101.864396,401.16201 C103.191818,400.477856 105.029428,399.893578 107.377227,399.405848 L117.628947,397.280143 L118.716927,402.520331 L108.386947,404.664347 C106.978268,404.955653 105.941906,405.238636 105.277696,405.513297 C104.613485,405.786293 104.186386,406.154171 103.996397,406.615268 C103.806242,407.076364 103.797917,407.723897 103.971088,408.557866 C104.095637,409.15879 104.26015,409.688135 104.464625,410.149232 C104.6691,410.610328 104.991131,411.244544 105.430552,412.050215 L120.064829,409.013969 L121.152809,414.255821 L101.588322,418.314137 L100.508501,413.112235 L101.60414,412.884184 C100.77675,411.913717 100.172316,411.066431 99.7910073,410.343991 C99.4095317,409.619886 99.129461,408.829197 98.9509617,407.968595 Z M1357.58371,405.276922 C1356.85772,409.341897 1354.34508,410.989859 1350.04245,410.222475 C1347.9977,409.857925 1346.61899,409.05059 1345.90799,407.800469 C1345.19699,406.552013 1344.97886,404.705962 1345.25194,402.265646 L1345.6882,398.002583 L1344.46934,397.784519 C1343.68175,397.644692 1343.09896,397.722929 1342.72265,398.020894 C1342.34467,398.318859 1342.07991,398.88649 1341.93006,399.725453 C1341.7752,400.591049 1341.59537,401.789567 1341.39056,403.322672 C1341.18409,404.854112 1341.02923,406.13919 1340.926,407.176241 L1337.23945,406.680188 C1336.98303,403.713855 1337.08127,400.97058 1337.52918,398.453692 C1337.97876,395.936804 1338.82796,394.213934 1340.07513,393.286747 C1341.32396,392.35956 1343.10229,392.10321 1345.41013,392.514368 L1353.59245,393.97423 C1354.25683,394.037485 1354.72306,394.005858 1354.98948,393.877683 C1355.25589,393.749508 1355.48401,393.458201 1355.67383,393.005428 L1359.61847,393.871024 C1359.37536,395.234339 1359.09063,396.299688 1358.76427,397.067073 C1358.43791,397.834457 1357.92839,398.561891 1357.23737,399.251039 C1357.81349,401.328471 1357.93005,403.337653 1357.58371,405.276922 Z M1353.49754,403.37261 C1353.67571,402.37551 1353.71234,401.258557 1353.6091,400.023418 L1353.55749,399.405848 L1349.34643,398.655109 L1349.0234,402.28895 C1348.89186,403.780439 1349.54791,404.656023 1350.98989,404.912373 C1352.43354,405.170388 1353.26942,404.656023 1353.49754,403.37261 Z M691.022095,382.79139 L698.490092,375.342266 C703.017513,370.827848 707.388414,370.681362 711.602796,374.904474 C714.105449,377.413039 715.006271,380.201259 714.305262,383.270797 L724.389139,387.886756 L720.116479,392.14649 L711.446276,387.928372 L707.683138,391.680399 L714.11877,398.129093 L710.214098,402.022613 L691.022095,382.79139 Z M121.97687,374.598186 L123.261332,385.188426 C123.611004,388.069863 123.293135,390.262153 122.307726,391.76363 C121.322483,393.263442 119.547148,394.170654 116.981554,394.480271 C115.606344,394.648397 114.441769,394.560172 113.487997,394.220592 C112.534224,393.879347 111.647889,393.210175 110.828657,392.20808 C110.496968,393.456537 109.876383,394.423674 108.966736,395.111158 C108.057089,395.796977 106.80876,396.238098 105.221915,396.429528 C102.577228,396.750797 100.515328,396.236433 99.0365482,394.886436 C97.5579347,393.536438 96.6469556,391.44569 96.3037774,388.61752 L95,377.869142 L121.97687,374.598186 Z M100.951253,387.771898 C101.095617,388.962094 101.446955,389.811044 102.005098,390.320414 C102.563408,390.829784 103.424434,391.012891 104.588176,390.873064 C105.751751,390.731573 106.571149,390.350377 107.045871,389.729478 C107.520759,389.108579 107.684439,388.189715 107.53691,386.974551 L106.930646,381.977396 L100.345154,382.774743 L100.951253,387.771898 Z M1360.81568,383.140957 C1360.64417,384.675727 1360.27285,385.840953 1359.70172,386.634971 C1359.13059,387.428989 1358.28139,387.950012 1357.15411,388.199703 C1356.02684,388.449394 1354.51159,388.467705 1352.60504,388.254635 L1344.34279,387.332442 L1344.08137,389.674546 L1339.55395,389.17017 L1339.81537,386.826401 L1334.29555,386.210496 L1334.88999,380.890407 L1340.40981,381.506312 L1340.95597,376.62235 L1345.48339,377.128391 L1344.93724,382.012353 L1353.0796,382.921229 C1354.11197,383.036087 1354.87125,383.027764 1355.35413,382.892931 C1355.83868,382.759762 1356.10843,382.320305 1356.16504,381.576225 L1356.42313,378.549967 L1360.69912,378.786341 C1360.81901,379.871666 1360.88561,380.717287 1360.89893,381.32154 C1360.91059,381.925793 1360.88395,382.531711 1360.81568,383.140957 Z M112.124275,386.297055 C112.374541,388.359505 113.570752,389.260059 115.713077,389.00038 C117.855235,388.740701 118.799682,387.567152 118.54642,385.478068 L117.95947,380.639051 L111.532664,381.418087 L112.124275,386.297055 Z M707.974531,384.732323 C708.860367,383.846751 709.261658,382.892931 709.178402,381.865867 C709.095147,380.838804 708.582295,379.85502 707.64151,378.911187 C706.700726,377.969018 705.718314,377.472965 704.690944,377.424691 C703.663574,377.376418 702.707803,377.794235 701.821967,378.679806 L698.256977,382.233746 L704.352927,388.342859 L707.974531,384.732323 Z M733.075993,379.899964 C730.869729,382.100577 728.720078,383.134299 726.628706,382.999466 C724.538998,382.864632 722.251144,381.552921 719.766807,379.064331 C717.170908,376.462548 715.747243,374.00725 715.494147,371.700103 C715.242716,369.392955 716.201816,367.157386 718.371449,364.995059 C720.369575,363.000858 722.415989,362.023733 724.505696,362.063683 C726.597069,362.103634 728.706757,363.188959 730.831431,365.319658 L733.174234,368.232723 L724.857034,376.527467 C725.553048,377.150031 726.174132,377.537885 726.720286,377.6877 C727.266441,377.839179 727.830912,377.765936 728.415364,377.464642 C728.999815,377.163348 729.689169,376.619021 730.480094,375.828332 C731.102843,375.207433 731.828829,374.445042 732.659717,373.542824 C733.488939,372.640606 734.083382,371.971434 734.441379,371.538635 L735.149049,370.664716 L737.999709,373.407991 C736.396213,376.061377 734.754419,378.225368 733.075993,379.899964 Z M1361.97459,367.620147 C1361.82973,370.732965 1360.94056,372.943565 1359.30543,374.255277 C1357.6703,375.565324 1355.09604,376.137949 1351.58434,375.974817 C1347.91111,375.803363 1345.20365,374.951083 1343.46195,373.416314 C1341.72025,371.883209 1340.91934,369.58605 1341.06254,366.526499 C1341.19408,363.704987 1342.04495,361.605916 1343.61681,360.225955 C1345.187,358.845995 1347.47652,358.226761 1350.4837,358.366588 L1354.17857,358.937548 L1353.63075,370.671374 C1354.56487,370.661387 1355.2842,370.528218 1355.79039,370.271868 C1356.29492,370.015519 1356.66291,369.579391 1356.89103,368.963486 C1357.12081,368.347581 1357.26068,367.48032 1357.3123,366.363367 C1357.35393,365.484454 1357.37557,364.432421 1357.3789,363.207269 C1357.3839,361.980453 1357.37224,361.086558 1357.34393,360.525585 L1357.27733,359.401974 L1361.23196,359.506845 C1361.83805,362.548084 1362.08449,365.251409 1361.97459,367.620147 Z M726.843504,368.790367 C725.714563,367.658433 724.755462,367.045857 723.962872,366.950974 C723.171947,366.856091 722.334399,367.250604 721.446898,368.134511 C720.542746,369.036729 720.131465,369.907319 720.21472,370.746282 C720.29964,371.58358 720.877432,372.559041 721.94976,373.670999 L726.843504,368.790367 Z M1349.87927,363.616763 C1348.28243,363.54352 1347.16015,363.736615 1346.51242,364.199376 C1345.86303,364.663802 1345.51003,365.519411 1345.45175,366.771196 C1345.39181,368.047951 1345.67654,368.966815 1346.30262,369.529453 C1346.93037,370.092091 1348.01601,370.423348 1349.5579,370.52156 L1349.87927,363.616763 Z M722.054661,350.711053 L725.846106,346.929062 L745.604245,366.727917 L741.8128,370.508243 L722.054661,350.711053 Z M755.017085,358.01702 C752.810821,360.217632 750.66117,361.24969 748.569798,361.116521 C746.48009,360.981688 744.192236,359.669976 741.707899,357.181386 C739.112,354.579603 737.688335,352.124305 737.435239,349.817158 C737.183808,347.51001 738.142908,345.274441 740.312541,343.112114 C742.310667,341.117913 744.357081,340.140788 746.446788,340.180739 C748.538161,340.220689 750.647849,341.306014 752.772523,343.436713 L755.115326,346.349778 L746.798126,354.644523 C747.49414,355.267086 748.115224,355.653276 748.661378,355.804755 C749.207533,355.956234 749.772004,355.881327 750.356455,355.581697 C750.940907,355.280403 751.630261,354.736076 752.421186,353.945387 C753.043935,353.324488 753.769921,352.562097 754.600809,351.65988 C755.430031,350.755997 756.024474,350.088489 756.382471,349.655691 L757.090141,348.781771 L759.940801,351.525046 C758.337305,354.178432 756.695511,356.342424 755.017085,358.01702 Z M748.784596,346.907422 C747.655655,345.775488 746.696554,345.162912 745.903964,345.06803 C745.113039,344.971482 744.275491,345.365995 743.38799,346.251566 C742.483838,347.153784 742.072557,348.024374 742.155812,348.861673 C742.240732,349.700635 742.818524,350.676096 743.890852,351.788054 L748.784596,346.907422 Z M767.340529,345.72555 C764.416604,348.641944 761.412754,348.55372 758.325649,345.460877 C756.858691,343.989363 756.190984,342.539489 756.324193,341.107926 C756.459066,339.676362 757.336577,338.040052 758.958389,336.195666 L761.760761,332.949679 L760.884916,332.074095 C760.320445,331.508128 759.797602,331.238461 759.318052,331.26676 C758.836837,331.295058 758.295677,331.609669 757.691244,332.210593 C757.07016,332.831492 756.234277,333.710405 755.188591,334.848997 C754.14124,335.98759 753.278715,336.951398 752.599352,337.742087 L749.860254,335.225199 C751.352188,332.64672 753.002308,330.454431 754.813942,328.64833 C756.623912,326.84223 758.307333,325.916708 759.860876,325.871763 C761.414419,325.826819 763.019581,326.632489 764.676361,328.292104 L770.547522,334.174831 C771.055379,334.609294 771.455004,334.848997 771.746398,334.897271 C772.039456,334.94388 772.392458,334.837345 772.80707,334.572672 L775.544503,337.542334 C774.563756,338.521124 773.719547,339.230247 773.013543,339.673033 C772.305873,340.114154 771.471655,340.418778 770.510889,340.588568 C769.793229,342.621055 768.735887,344.333937 767.340529,345.72555 Z M765.084311,341.823707 C765.800307,341.10959 766.471344,340.215696 767.094093,339.143688 L767.405468,338.606019 L764.384967,335.579761 L762.035504,338.374638 C761.074738,339.521554 761.11137,340.615202 762.145401,341.652253 C763.181096,342.689304 764.160178,342.745901 765.084311,341.823707 Z M783.303893,329.803569 C782.058394,331.045367 780.371643,332.390371 778.240308,333.83858 L777.166315,334.571008 L774.117507,331.290064 C776.701751,329.315838 778.51172,327.811032 779.549081,326.77731 C780.24676,326.081504 780.72298,325.455611 780.977741,324.899632 C781.232502,324.345317 781.154242,323.859251 780.739631,323.444764 C780.363317,323.068562 779.897088,322.986997 779.340943,323.203396 C778.784797,323.419795 777.978887,323.902531 776.92321,324.654934 C776.546896,324.956229 776.272154,325.154317 776.103978,325.247535 C774.990023,326.018249 774.005945,326.577557 773.148416,326.92546 C772.290887,327.271699 771.39506,327.356594 770.464267,327.176816 C769.531808,326.995374 768.566047,326.406103 767.568648,325.407337 C765.970147,323.804319 765.274133,322.128059 765.483937,320.37689 C765.69374,318.625722 766.656171,316.892864 768.372894,315.181647 C769.390274,314.166236 771.0687,312.84953 773.406507,311.233195 L774.510472,310.470805 L777.585922,313.666853 C775.003343,315.641079 773.165067,317.174183 772.071093,318.264502 C771.430028,318.905376 770.99044,319.474672 770.753995,319.97239 C770.519215,320.471773 770.589149,320.909565 770.965463,321.287431 C771.360093,321.681943 771.826323,321.771832 772.364152,321.557098 C772.900315,321.340699 773.667929,320.884596 774.668657,320.18879 L775.827571,319.371467 C777.63754,318.167955 779.159446,317.543726 780.393289,317.498782 C781.627132,317.452173 782.902603,318.089718 784.219701,319.409753 C785.838183,321.031081 786.57083,322.689032 786.41764,324.383603 C786.266115,326.078175 785.22709,327.88594 783.303893,329.803569 Z M797.245819,315.899093 C795.039555,318.099706 792.889904,319.133428 790.798532,318.998594 C788.708825,318.863761 786.42097,317.553714 783.936633,315.06346 C781.340734,312.461676 779.917069,310.008043 779.665638,307.700896 C779.412542,305.392084 780.371643,303.158179 782.541275,300.994188 C784.539401,298.999987 786.585816,298.022861 788.675523,298.062812 C790.766895,298.104427 792.876583,299.189752 795.002923,301.320451 L797.344061,304.231852 L789.02686,312.528261 C789.722874,313.14916 790.343958,313.537014 790.890113,313.688493 C791.436267,313.839972 792.002403,313.765065 792.586855,313.463771 C793.169642,313.164141 793.858995,312.61815 794.651585,311.827461 C795.27267,311.206562 795.998656,310.445835 796.829543,309.541953 C797.658766,308.639735 798.253208,307.972227 798.611206,307.539429 L799.318875,306.663845 L802.169536,309.40712 C800.566039,312.060506 798.924246,314.224497 797.245819,315.899093 Z M791.01333,304.789495 C789.884389,303.657562 788.925288,303.044986 788.134363,302.950103 C787.341773,302.85522 786.504225,303.249732 785.616724,304.13364 C784.712572,305.035857 784.301291,305.906448 784.384546,306.74541 C784.469467,307.582709 785.047258,308.558169 786.119586,309.671792 L791.01333,304.789495 Z M613.914401,233.972052 L617.667548,237.734067 L616.874958,238.523092 C618.005564,238.826051 618.933028,239.170625 619.657349,239.558478 C620.383335,239.944668 621.064363,240.459032 621.705428,241.099906 C623.435473,242.834428 624.111505,244.623882 623.733526,246.469933 C623.353882,248.31432 622.005147,250.393416 619.68399,252.707222 L612.017846,260.354434 L608.236392,256.56412 L615.789309,249.030101 C617.091421,247.733371 617.850709,246.664692 618.068838,245.827394 C618.285302,244.990096 617.962272,244.136152 617.096417,243.268891 C616.475333,242.647992 615.637785,242.072037 614.583773,241.542692 L614.130864,241.316305 L603.550786,251.869924 L599.767666,248.07961 L613.914401,233.972052 Z M588.453276,237.421121 C585.537677,234.498068 585.625927,231.495114 588.718028,228.40893 C590.189981,226.94241 591.641953,226.274902 593.072278,226.409735 C594.504269,226.542904 596.142732,227.420152 597.986004,229.041481 L601.232959,231.843018 L602.11047,230.967433 C602.676605,230.403131 602.944687,229.880444 602.918046,229.401037 C602.889739,228.919965 602.575034,228.378967 601.972266,227.774714 C601.351182,227.153815 600.472006,226.318182 599.333074,225.272807 C598.194142,224.225769 597.230046,223.363501 596.439121,222.684341 L598.958425,219.947724 C601.537673,221.437549 603.730617,223.088841 605.535591,224.89827 C607.34223,226.7077 608.268029,228.390619 608.314652,229.943699 C608.35961,231.498444 607.552033,233.103126 605.891924,234.757747 L600.007442,240.627157 C599.574514,241.134863 599.333074,241.534369 599.286451,241.825675 C599.238163,242.118646 599.346395,242.471543 599.609481,242.886031 L596.638934,245.622647 C595.659852,244.642193 594.950517,243.798236 594.509264,243.092442 C594.066346,242.384984 593.761632,241.551015 593.593456,240.590536 C591.558698,239.873089 589.846969,238.816063 588.453276,237.421121 Z M592.356283,235.165576 C593.070613,235.881358 593.964775,236.552195 595.038767,237.174759 L595.574931,237.486041 L598.602093,234.466441 L595.806381,232.119343 C594.659123,231.157199 593.566814,231.19382 592.529454,232.227542 C591.492093,233.262929 591.433815,234.241718 592.356283,235.165576 Z M597.689615,206.40114 L601.471069,210.189789 L581.667972,229.942034 L577.884853,226.151721 L597.689615,206.40114 Z M580.68223,190.490811 L587.738946,197.560403 C592.291344,202.123096 592.342962,206.624197 587.892136,211.063708 C585.629258,213.320918 583.324752,214.462839 580.978619,214.487808 C578.634151,214.514442 576.341301,213.404148 574.101734,211.16192 L570.941364,207.99417 L565.33995,213.580597 L561.445269,209.677089 L580.68223,190.490811 Z M577.411963,207.80274 C579.350146,209.745338 581.526438,209.512293 583.940841,207.105269 C585.109745,205.938379 585.727499,204.861377 585.795768,203.872599 C585.862372,202.883822 585.387817,201.880063 584.372103,200.861322 L581.238375,197.723535 L574.2799,204.663288 L577.411963,207.80274 Z M1160.33201,123.670093 L1156.72872,122.604743 L1157.68782,102.05515 L1162.74641,103.553298 L1161.85392,119.370409 L1162.73642,119.631752 L1170.60238,105.877091 L1175.6593,107.375239 L1160.86151,132.575749 L1155.84122,131.090918 L1160.33201,123.670093 Z M1102.61946,94.063364 L1107.91949,94.4445594 L1107.8429,95.5198966 C1108.92355,94.9838926 1109.82271,94.6343248 1110.54203,94.4728578 C1111.26136,94.3097261 1112.02065,94.2581232 1112.81657,94.3147199 C1115.36917,94.4978269 1117.20079,95.4782813 1118.31641,97.2527541 C1119.43037,99.0288915 1119.85497,101.763843 1119.59022,105.455945 C1119.40705,108.006126 1118.95581,110.003656 1118.23815,111.446872 C1117.51882,112.890087 1116.48479,113.897175 1115.13606,114.468136 C1113.78566,115.039097 1112.03563,115.247173 1109.88265,115.092364 C1108.82031,115.015792 1107.69803,114.829356 1106.51747,114.529727 L1105.92803,122.739576 L1100.58637,122.355052 L1102.61946,94.063364 Z M308.340945,120.823612 C305.543568,121.497778 303.275695,121.524412 301.53566,120.903513 C299.79729,120.282614 298.415252,119.074108 297.392878,117.27966 C296.370503,115.485212 295.471346,112.983305 294.697072,109.772275 C293.846203,106.251628 293.488206,103.433446 293.621414,101.319393 C293.754623,99.20534 294.42899,97.542396 295.644517,96.3305609 C296.858379,95.1203905 298.748273,94.2048558 301.312535,93.587286 C303.668659,93.0179898 306.382781,92.7333418 309.45157,92.7316772 L310.327415,97.0413488 C307.669907,97.2710648 305.538573,97.580682 303.931746,97.9685358 C302.301608,98.3613834 301.132704,98.9173627 300.43003,99.634809 C299.72569,100.35392 299.354372,101.339368 299.314409,102.596148 C299.276112,103.852927 299.515887,105.554157 300.033735,107.703167 L300.381742,109.141389 C300.971189,111.355318 301.533994,112.978312 302.071823,114.013698 C302.609652,115.049085 303.338969,115.714928 304.261437,116.012893 C305.18224,116.310858 306.472697,116.26092 308.129476,115.859749 C309.891158,115.435274 311.970874,114.741132 314.368626,113.778988 L315.545855,118.140263 C312.866701,119.417018 310.465619,120.310912 308.340945,120.823612 Z M1141.19163,119.403701 C1138.24272,118.797783 1136.18798,117.444456 1135.02907,115.34372 C1133.87016,113.24132 1133.62872,110.547983 1134.30475,107.260381 C1134.97579,103.999413 1136.25792,101.638998 1138.14948,100.179136 C1140.04104,98.7192743 1142.46044,98.2931345 1145.40934,98.899052 C1148.35824,99.5049695 1150.41298,100.851638 1151.57522,102.940722 C1152.73747,105.028141 1152.98224,107.701502 1152.3112,110.962471 C1151.63517,114.250072 1150.3497,116.630463 1148.45482,118.103641 C1146.56159,119.57682 1144.14053,120.009618 1141.19163,119.403701 Z M327.396409,117.164802 C324.419201,117.612582 322.02478,117.051609 320.21148,115.478554 C318.39818,113.907163 317.242597,111.461853 316.743066,108.142624 C316.246864,104.851692 316.634834,102.193312 317.905309,100.170813 C319.17745,98.1483135 321.302124,96.9115093 324.277667,96.4637296 C327.254875,96.0159499 329.649297,96.5719292 331.459266,98.1300028 C333.270901,99.6897411 334.424819,102.115076 334.919355,105.407672 C335.420551,108.725237 335.034247,111.401927 333.765437,113.439408 C332.496627,115.475224 330.373617,116.717022 327.396409,117.164802 Z M1126.84341,88.1889603 L1132.14844,88.9197235 L1128.33202,116.623804 L1123.02699,115.893041 L1126.84341,88.1889603 Z M1062.03585,88.551845 C1065.10797,88.215594 1067.51238,88.3887133 1069.24742,89.0712029 C1070.98413,89.7520278 1072.27791,90.9838381 1073.12878,92.7666339 C1073.97965,94.5494297 1074.58409,97.082964 1074.94208,100.365572 C1075.31507,103.781349 1075.29176,106.516301 1074.87215,108.572093 C1074.45421,110.62622 1073.46847,112.220915 1071.91659,113.354513 C1070.36637,114.488112 1068.05354,115.222204 1064.98142,115.55679 L1055.88495,116.548897 L1052.93772,89.5422871 L1062.03585,88.551845 Z M346.839843,115.037432 C344.182335,115.203893 342.214181,114.478124 340.93871,112.863454 C339.664905,111.248783 338.920603,108.740218 338.709134,105.337758 C338.477685,101.615693 338.965561,98.8557722 340.174427,97.0596595 C341.384959,95.2635468 343.358108,94.2797632 346.097206,94.1099731 C347.081284,94.0483826 348.594864,94.1416006 350.639614,94.3879627 L350.136752,86.3329217 L355.48174,86 L357.220109,113.912157 L351.916749,114.241749 L351.863466,113.404451 C350.804459,113.977077 349.895311,114.379912 349.136023,114.614622 C348.376735,114.849332 347.612452,114.989159 346.839843,115.037432 Z M1142.1091,114.94255 C1143.36126,115.200564 1144.38197,114.934227 1145.16956,114.145202 C1145.95716,113.354513 1146.56326,111.929608 1146.98786,109.868823 C1147.41246,107.808037 1147.41412,106.271603 1146.99785,105.261186 C1146.57991,104.250769 1145.74402,103.618217 1144.49186,103.360203 C1143.23971,103.102189 1142.22066,103.355209 1141.43806,104.119265 C1140.65546,104.881655 1140.05269,106.294908 1139.62809,108.355693 C1139.20516,110.416479 1139.19849,111.964565 1139.61144,113.001616 C1140.02439,114.038667 1140.85527,114.684535 1142.1091,114.94255 Z M369.808305,114.55969 C366.692893,114.479788 364.463317,113.635832 363.117912,112.029485 C361.774172,110.423137 361.146428,107.862969 361.238008,104.347316 C361.332919,100.673525 362.12884,97.9502251 363.627435,96.177417 C365.124364,94.4046088 367.405558,93.557323 370.467687,93.6355596 C373.291705,93.7088024 375.409719,94.5161376 376.821729,96.0575651 C378.235403,97.5989927 378.901445,99.8745126 378.82485,102.88246 L378.330314,106.586215 L366.584661,106.283256 C366.612968,107.217101 366.761163,107.934547 367.029245,108.43393 C367.295661,108.933313 367.740244,109.291203 368.359664,109.507603 C368.980748,109.722337 369.849933,109.845518 370.968884,109.873816 C371.848059,109.897121 372.900406,109.897121 374.127588,109.875481 C375.353106,109.853841 376.247267,109.823878 376.808408,109.783928 L377.929024,109.694039 L377.907377,113.649149 C374.878551,114.316657 372.179415,114.62128 369.808305,114.55969 Z M1088.63591,114.508087 C1085.5205,114.55969 1083.25595,113.810616 1081.84561,112.260865 C1080.43527,110.712779 1079.70095,108.18091 1079.64434,104.665256 C1079.5844,100.9898 1080.26542,98.2365378 1081.68742,96.4021391 C1083.10942,94.5677404 1085.35232,93.625572 1088.41611,93.5756337 C1091.24013,93.5290247 1093.38978,94.246471 1094.86507,95.7279726 C1096.34202,97.2094743 1097.10463,99.4533667 1097.15292,102.462979 L1096.81491,106.185044 L1085.06759,106.374809 C1085.13586,107.30699 1085.31402,108.016113 1085.60042,108.503844 C1085.88849,108.993239 1086.34805,109.331154 1086.9758,109.520919 C1087.60521,109.710685 1088.47939,109.79558 1089.59834,109.777269 C1090.47752,109.763952 1091.52986,109.720672 1092.75371,109.64743 C1093.97923,109.574187 1094.87006,109.505938 1095.42787,109.442683 L1096.54516,109.306185 L1096.69002,113.257966 C1093.69117,114.053649 1091.00702,114.469801 1088.63591,114.508087 Z M326.717046,112.662036 C327.982526,112.470606 328.848381,111.869682 329.314611,110.855936 C329.782505,109.843854 329.8591,108.295768 329.54606,106.216671 C329.23302,104.135911 328.705182,102.692695 327.96421,101.888689 C327.223238,101.084683 326.220845,100.776731 324.95703,100.96816 C323.69155,101.157926 322.82403,101.747197 322.352805,102.732646 C321.881581,103.719759 321.803321,105.252863 322.11636,107.333624 C322.4294,109.414385 322.958904,110.870917 323.703206,111.701557 C324.449173,112.532196 325.453231,112.851801 326.717046,112.662036 Z M1064.46191,110.791016 C1066.18363,110.60458 1067.42413,110.120179 1068.18342,109.341142 C1068.94271,108.562105 1069.3773,107.516731 1069.48886,106.205019 C1069.60043,104.893308 1069.5255,103.045592 1069.26574,100.663537 C1069.03595,98.5444904 1068.72791,96.9581184 1068.34494,95.9010919 C1067.96196,94.8440655 1067.33089,94.10165 1066.45338,93.6755102 C1065.57587,93.2493704 1064.27708,93.1295186 1062.55537,93.3176194 L1058.94042,93.710467 L1060.84697,111.185528 L1064.46191,110.791016 Z M1109.69616,110.433125 C1111.18476,110.53966 1112.26542,110.183434 1112.93812,109.364446 C1113.61082,108.543794 1114.0221,107.112231 1114.16863,105.066427 C1114.3135,103.047257 1114.14033,101.552438 1113.64912,100.583636 C1113.15791,99.6131691 1112.27541,99.082159 1110.99827,98.9906055 C1110.06914,98.9240211 1109.09839,99.0555252 1108.086,99.3834531 L1107.59313,99.5482494 L1106.84383,109.988674 C1108.02772,110.233372 1108.9785,110.381522 1109.69616,110.433125 Z M347.778963,110.176775 C348.736398,110.116849 349.817052,109.888798 351.019258,109.494286 L351.570407,109.339477 L350.917686,98.852443 C349.492356,98.6743298 348.300141,98.6160685 347.342705,98.6759945 C346.067234,98.7542311 345.178068,99.2636013 344.675206,100.202441 C344.172345,101.14128 343.989183,102.699353 344.125722,104.879991 C344.250605,106.874192 344.590286,108.272463 345.148096,109.079798 C345.705907,109.885469 346.581752,110.250018 347.778963,110.176775 Z M373.561452,102.388072 C373.601415,100.790047 373.384951,99.6714304 372.907066,99.0338853 C372.430846,98.3946756 371.566656,98.0600893 370.314497,98.0284617 C369.037361,97.9951695 368.123219,98.2981283 367.573734,98.9356734 C367.024249,99.5748831 366.716205,100.665202 366.649601,102.209959 L373.561452,102.388072 Z M1091.87287,102.189983 C1091.8479,100.591959 1091.58315,99.4833296 1091.08028,98.8657598 C1090.57742,98.24819 1089.69991,97.9485605 1088.44775,97.9702004 C1087.16895,97.9901757 1086.26813,98.3314205 1085.74695,98.9922701 C1085.22411,99.6531197 1084.96269,100.756755 1084.96102,102.301512 L1091.87287,102.189983 Z" id="Fill-37" fill="#000000"></path>
        </g>
    </g>
</svg>