<?xml version="1.0" encoding="UTF-8" standalone="no"?>
<!-- Created with Inkscape (http://www.inkscape.org/) -->

<svg
   xmlns:dc="http://purl.org/dc/elements/1.1/"
   xmlns:cc="http://creativecommons.org/ns#"
   xmlns:rdf="http://www.w3.org/1999/02/22-rdf-syntax-ns#"
   xmlns:svg="http://www.w3.org/2000/svg"
   xmlns="http://www.w3.org/2000/svg"
   xmlns:sodipodi="http://sodipodi.sourceforge.net/DTD/sodipodi-0.dtd"
   xmlns:inkscape="http://www.inkscape.org/namespaces/inkscape"
   version="1.1"
   id="svg2"
   width="48.321465"
   height="44.625336"
   viewBox="0 0 48.321465 44.625336"
   sodipodi:docname="herr_der_lage_logo.svg"
   inkscape:version="0.92.4 (unknown)">
  <metadata
     id="metadata8">
    <rdf:RDF>
      <cc:Work
         rdf:about="">
        <dc:format>image/svg+xml</dc:format>
        <dc:type
           rdf:resource="http://purl.org/dc/dcmitype/StillImage" />
        <dc:title></dc:title>
      </cc:Work>
    </rdf:RDF>
  </metadata>
  <defs
     id="defs6" />
  <sodipodi:namedview
     pagecolor="#ffffff"
     bordercolor="#666666"
     borderopacity="1"
     objecttolerance="10"
     gridtolerance="10"
     guidetolerance="10"
     inkscape:pageopacity="0"
     inkscape:pageshadow="2"
     inkscape:window-width="1855"
     inkscape:window-height="1056"
     id="namedview4"
     showgrid="false"
     inkscape:zoom="3.5301205"
     inkscape:cx="19.603168"
     inkscape:cy="27.397743"
     inkscape:window-x="65"
     inkscape:window-y="24"
     inkscape:window-maximized="1"
     inkscape:current-layer="svg2" />
  <path
     style="fill:#0c6ab0;fill-opacity:1;stroke:#000000;stroke-width:0px;stroke-linecap:butt;stroke-linejoin:miter;stroke-opacity:1"
     d="M 9.0286545,5.9644 C 9.0286545,5.9644 12.148565,2.1518838 19.444605,0.55611909 23.364875,-0.30130918 27.426685,-0.13476638 31.321365,0.83227788 34.206655,1.5486919 37.195485,3.1812777 39.575425,4.9628665 45.077815,9.3320391 48.421605,15.434418 48.288765,22.990469 48.479365,26.338483 47.826995,29.79023 46.586155,32.905651 45.695375,35.14217 44.231015,37.162782 42.580025,38.914852 41.403205,40.16372 38.473735,42.019606 38.473735,42.019606 38.473735,42.019606 40.941495,39.086186 41.979105,37.112092 46.090655,29.136708 46.253945,18.591204 40.093375,10.505668 37.873975,7.8146614 35.355125,6.0787604 32.264225,4.4620998 25.257275,0.46119536 15.996635,3.4559945 9.0286545,5.9644 Z"
     id="path817"
     inkscape:connector-curvature="0"
     sodipodi:nodetypes="cssccssccccc" />
  <path
     style="fill:#0c6ab0;fill-opacity:1;stroke:#000000;stroke-width:0px;stroke-linecap:butt;stroke-linejoin:miter;stroke-opacity:1"
     d="M 9.4292645,3.1100295 C 9.4292645,3.1100295 6.7454145,5.0935387 5.6234345,6.3149367 4.3514145,7.6996759 3.1843245,9.2279157 2.3684545,10.921991 1.1994645,13.349289 0.36489453,16.001362 0.11500453,18.683875 -0.20543547,22.123749 0.14860453,25.683269 1.1165345,28.99967 1.6728845,30.905883 2.6807745,32.681821 3.8206745,34.307798 5.0274045,36.029101 6.5183845,37.561874 8.1272745,38.914852 9.7607745,40.288528 11.564135,41.490828 13.485475,42.420219 15.148605,43.224709 16.933905,43.800736 18.743525,44.172903 20.499155,44.533968 22.309445,44.64077 24.101735,44.623593 25.561645,44.609601 27.031245,44.480698 28.458405,44.172903 30.315975,43.772282 32.183455,43.252074 33.866685,42.370143 35.640965,41.440506 38.674045,38.764622 38.674045,38.764622 38.674045,38.764622 35.639585,40.377554 34.016915,40.917919 32.268145,41.500276 30.444585,41.906479 28.608635,42.069682 26.562475,42.251571 24.478235,42.190157 22.449205,41.869376 20.012355,41.484119 17.561225,40.886439 15.338315,39.816232 13.568965,38.964389 11.920875,37.798231 10.530955,36.411018 8.4721745,34.356255 6.4918545,31.716212 5.1226645,29.1499 4.2572945,27.527892 3.9259845,25.935313 3.5202145,24.142233 3.0765745,22.181794 2.9339845,20.141224 3.0194545,18.133032 3.0957645,16.33995 3.4004145,14.542498 3.9208345,12.824904 4.4191745,11.180175 5.1870545,9.6186699 6.0240545,8.117697 7.0071645,6.3546946 9.4292645,3.1100295 9.4292645,3.1100295 Z"
     id="path819"
     inkscape:connector-curvature="0"
     sodipodi:nodetypes="csssassssssscssssssssssc" />
  <path
     style="fill:#0c6ab0;fill-opacity:1;stroke:#000000;stroke-width:0px;stroke-linecap:butt;stroke-linejoin:miter;stroke-opacity:1"
     d="M 10.781335,32.555114 C 10.781335,32.555114 13.008025,35.166827 14.386855,36.160635 15.476915,36.946309 16.731345,37.499355 17.992375,37.963395 19.105595,38.373045 20.270105,38.671774 21.447665,38.814699 23.071585,39.011801 24.741545,39.083258 26.355185,38.814699 28.287015,38.493184 30.199395,37.858633 31.913695,36.911785 33.867065,35.832891 35.701725,34.426809 37.121665,32.705344 38.095715,31.524453 38.755075,30.088925 39.274965,28.649134 39.859785,27.029514 40.205395,25.309091 40.326575,23.591389 40.454885,21.772709 40.325625,19.922402 39.976035,18.133032 39.228075,15.075778 37.652265,13.252865 35.118595,11.322604 35.118595,11.322604 36.788895,13.857102 37.271895,15.278661 37.685075,16.494711 37.749785,17.80607 37.872815,19.084489 38.008815,20.497682 38.199005,21.93223 38.023045,23.341006 37.816165,24.997359 37.365795,26.654572 36.620895,28.148367 35.923665,29.546561 34.916475,30.794451 33.816605,31.904117 32.768415,32.96164 31.545735,33.855301 30.261165,34.608258 29.177665,35.243358 28.014255,35.768294 26.805875,36.110558 25.443105,36.496552 24.015815,36.708967 22.599435,36.711478 21.268025,36.713839 19.933245,36.490608 18.643375,36.160635 17.138645,35.775698 15.694965,35.163235 14.286705,34.508105 13.073945,33.943922 10.781335,32.555114 10.781335,32.555114 Z"
     id="path821"
     inkscape:connector-curvature="0"
     sodipodi:nodetypes="cssssssssccssssssssssc" />
  <path
     style="fill:#0c6ab0;fill-opacity:1;stroke:#000000;stroke-width:0px;stroke-linecap:butt;stroke-linejoin:miter;stroke-opacity:1"
     d="M 37.672505,11.873447 C 37.672505,11.873447 35.755355,9.3372599 34.517675,8.3680804 33.429955,7.5163315 32.165595,6.8727835 30.862085,6.41509 29.404075,5.903148 27.847705,5.6545641 26.305105,5.5637866 24.317685,5.4468331 22.932995,5.1490832 20.345985,5.9644 18.009365,6.7296401 14.823895,8.6720197 12.934635,10.671607 11.965965,11.718351 11.298155,13.016556 10.631105,14.277128 10.036525,15.40075 9.4512545,16.552828 9.1288045,17.782495 8.7753245,19.130495 8.7069945,20.545582 8.6781145,21.938859 8.6521145,23.193285 8.6538245,24.470349 8.9284945,25.69461 9.1680345,26.762269 9.6158945,27.78356 10.130335,28.749287 10.807345,30.020203 12.584095,32.304731 12.584095,32.304731 12.584095,32.304731 11.369095,28.373884 11.081795,26.345607 10.810075,24.427307 10.553495,22.446198 10.881485,20.536712 11.151725,18.963396 11.867445,17.480061 12.634175,16.079888 13.426385,14.633185 14.363725,13.231416 15.538615,12.073754 16.613995,11.014146 17.899145,10.155162 19.244295,9.4697672 20.391915,8.88502 21.640845,8.4894332 22.899895,8.2178503 24.276715,7.9208632 25.699185,7.7558342 27.106335,7.8172369 28.395055,7.8734719 29.688265,8.110791 30.912155,8.5183104 33.299025,9.3130702 37.672505,11.873447 37.672505,11.873447 Z"
     id="path823"
     inkscape:connector-curvature="0"
     sodipodi:nodetypes="csssccssssscssssaassc" />
  <path
     style="fill:#0c6ab0;fill-opacity:1;stroke:#000000;stroke-width:0px;stroke-linecap:butt;stroke-linejoin:miter;stroke-opacity:1"
     d="M 20.578455,14.755019 C 20.578455,14.755019 23.062595,13.756048 24.377155,13.626131 25.644958,13.500835 26.974917,13.572197 28.182985,13.976668 29.551266,14.43478 30.833156,15.2451 31.863615,16.255157 32.708423,17.083239 33.371813,18.128722 33.791565,19.234719 34.243899,20.426569 34.386525,21.740852 34.367445,23.015508 34.349411,24.220223 34.241801,25.486667 33.716455,26.570952 33.154331,27.731144 31.162545,29.475399 31.162545,29.475399 31.162545,29.475399 32.147063,27.113688 32.414455,25.869878 32.650452,24.772104 32.8644,23.627601 32.714915,22.514741 32.552486,21.305527 32.092793,20.113946 31.437965,19.084489 30.709423,17.939146 29.72582,16.913461 28.583595,16.180041 27.63497,15.570931 26.508138,15.254498 25.403725,15.028278 23.825492,14.705004 20.578455,14.755019 20.578455,14.755019 Z"
     id="path825"
     inkscape:connector-curvature="0"
     sodipodi:nodetypes="csasssscsssssc" />
  <path
     style="fill:#0c6ab0;fill-opacity:1;stroke:#000000;stroke-width:0px;stroke-linecap:butt;stroke-linejoin:miter;stroke-opacity:1"
     d="M 30.035815,29.425322 C 30.035815,29.425322 27.388005,29.953084 26.054725,29.876012 24.728855,29.799369 23.389595,29.509045 22.173775,28.974632 21.118375,28.510731 20.100255,27.86978 19.319405,27.021642 18.473795,26.103165 17.864515,24.950002 17.466575,23.766658 17.182135,22.920832 17.124145,22.004928 17.116035,21.112594 17.109325,20.37344 17.166725,19.62092 17.366415,18.90922 17.570195,18.18297 17.972365,17.526591 18.317875,16.856077 18.634625,16.241367 19.344445,15.053316 19.344445,15.053316 19.344445,15.053316 17.872095,16.042731 17.266265,16.680808 16.746515,17.22822 16.232095,17.827903 15.964275,18.533645 15.517255,19.711611 15.523515,21.029555 15.538615,22.289396 15.552545,23.451941 15.576525,24.667643 16.014345,25.744686 16.400935,26.69572 17.126065,27.48785 17.842145,28.223482 18.646825,29.05014 19.560725,29.795354 20.571325,30.35174 21.394615,30.805003 22.297245,31.155483 23.225385,31.303197 24.379785,31.486922 25.601415,31.504714 26.730755,31.203044 27.939325,30.88021 30.035815,29.425322 30.035815,29.425322 Z"
     id="path827"
     inkscape:connector-curvature="0"
     sodipodi:nodetypes="cssssssscssssssssc" />
</svg>
