<?xml version="1.0" encoding="UTF-8"?>
<svg width="100px" height="100px" viewBox="0 0 100 100" version="1.1" xmlns="http://www.w3.org/2000/svg" xmlns:xlink="http://www.w3.org/1999/xlink">
    <title>icon_text sprache</title>
    <g id="icon_text-sprache" stroke="none" stroke-width="1" fill="none" fill-rule="evenodd">
        <path d="M64,88.5 L64,94.5 C64,95.881 62.8808,97 61.5,97 L7.5,97 C6.1193,97 5,95.881 5,94.5 L5,6.5 C5,5.119 6.1193,4 7.5,4 C7.5,4 61.5,4 61.5,4 C62.8808,4 64,5.119 64,6.5 C64,6.5 64,14.5 64,14.5 L67,14.5 L67,6.5 C67,3.462 64.5376,1 61.5,1 L7.5,1 C4.4625,1 2,3.462 2,6.5 C2,6.5 2,94.5 2,94.5 C2,97.537 4.4625,100 7.5,100 C7.5,100 61.5,100 61.5,100 C64.5376,100 67,97.537 67,94.5 L67,88.5 L64,88.5 Z M11.5,87.5 L57.5,87.5 L57.5,84.5 L11.5,84.5 L11.5,87.5 Z M11.5,73.5 L50,73.5 L50,70.5 L11.5,70.5 L11.5,73.5 Z M58.5,71 L58.5,30 L55.5,30 L55.5,71 L58.5,71 Z M80.5,71 L80.5,30 L77.5,30 L77.5,71 L80.5,71 Z M64,67 L64,34 L61,34 L61,67 L64,67 Z M86,67 L86,34 L83,34 L83,67 L86,67 Z M69.5,63.5 L69.5,38.5 L66.5,38.5 L66.5,63.5 L69.5,63.5 Z M91.5,63.5 L91.5,38.5 L88.5,38.5 L88.5,63.5 L91.5,63.5 Z M11.5,59.5 L43,59.5 L43,56.5 L11.5,56.5 L11.5,59.5 Z M75,58 L75,43 L72,43 L72,58 L75,58 Z M97.0004,58 L97.0004,43 L94,43 L94,58 L97.0004,58 Z M53,58 L53,43 L50,43 L50,58 L53,58 Z M11.5,45.5 L43,45.5 L43,42.5 L11.5,42.5 L11.5,45.5 Z M11.5,31.5 L43,31.5 L43,28.5 L11.5,28.5 L11.5,31.5 Z M11.5,17.5 L57.5,17.5 L57.5,14.5 L11.5,14.5 L11.5,17.5 Z" id="Fill-1" fill="#0C0C0C"></path>
    </g>
</svg>