<?xml version="1.0" encoding="UTF-8"?>
<svg width="100px" height="100px" viewBox="0 0 100 100" version="1.1" xmlns="http://www.w3.org/2000/svg" xmlns:xlink="http://www.w3.org/1999/xlink">
    <!-- Generator: Sketch 64 (93537) - https://sketch.com -->
    <title>icon_anwendung</title>
    <desc>Created with Sketch.</desc>
    <g id="icon_anwendung" stroke="none" stroke-width="1" fill="none" fill-rule="evenodd">
        <path d="M48.3333333,33.3333333 C65.8143543,33.3526225 79.9807108,47.518979 80,65 L80,65 L80,85 C79.9898984,93.2800834 73.2800834,99.9898984 65,100 L65,100 L51.6666667,100 C51.1420712,100 50.6480906,99.7530097 50.3333333,99.3333333 L50.3333333,99.3333333 L40.8333333,86.6666667 L15,86.6666667 C6.71991658,86.6565651 0.0101015937,79.9467501 -4.97379915e-14,71.6666667 L-4.97379915e-14,71.6666667 L-4.97379915e-14,65 C0.0192891667,47.518979 14.1856457,33.3526225 31.6666667,33.3333333 L31.6666667,33.3333333 Z M52.5,86.6666667 L45,86.6666667 L52.5,96.6666667 L60,96.6666667 L52.5,86.6666667 Z M73.1416667,93.3333333 L61.6666667,93.3333333 L64.1666667,96.6666667 L65,96.6666667 C68.0460139,96.6662741 70.9699392,95.4691706 73.1416667,93.3333333 L73.1416667,93.3333333 Z M76.5483333,86.6666667 L56.6666667,86.6666667 L59.1666667,90 L75.5283333,90 C76.0345813,88.946722 76.3784768,87.8228805 76.5483333,86.6666667 L76.5483333,86.6666667 Z M38.3333333,36.6666667 L31.6666667,36.6666667 C30.5523454,36.6726955 29.4393318,36.7439283 28.3333333,36.88 L28.3333333,36.88 L28.3333333,45 L25,45 L25,37.5 C14.7134058,40.0151895 6.68185616,48.0467391 4.16666667,58.3333333 L4.16666667,58.3333333 L8.33333333,58.3333333 L8.33333333,61.6666667 L3.54666667,61.6666667 C3.41059499,62.7726652 3.33936212,63.8856788 3.33333333,65 L3.33333333,65 L3.33333333,71.6666667 C3.34068106,78.1069428 8.5597239,83.3259856 15,83.3333333 L15,83.3333333 L30.0433333,83.3333333 C28.9403222,81.8993519 28.3394614,80.1424488 28.3333333,78.3333333 L28.3333333,78.3333333 L28.3333333,75 C28.3388435,70.3999114 32.0665781,66.6721769 36.6666667,66.6666667 L36.6666667,66.6666667 L44.53,66.6666667 C42.3737717,62.3900648 43.201356,57.2129605 46.5833333,53.8216667 L46.5833333,53.8216667 L48.9466667,56.1783333 C46.1040585,59.0377896 45.9307977,63.5998412 48.5483333,66.6666667 L48.5483333,66.6666667 L59.0483333,66.6666667 C59.393796,64.3271217 60.4830532,62.160879 62.155,60.4883333 L62.155,60.4883333 L64.5116667,62.845 C61.4869659,65.8787801 61.4869659,70.7878866 64.5116667,73.8216667 L64.5116667,73.8216667 L62.155,76.1783333 C60.4830532,74.5057877 59.393796,72.339545 59.0483333,70 L59.0483333,70 L36.6666667,70 C33.9052429,70 31.6666667,72.2385763 31.6666667,75 L31.6666667,75 L31.6666667,78.3333333 C31.6666667,81.0947571 33.9052429,83.3333333 36.6666667,83.3333333 L36.6666667,83.3333333 L46.6666667,83.3333333 L46.6666667,76.6666667 L50,76.6666667 L50,83.3333333 L76.6666689,83.3333333 L76.6666689,65 C76.6677915,62.1750645 76.2447421,59.3659716 75.4116667,56.6666667 L75.4116667,56.6666667 L60,56.6666667 C55.3999114,56.6611565 51.6721769,52.9334219 51.6666667,48.3333333 L51.6666667,48.3333333 L51.6666667,45 L55,45 L55,48.3333333 C55,51.0947571 57.2385763,53.3333333 60,53.3333333 L60,53.3333333 L74.1233333,53.3333333 C72.6159884,50.0171663 70.4844369,47.0221299 67.845,44.5116667 L67.845,44.5116667 L62.845,49.5116667 L60.4883333,47.155 L65.29,42.3533333 C60.4060005,38.6653309 54.4533666,36.6690279 48.3333333,36.6666667 L48.3333333,36.6666667 L41.6666667,36.6666667 L41.6666667,48.3333333 C41.6611565,52.9334219 37.9334219,56.6611565 33.3333333,56.6666667 L33.3333333,56.6666667 L28.4766667,56.6666667 C28.8191951,58.8223705 29.8355525,60.8142443 31.38,62.3566667 L31.38,62.3566667 L32.0116667,62.9883333 L29.655,65.345 L29.0233333,64.7133333 C26.8507414,62.5479702 25.4724877,59.7127726 25.1116667,56.6666667 L25.1116667,56.6666667 L23.3333333,56.6666667 C20.5719096,56.6666667 18.3333333,58.9052429 18.3333333,61.6666667 L18.3333333,61.6666667 L18.3333333,70.1416667 C20.6728302,70.4883877 22.8388593,71.5781218 24.5116667,73.25 L24.5116667,73.25 L22.155,75.6066667 C19.1219778,72.580133 14.2113556,72.580133 11.1783333,75.6066667 L11.1783333,75.6066667 L8.82166667,73.25 C10.494474,71.5781218 12.6605031,70.4883877 15,70.1416667 L15,70.1416667 L15,61.6666667 C15.0089234,59.1912366 16.1247218,56.8495887 18.0416667,55.2833333 C16.0667507,52.846526 14.9924864,49.8032678 15,46.6666667 L15,46.6666667 L18.3333333,46.6666667 C18.3308595,49.2675721 19.3092882,51.7737543 21.0733333,53.685 C21.8064802,53.4625173 22.5672484,53.3441382 23.3333333,53.3333333 L23.3333333,53.3333333 L33.3333333,53.3333333 C36.0947571,53.3333333 38.3333333,51.0947571 38.3333333,48.3333333 L38.3333333,48.3333333 L38.3333333,36.6666667 Z M48.3333333,-5.96855898e-13 C50.9665868,0.00738942617 53.4402429,1.26338832 55,3.385 C56.5597571,1.26338832 59.0334132,0.00738942617 61.6666667,-5.96855898e-13 L61.6666667,-5.96855898e-13 L91.6666667,-5.96855898e-13 C92.5871412,-5.96855898e-13 93.3333333,0.746192084 93.3333333,1.66666667 L93.3333333,1.66666667 L93.3333333,5 L98.3333333,5 C99.2538079,5 100,5.74619208 100,6.66666667 L100,6.66666667 L100,61.6666667 C100,62.5871412 99.2538079,63.3333333 98.3333333,63.3333333 L98.3333333,63.3333333 L83.3333333,63.3333333 L83.3333333,60 L96.6666667,60 L96.6666667,8.33333333 L93.3333333,8.33333333 L93.3333333,55 C93.3333333,55.9204746 92.5871412,56.6666667 91.6666667,56.6666667 L91.6666667,56.6666667 L81.6666667,56.6666667 L81.6666667,53.3333333 L90,53.3333333 L90,3.33333333 L61.6666667,3.33333333 C58.9052429,3.33333333 56.6666667,5.57190958 56.6666667,8.33333333 L56.6666667,8.33333333 L56.6666667,30 L53.3333333,30 L53.3333333,8.33333333 C53.3333333,5.57190958 51.0947571,3.33333333 48.3333333,3.33333333 L48.3333333,3.33333333 L20,3.33333333 L20,31.6666667 L16.6666667,31.6666667 L16.6666667,8.33333333 L13.3333333,8.33333333 L13.3333333,35 L10,35 L10,6.66666667 C10,5.74619208 10.7461921,5 11.6666667,5 L11.6666667,5 L16.6666667,5 L16.6666667,1.66666667 C16.6666667,0.746192084 17.4128588,-5.96855898e-13 18.3333333,-5.96855898e-13 L18.3333333,-5.96855898e-13 Z M85,43.3333333 L85,46.6666667 L78.3333333,46.6666667 L78.3333333,43.3333333 L85,43.3333333 Z M85,35 L85,38.3333333 L70,38.3333333 L70,35 L85,35 Z M48.3333333,26.6666667 L48.3333333,30 L35,30 L35,26.6666667 L48.3333333,26.6666667 Z M31.6666667,26.6666667 L31.6666667,30 L25,30 L25,26.6666667 L31.6666667,26.6666667 Z M85,26.6666667 L85,30 L61.6666667,30 L61.6666667,26.6666667 L85,26.6666667 Z M75,18.3333333 L75,21.6666667 L61.6666667,21.6666667 L61.6666667,18.3333333 L75,18.3333333 Z M85,18.3333333 L85,21.6666667 L78.3333333,21.6666667 L78.3333333,18.3333333 L85,18.3333333 Z M41.6666667,18.3333333 L41.6666667,21.6666667 L25,21.6666667 L25,18.3333333 L41.6666667,18.3333333 Z M48.3333333,18.3333333 L48.3333333,21.6666667 L45,21.6666667 L45,18.3333333 L48.3333333,18.3333333 Z M85,10 L85,13.3333333 L61.6666667,13.3333333 L61.6666667,10 L85,10 Z M48.3333333,10 L48.3333333,13.3333333 L25,13.3333333 L25,10 L48.3333333,10 Z" id="Combined-Shape" fill="#000000" fill-rule="nonzero"></path>
    </g>
</svg>
