<?xml version="1.0" encoding="UTF-8"?>
<svg width="100px" height="100px" viewBox="0 0 100 100" version="1.1" xmlns="http://www.w3.org/2000/svg" xmlns:xlink="http://www.w3.org/1999/xlink">
    <title>icon_datenanalyse</title>
    <g id="icon_datenanalyse" stroke="none" stroke-width="1" fill="none" fill-rule="evenodd">
        <path d="M1,97.5 L1,4.5 C1,3.1193 2.1193,2 3.5,2 L90,2 C95.5228,2 100,6.4772 100,11.9995 C100,11.9995 99.9897,16.4401 99.9827,19 L100,19 C100,19 100,97.5 100,97.5 C100,98.8807 98.8807,100 97.5,100 L3.5,100 C2.1193,100 1,98.8807 1,97.5 Z M4,22.0001 L4,97 L97,97 L97,22.0032 C96.6649,22.0035 96.2773,22.0038 95.8402,22.004 C81.1748,22.013 10.6265,22.0012 4,22.0001 Z M31.2782,76.5 L23.5,68.7218 L15.7218,76.5 L23.5,84.2782 L31.2782,76.5 Z M43,83.5 L83,83.5 L83,80.5 L43,80.5 L43,83.5 Z M19.9645,76.5 L23.5,80.0355 L27.0355,76.5 L23.5,72.9645 L19.9645,76.5 Z M43,73.5 L83,73.5 L83,70.5 L43,70.5 L43,73.5 Z M23.5,50 C27.6394,50 31,46.6394 31,42.5 C31,38.3606 27.6394,35 23.5,35 C19.3606,35 16,38.3606 16,42.5 C16,46.6394 19.3606,50 23.5,50 Z M43,49.5 L83,49.5 L83,46.5 L43,46.5 L43,49.5 Z M23.5,47 C21.0164,47 19,44.9836 19,42.5 C19,40.0164 21.0164,38 23.5,38 C25.9836,38 28,40.0164 28,42.5 C28,44.9836 25.9836,47 23.5,47 Z M43,39.5 L83,39.5 L83,36.5 L43,36.5 L43,39.5 Z M97.0201,19 C97.0149,16.7001 97,12.0004 97,12 C97,8.134 93.866,5 90,5 L4,5 L4,19 L97.0201,19 Z M9,13.5 C9.8284,13.5 10.5,12.8284 10.5,12 C10.5,11.1716 9.8284,10.5 9,10.5 C8.1716,10.5 7.5,11.1716 7.5,12 C7.5,12.8284 8.1716,13.5 9,13.5 Z M15,13.5 C15.8284,13.5 16.5,12.8284 16.5,12 C16.5,11.1716 15.8284,10.5 15,10.5 C14.1716,10.5 13.5,11.1716 13.5,12 C13.5,12.8284 14.1716,13.5 15,13.5 Z M21,13.5 C21.8284,13.5 22.5,12.8284 22.5,12 C22.5,11.1716 21.8284,10.5 21,10.5 C20.1716,10.5 19.5,11.1716 19.5,12 C19.5,12.8284 20.1716,13.5 21,13.5 Z" id="Fill-1" fill="#000000"></path>
    </g>
</svg>