<?xml version="1.0" encoding="UTF-8" standalone="no"?>
<svg
   xmlns:dc="http://purl.org/dc/elements/1.1/"
   xmlns:cc="http://creativecommons.org/ns#"
   xmlns:rdf="http://www.w3.org/1999/02/22-rdf-syntax-ns#"
   xmlns:svg="http://www.w3.org/2000/svg"
   xmlns="http://www.w3.org/2000/svg"
   id="svg28"
   version="1.1"
   viewBox="0 0 100 100"
   height="100px"
   width="100px">
  <metadata
     id="metadata34">
    <rdf:RDF>
      <cc:Work
         rdf:about="">
        <dc:format>image/svg+xml</dc:format>
        <dc:type
           rdf:resource="http://purl.org/dc/dcmitype/StillImage" />
        <dc:title>icon_interface</dc:title>
      </cc:Work>
    </rdf:RDF>
  </metadata>
  <defs
     id="defs32" />
  <!-- Generator: Sketch 64 (93537) - https://sketch.com -->
  <title
     id="title2">icon_interface</title>
  <desc
     id="desc4">Created with Sketch.</desc>
  <g
     fill-rule="evenodd"
     fill="none"
     stroke-width="1"
     stroke="none"
     id="icon_interface">
    <path
       stroke-width="3"
       stroke="#0C0C0C"
       id="Rectangle"
       d="M3,2 L91.5,2 C95.0898509,2 98,4.91014913 98,8.5 L98,14 C98,14.5522847 97.5522847,15 97,15 L3,15 C2.44771525,15 2,14.5522847 2,14 L2,3 C2,2.44771525 2.44771525,2 3,2 Z" />
    <circle
       r="1.5"
       cy="8.5"
       cx="8.5"
       fill="#0C0C0C"
       id="Oval" />
    <circle
       r="1.5"
       cy="8.5"
       cx="14.5"
       fill="#0C0C0C"
       id="circle10" />
    <circle
       r="1.5"
       cy="8.5"
       cx="20.5"
       fill="#0C0C0C"
       id="circle12" />
    <path
       stroke-width="3"
       stroke="#0C0C0C"
       id="path14"
       d="M2,15 L98,15 L98,96 C98,96.5522847 97.5522847,97 97,97 L3,97 C2.44771525,97 2,96.5522847 2,96 L2,15 L2,15 Z" />
    <circle
       r="6"
       cy="38.5"
       cx="20.5"
       stroke-width="3"
       stroke="#0C0C0C"
       id="circle16" />
    <rect
       height="8"
       width="8"
       y="68.5"
       x="16.5"
       transform="translate(20.500000, 72.500000) rotate(-315.000000) translate(-20.500000, -72.500000) "
       stroke-width="3"
       stroke="#0C0C0C"
       id="rect18" />
    <line
       stroke-width="3"
       stroke="#0C0C0C"
       id="Path-7"
       y2="33.5"
       x2="82.5"
       y1="33.5"
       x1="42.5" />
    <line
       stroke-width="3"
       stroke="#0C0C0C"
       id="line21"
       y2="43.5"
       x2="82.5"
       y1="43.5"
       x1="42.5" />
    <line
       stroke-width="3"
       stroke="#0C0C0C"
       id="line23"
       y2="77.5"
       x2="82.5"
       y1="77.5"
       x1="42.5" />
    <line
       stroke-width="3"
       stroke="#0C0C0C"
       id="line25"
       y2="67.5"
       x2="82.5"
       y1="67.5"
       x1="42.5" />
  </g>
</svg>
