<?xml version="1.0" encoding="UTF-8" standalone="no"?>
<svg
   xmlns:dc="http://purl.org/dc/elements/1.1/"
   xmlns:cc="http://creativecommons.org/ns#"
   xmlns:rdf="http://www.w3.org/1999/02/22-rdf-syntax-ns#"
   xmlns:svg="http://www.w3.org/2000/svg"
   xmlns="http://www.w3.org/2000/svg"
   id="svg8"
   version="1.1"
   viewBox="0 0 100 100"
   height="100px"
   width="100px">
  <metadata
     id="metadata14">
    <rdf:RDF>
      <cc:Work
         rdf:about="">
        <dc:format>image/svg+xml</dc:format>
        <dc:type
           rdf:resource="http://purl.org/dc/dcmitype/StillImage" />
        <dc:title>icon_forschung</dc:title>
      </cc:Work>
    </rdf:RDF>
  </metadata>
  <defs
     id="defs12" />
  <title
     id="title2">icon_forschung</title>
  <g
     fill-rule="evenodd"
     fill="none"
     stroke-width="1"
     stroke="none"
     id="icon_forschung">
    <path
       fill="#0C0C0C"
       id="Fill-1"
       d="M80,87 C80,94.1797 74.1797,100 67,100 C67,100 56.3284,100 56.3284,100 C55.4002,100 54.5099,99.6313 53.8535,98.9749 L41.8787,87 L15.5,87 C7.4919,87 1,80.5081 1,72.5 L1,60.5 C1,45.8645 12.8645,34 27.5,34 C27.5,34 53.5,34 53.5,34 C68.1355,34 80,45.8645 80,60.5 L80,87 Z M75.0007,93 L52.1213,93 L55.9749,96.8535 C56.0686,96.9473 56.1958,97 56.3284,97 L67,97 C70.2717,97 73.1765,95.4288 75.0007,93 Z M76.5,90.1311 C76.8245,89.1461 77,88.0935 77,87 L46.1213,87 L49.5,90.3787 L49.5,90 L76.5,90 L76.5,90.1311 Z M42,37 L42,45.5 C42,51.8513 36.8513,57 30.5,57 C30.5,57 27.5,57 27.5,57 C22.8056,57 19,60.8056 19,65.5 L19,69.15 C22.4233,69.8448 25,72.8715 25,76.5 L22,76.5 C22,74.0147 19.9853,72 17.5,72 C15.0147,72 13,74.0147 13,76.5 L10,76.5 C10,72.8715 12.5767,69.8448 16,69.15 L16,65.5 C16,59.1487 21.1487,54 27.5,54 L30.5,54 C35.1944,54 39,50.1944 39,45.5 L39,37 L29,37 L29,45.5 L26,45.5 L26,37.0471 C14.2168,37.7889 4.7896,47.2157 4.0471,59 L8.5,59 L8.5,62 L4,62 L4,72.5 C4,78.8513 9.1487,84 15.5,84 L31.5718,84 C29.9767,82.3003 29,80.0142 29,77.5 C29,72.2533 33.2533,68 38.5,68 L59.15,68 C59.8448,64.5767 62.8715,62 66.5,62 L66.5,65 C64.0147,65 62,67.0147 62,69.5 C62,71.9853 64.0147,74 66.5,74 L66.5,77 C62.8715,77 59.8448,74.4233 59.15,71 L38.5,71 C34.9101,71 32,73.9101 32,77.5 C32,81.0899 34.9101,84 38.5,84 L47,84 L47,78.5 L50,78.5 L50,84 L77,84 L77,60.5 C77,59.3112 76.9117,58.1429 76.7411,57 L62.5,57 C58.0844,57 54.3724,53.9874 53.3072,49.9057 C49.732,49.3343 47,46.2362 47,42.5 L50,42.5 C50,44.9853 52.0147,47 54.5,47 C56.9853,47 59,44.9853 59,42.5 L62,42.5 C62,45.9848 59.6234,48.9145 56.4024,49.7566 C57.3195,52.234 59.7035,54 62.5,54 L76.0895,54 C75.0514,50.3846 73.1685,47.1264 70.6683,44.4531 L65.5607,49.5607 L63.4393,47.4393 L68.4833,42.3953 C64.4169,39.0258 59.1951,37 53.5,37 L42,37 Z M94,10 L94,55.5 C94,56.8807 92.8807,58 91.5,58 L83.5,58 L83.5,55 L91,55 L91,4 L62.5,4 C59.4624,4 57,6.4624 57,9.5 L57,31.5 L54,31.5 C54,31.5 54,9.5 54,9.5 C54,6.4624 51.5376,4 48.5,4 L20,4 L20,32.5 L17,32.5 L17,10 L14,10 L14,34.5 L11,34.5 C11,34.5 11,9.5 11,9.5 C11,8.1193 12.1193,7 13.5,7 L17,7 L17,3.5 C17,2.1193 18.1193,1 19.5,1 L48.5,1 C51.4035,1 53.967,2.4558 55.5,4.6768 C57.033,2.4558 59.5965,1 62.5,1 L91.5,1 C92.8807,1 94,2.1193 94,3.5 L94,7 L97.5,7 C98.8807,7 100,8.1193 100,9.5 C100,9.5 100,62.5 100,62.5 C100,63.8807 98.8807,65 97.5,65 L84.5,65 L84.5,62 L97,62 L97,10 L94,10 Z M78,39.5 L86,39.5 L86,36.5 L78,36.5 L78,39.5 Z M29.5,30.5 L49.5,30.5 L49.5,27.5 L29.5,27.5 L29.5,30.5 Z M66.5,30.5 L86.5,30.5 L86.5,27.5 L66.5,27.5 L66.5,30.5 Z M24.5,21.5 L49.5,21.5 L49.5,18.5 L24.5,18.5 L24.5,21.5 Z M61.5,21.5 L86.5,21.5 L86.5,18.5 L61.5,18.5 L61.5,21.5 Z M24.5,13.5 L37.5,13.5 L37.5,10.5 L24.5,10.5 L24.5,13.5 Z M61.5,13.5 L74.5,13.5 L74.5,10.5 L61.5,10.5 L61.5,13.5 Z" />
  </g>
</svg>
