<?xml version="1.0" encoding="UTF-8"?>
<svg width="100px" height="100px" viewBox="0 0 100 100" version="1.1" xmlns="http://www.w3.org/2000/svg" xmlns:xlink="http://www.w3.org/1999/xlink">
    <!-- Generator: Sketch 64 (93537) - https://sketch.com -->
    <title>icon_forschung</title>
    <desc>Created with Sketch.</desc>
    <g id="icon_forschung" stroke="none" stroke-width="1" fill="none" fill-rule="evenodd">
        <path d="M98.2759814,-1.05160325e-12 C98.9427821,-1.05160325e-12 99.5440376,0.399031615 99.7994222,1.01147542 C99.8772046,1.21156303 99.9147359,1.42488418 99.9098882,1.63934424 L99.9098882,1.63934424 L99.9247269,1.63934424 L99.9247269,14.7540978 C99.9247269,15.1880402 99.7515062,15.6042435 99.4432932,15.9114748 L99.4432932,15.9114748 L94.4970569,20.8295073 C94.1884196,21.1388932 93.7680105,21.3124744 93.3297451,21.3114745 L93.3297451,21.3114745 L88.3835087,21.3114745 L88.3835087,40.9836048 C88.3835087,41.8889896 87.6453403,42.622949 86.7347633,42.622949 L86.7347633,42.622949 L80.1397815,42.622949 L80.1397815,52.4590142 L90.0322542,52.4590142 C90.9428312,52.4590142 91.6809996,53.1929736 91.6809996,54.0983584 L91.6809996,54.0983584 L91.6809996,78.6885212 L98.2759814,78.6885212 C98.7144008,78.6802854 99.1371022,78.8508482 99.4457621,79.1605352 C99.7544219,79.4702223 99.9221344,79.8920383 99.9098882,80.3278654 L99.9098882,80.3278654 L99.9247269,80.3278654 L99.9247269,93.4426189 C99.9247269,93.8765614 99.7515062,94.2927647 99.4432932,94.5999959 L99.4432932,94.5999959 L94.4970569,99.5180285 C94.1884196,99.8274144 93.7680105,100 93.3297451,100 L93.3297451,100 L80.1397815,100 C79.2292045,100 78.4910361,99.2660363 78.4910361,98.3606515 L78.4910361,98.3606515 L78.4910361,85.245898 C78.4900352,84.8109365 78.6639703,84.3936298 78.9741185,84.0868816 L78.9741185,84.0868816 L83.9203548,79.1688491 C84.2294826,78.8613911 84.6487791,78.6886141 85.0860178,78.6885212 L85.0860178,78.6885212 L88.3835087,78.6885212 L88.3835087,55.7377025 L80.1397815,55.7377025 L80.1397815,60.6557351 C80.1396888,61.0896776 79.9665609,61.5058809 79.6583478,61.8131121 L79.6583478,61.8131121 L68.1171297,73.2885215 C67.8084924,73.5979073 67.3880834,73.7714885 66.9498179,73.7704886 L66.9498179,73.7704886 L63.652327,73.7704886 L63.652327,95.0819631 C63.652327,97.7981175 61.4378216,100 58.7060907,100 L58.7060907,100 L5.94623634,100 C3.21450544,100 1,97.7981175 1,95.0819631 L1,95.0819631 L1,6.55737682 C1,3.84122243 3.21450544,1.63934424 5.94623634,1.63934424 L5.94623634,1.63934424 L58.7060907,1.63934424 C61.4378216,1.63934424 63.652327,3.84122243 63.652327,6.55737682 L63.652327,6.55737682 L63.652327,29.5081955 L78.4910361,29.5081955 C79.401613,29.5081955 80.1397815,30.2421549 80.1397815,31.1475397 L80.1397815,31.1475397 L80.1397815,39.3442606 L85.0860178,39.3442606 L85.0860178,21.3114745 L80.1397815,21.3114745 C79.2292045,21.3114745 78.4910361,20.5775151 78.4910361,19.6721303 L78.4910361,19.6721303 L78.4910361,6.55737682 C78.4900352,6.12241532 78.6639703,5.70510864 78.9741185,5.39836047 L78.9741185,5.39836047 L83.9203548,0.4803279 C84.2294826,0.172869922 84.6487791,-1.05160325e-12 85.0860178,-1.05160325e-12 L85.0860178,-1.05160325e-12 Z M91.6809996,86.8852422 L81.788527,86.8852422 L81.788527,96.7213073 L91.6809996,96.7213073 L91.6809996,86.8852422 Z M58.7060907,4.91803263 L5.94623634,4.91803263 C5.03565938,4.91803263 4.2974909,5.65199202 4.2974909,6.55737682 L4.2974909,6.55737682 L4.2974909,95.0819631 C4.2974909,95.9873479 5.03565938,96.7213073 5.94623634,96.7213073 L5.94623634,96.7213073 L58.7060907,96.7213073 C59.6166676,96.7213073 60.3548361,95.9873479 60.3548361,95.0819631 L60.3548361,95.0819631 L60.3548361,73.7704886 L57.0573452,73.7704886 L57.0573452,88.5245864 C57.0573452,89.4299712 56.3191768,90.1639306 55.4085998,90.1639306 L55.4085998,90.1639306 L9.24372724,90.1639306 C8.33315027,90.1639306 7.59498179,89.4299712 7.59498179,88.5245864 L7.59498179,88.5245864 L7.59498179,9.8360652 C7.59498179,8.9306804 8.33315027,8.19672101 9.24372724,8.19672101 L9.24372724,8.19672101 L55.4085998,8.19672101 C56.3191768,8.19672101 57.0573452,8.9306804 57.0573452,9.8360652 L57.0573452,9.8360652 L57.0573452,29.5081955 L60.3548361,29.5081955 L60.3548361,6.55737682 C60.3548361,5.65199202 59.6166676,4.91803263 58.7060907,4.91803263 L58.7060907,4.91803263 Z M35.6236544,91.8032747 L35.6236544,95.0819631 L29.0286726,95.0819631 L29.0286726,91.8032747 L35.6236544,91.8032747 Z M96.627236,84.2852423 L94.9784905,85.9245865 L94.9784905,94.4032746 L96.627236,92.7639304 L96.627236,84.2852423 Z M53.7598543,11.4754094 L10.8924727,11.4754094 L10.8924727,86.8852422 L53.7598543,86.8852422 L53.7598543,73.7704886 L47.1648725,73.7704886 L47.1648725,81.9672096 C47.1648725,82.8725944 46.4267041,83.6065538 45.5161271,83.6065538 L45.5161271,83.6065538 L33.974909,83.6065538 C33.064332,83.6065538 32.3261635,82.8725944 32.3261635,81.9672096 L32.3261635,81.9672096 L32.3261635,76.4229475 L28.61154,74.5688493 C27.3526214,78.5608906 23.272059,80.9695795 19.1444866,80.157095 C15.0169143,79.3446105 12.167147,75.5717336 12.5329229,71.4038831 C12.8986987,67.2360327 16.3626156,64.0109517 20.5693362,63.9215779 C24.7760568,63.832204 28.375362,66.9072233 28.9198554,71.0557347 L28.9198554,71.0557347 L34.7118982,73.9344231 C35.270908,74.220365 35.6239456,74.7884788 35.6236544,75.4098328 L35.6236544,75.4098328 L35.6236544,80.3278654 L43.8673816,80.3278654 L43.8673816,73.7704886 L37.2723999,73.7704886 C36.3618229,73.7704886 35.6236544,73.0365293 35.6236544,72.1311445 L35.6236544,72.1311445 L35.6236544,59.0163909 L24.0824363,59.0163909 C23.1718593,59.0163909 22.4336908,58.2824315 22.4336908,57.3770467 L22.4336908,57.3770467 L22.4336908,52.2950797 C18.2871567,51.4534983 15.4550962,47.6267214 15.880454,43.4401223 C16.3058118,39.2535231 19.8503976,36.0672452 24.0824363,36.0672452 C28.314475,36.0672452 31.8590607,39.2535231 32.2844185,43.4401223 C32.7097764,47.6267214 29.8777159,51.4534983 25.7311817,52.2950797 L25.7311817,52.2950797 L25.7311817,55.7377025 L35.6236544,55.7377025 L35.6236544,42.622949 C35.6220176,42.4130911 35.6612076,42.2048982 35.7390666,42.0098343 C35.8383386,41.8390857 35.9484792,41.6748168 36.0688157,41.518031 C36.1240086,41.4653726 36.182372,41.4161013 36.2435827,41.3704901 C36.3367575,41.2921472 36.4385241,41.2245063 36.5469519,41.1688507 C36.6211883,41.1336615 36.6984365,41.1051329 36.7777762,41.0836048 C36.8401502,41.0547452 36.9046363,41.0306323 36.9706794,41.0114737 C38.2919835,40.0339221 39.5105516,38.9261083 40.6078119,37.7049164 L40.6078119,37.7049164 L37.2723999,37.7049164 C36.3618229,37.7049164 35.6236544,36.9709571 35.6236544,36.0655723 L35.6236544,36.0655723 L35.6236544,25.6999989 L30.3130453,23.5885236 C29.1348114,27.6208664 25.0863166,30.119261 20.9292242,29.3794383 C16.7721319,28.6396156 13.8465501,24.9000698 14.148152,20.711716 C14.4497539,16.5233622 17.881313,13.2363862 22.1020061,13.0929846 C26.3226991,12.949583 29.9719152,15.9959837 30.5603571,20.1540975 L30.5603571,20.1540975 L37.8857332,23.0672122 C38.5115908,23.3166014 38.9216626,23.9197613 38.9211453,24.5901629 L38.9211453,24.5901629 L38.9211453,34.4262281 L43.6975609,34.4262281 C44.991826,33.0131134 46.3240124,31.5163921 47.5622202,30.081966 C47.8751117,29.7182407 48.3322463,29.5086428 48.813618,29.5081955 L48.813618,29.5081955 L53.7598543,29.5081955 L53.7598543,11.4754094 Z M94.2959099,81.9672096 L85.7685985,81.9672096 L84.119853,83.6065538 L92.6471645,83.6065538 L94.2959099,81.9672096 Z M20.7849454,67.2131119 C18.0532145,67.2131119 15.838709,69.4149901 15.838709,72.1311445 C15.838709,74.8472988 18.0532145,77.049177 20.7849454,77.049177 C23.5166763,77.049177 25.7311817,74.8472988 25.7311817,72.1311445 C25.7311817,69.4149901 23.5166763,67.2131119 20.7849454,67.2131119 Z M65.3010725,44.2622932 L38.9211453,44.2622932 L38.9211453,70.4918003 L65.3010725,70.4918003 L65.3010725,44.2622932 Z M76.8422906,35.1049166 L68.5985634,43.3016375 L68.5985634,68.1737676 L76.8422906,59.9770466 L76.8422906,35.1049166 Z M52.1111089,50.81967 C54.1997156,50.8282788 56.0577858,52.1404062 56.7539761,54.0983584 L56.7539761,54.0983584 L58.7060907,54.0983584 C61.4378216,54.0983584 63.652327,56.3002365 63.652327,59.0163909 C63.652327,61.7325453 61.4378216,63.9344235 58.7060907,63.9344235 L58.7060907,63.9344235 L52.1111089,63.9344235 C50.0225022,63.9258147 48.164432,62.6136873 47.4682417,60.6557351 L47.4682417,60.6557351 L45.5161271,60.6557351 C42.7843962,60.6557351 40.5698908,58.4538569 40.5698908,55.7377025 C40.5698908,53.0215482 42.7843962,50.81967 45.5161271,50.81967 L45.5161271,50.81967 Z M58.7060907,57.3770467 L56.7539761,57.3770467 C56.0577858,59.3349989 54.1997156,60.6471263 52.1111089,60.6557351 L52.1111089,60.6557351 L58.7060907,60.6557351 C59.6166676,60.6557351 60.3548361,59.9217757 60.3548361,59.0163909 C60.3548361,58.1110061 59.6166676,57.3770467 58.7060907,57.3770467 L58.7060907,57.3770467 Z M52.1111089,54.0983584 L45.5161271,54.0983584 C44.6055501,54.0983584 43.8673816,54.8323178 43.8673816,55.7377025 C43.8673816,56.6430873 44.6055501,57.3770467 45.5161271,57.3770467 L45.5161271,57.3770467 L47.4682417,57.3770467 C48.164432,55.4190946 50.0225022,54.1069672 52.1111089,54.0983584 L52.1111089,54.0983584 Z M24.0824363,39.3442606 C21.3507054,39.3442606 19.1361999,41.5461388 19.1361999,44.2622932 C19.1361999,46.9784476 21.3507054,49.1803258 24.0824363,49.1803258 C26.8141672,49.1803258 29.0286726,46.9784476 29.0286726,44.2622932 C29.0286726,41.5461388 26.8141672,39.3442606 24.0824363,39.3442606 Z M74.5109645,32.7868839 L49.5703922,32.7868839 C46.1756253,36.7049165 43.748672,39.2852442 41.9944068,40.9836048 L41.9944068,40.9836048 L66.2672373,40.9836048 L74.5109645,32.7868839 Z M22.4336908,16.393442 C19.7019599,16.393442 17.4874545,18.5953201 17.4874545,21.3114745 C17.4874545,24.0276289 19.7019599,26.2295071 22.4336908,26.2295071 C25.1654217,26.2295071 27.3799272,24.0276289 27.3799272,21.3114745 C27.3799272,18.5953201 25.1654217,16.393442 22.4336908,16.393442 Z M91.6809996,8.19672101 L81.788527,8.19672101 L81.788527,18.0327862 L91.6809996,18.0327862 L91.6809996,8.19672101 Z M96.627236,5.59672112 L94.9784905,7.23606531 L94.9784905,15.7147535 L96.627236,14.0754093 L96.627236,5.59672112 Z M94.2959099,3.27868843 L85.7685985,3.27868843 L84.119853,4.91803263 L92.6471645,4.91803263 L94.2959099,3.27868843 Z" id="Combined-Shape" fill="#000000" fill-rule="nonzero"></path>
    </g>
</svg>
