<?xml version="1.0" encoding="UTF-8"?>
<svg width="100px" height="100px" viewBox="0 0 100 100" version="1.1" xmlns="http://www.w3.org/2000/svg" xmlns:xlink="http://www.w3.org/1999/xlink">
    <title>icon_interface</title>
    <g id="icon_interface" stroke="none" stroke-width="1" fill="none" fill-rule="evenodd">
        <path d="M61.563,63.901 C51.463,62.897 43.563,54.364 43.563,44 C43.563,32.962 52.525,24 63.563,24 C74.602,24 83.563,32.962 83.563,44 C83.563,54.703 75.138,63.453 64.563,63.975 L64.563,71 L67.063,71 C68.444,71 69.563,72.119 69.563,73.5 C69.563,73.5 69.563,97.5 69.563,97.5 C69.563,98.881 68.444,100 67.063,100 C67.063,100 59.063,100 59.063,100 C57.683,100 56.563,98.881 56.563,97.5 L56.563,73.5 C56.563,72.119 57.683,71 59.063,71 L61.563,71 L61.563,63.901 Z M59.563,97 L66.563,97 L66.563,74 L59.563,74 L59.563,97 Z M32.073,72.369 L46.003,58.439 L48.124,60.561 L33.124,75.561 C32.841,75.843 32.457,76.002 32.057,76 C31.657,75.998 31.274,75.837 30.993,75.551 L19.131,63.479 L4.127,78.558 L2,76.442 L18.074,60.288 C18.357,60.004 18.741,59.845 19.142,59.846 C19.543,59.847 19.926,60.009 20.207,60.295 L32.073,72.369 Z M88.563,65.879 L96.003,58.439 L98.124,60.561 L88.563,70.121 L79.003,60.561 L81.124,58.439 L88.563,65.879 Z M63.563,61 C54.181,61 46.563,53.382 46.563,44 C46.563,34.617 54.181,27 63.563,27 C72.946,27 80.563,34.617 80.563,44 C80.563,53.382 72.946,61 63.563,61 Z M57.305,47.137 C56.831,46.193 56.563,45.128 56.563,44 C56.563,40.136 59.7,37 63.563,37 C67.427,37 70.563,40.136 70.563,44 C70.563,45.128 70.296,46.193 69.822,47.137 L75.124,52.439 L73.003,54.561 L67.92,49.478 C66.724,50.43 65.21,51 63.563,51 C61.917,51 60.403,50.43 59.207,49.478 L54.124,54.561 L52.003,52.439 L57.305,47.137 Z M63.563,48 C61.356,48 59.563,46.208 59.563,44 C59.563,41.792 61.356,40 63.563,40 C65.771,40 67.563,41.792 67.563,44 C67.563,46.208 65.771,48 63.563,48 Z" id="Fill-7" fill="#0C0C0C"></path>
    </g>
</svg>