<?xml version="1.0" encoding="UTF-8"?>
<svg width="100px" height="100px" viewBox="0 0 100 100" version="1.1" xmlns="http://www.w3.org/2000/svg" xmlns:xlink="http://www.w3.org/1999/xlink">
    <!-- Generator: Sketch 64 (93537) - https://sketch.com -->
    <title>icon_anomalie</title>
    <desc>Created with Sketch.</desc>
    <g id="icon_anomalie" stroke="none" stroke-width="1" fill="none" fill-rule="evenodd">
        <path d="M71.4285714,77.4285714 C75.7324476,77.4285714 79.2214286,80.9175524 79.2214286,85.2214286 C79.2214286,89.5253047 75.7324476,93.0142857 71.4285714,93.0142857 C67.1246953,93.0142857 63.6357143,89.5253047 63.6357143,85.2214286 C63.6357143,80.9175524 67.1246953,77.4285714 71.4285714,77.4285714 Z M50,63.1428571 C54.3038762,63.1428571 57.7928571,66.6318381 57.7928571,70.9357143 C57.7928571,75.2395904 54.3038762,78.7285714 50,78.7285714 C45.6961238,78.7285714 42.2071429,75.2395904 42.2071429,70.9357143 C42.2071429,66.6318381 45.6961238,63.1428571 50,63.1428571 Z M67.5321429,56 C71.836019,56 75.325,59.488981 75.325,63.7928571 C75.325,68.0967333 71.836019,71.5857143 67.5321429,71.5857143 C63.2282667,71.5857143 59.7392857,68.0967333 59.7392857,63.7928571 C59.7392857,59.488981 63.2282667,56 67.5321429,56 Z M28.5714286,45.6107143 C32.8748116,45.6107143 36.3633929,49.0992955 36.3633929,53.4026786 C36.3633929,57.7060616 32.8748116,61.1946429 28.5714286,61.1946429 C24.2680455,61.1946429 20.7794643,57.7060616 20.7794643,53.4026786 C20.7794643,49.0992955 24.2680455,45.6107143 28.5714286,45.6107143 Z M48.0517857,41.0651786 C52.3551688,41.0651786 55.84375,44.5537598 55.84375,48.8571429 C55.84375,53.1605259 52.3551688,56.6491071 48.0517857,56.6491071 C43.7484027,56.6491071 40.2598214,53.1605259 40.2598214,48.8571429 C40.2598214,44.5537598 43.7484027,41.0651786 48.0517857,41.0651786 Z M25.9732143,24.8321429 C30.2765973,24.8321429 33.7651786,28.3207241 33.7651786,32.6241071 C33.7651786,36.9274902 30.2765973,40.4160714 25.9732143,40.4160714 C21.6698312,40.4160714 18.18125,36.9274902 18.18125,32.6241071 C18.18125,28.3207241 21.6698312,24.8321429 25.9732143,24.8321429 Z M48.7008929,17.6892857 C53.0042759,17.6892857 56.4928571,21.177867 56.4928571,25.48125 C56.4928571,29.784633 53.0042759,33.2732143 48.7008929,33.2732143 C44.3975098,33.2732143 40.9089286,29.784633 40.9089286,25.48125 C40.9089286,21.177867 44.3975098,17.6892857 48.7008929,17.6892857 Z M7.79196429,9.24732143 C12.0953473,9.24732143 15.5839286,12.7359027 15.5839286,17.0392857 C15.5839286,21.3426688 12.0953473,24.83125 7.79196429,24.83125 C3.48858124,24.83125 7.90478794e-14,21.3426688 7.90478794e-14,17.0392857 C7.90478794e-14,12.7359027 3.48858124,9.24732143 7.79196429,9.24732143 Z M90.9089286,6 C95.9205357,6 100,10.0785714 100,15.0910714 C100,20.1035714 95.9205357,24.1821429 90.9089286,24.1821429 C85.8964286,24.1821429 81.8178571,20.1035714 81.8178571,15.0910714 C81.8178571,10.0785714 85.8955357,6 90.9089286,6 Z M90.9089286,8.59732143 C87.3294643,8.59732143 84.4160714,11.5107143 84.4160714,15.0910714 C84.4160714,18.6714286 87.3303571,21.5848214 90.9089286,21.5848214 C94.4901786,21.5848214 97.4017857,18.6714286 97.4017857,15.0910714 C97.4017857,11.5107143 94.4901786,8.59732143 90.9089286,8.59732143 Z" id="Combined-Shape" fill="#000000" fill-rule="nonzero"></path>
    </g>
</svg>
