<?xml version="1.0" encoding="UTF-8" standalone="no"?>
<svg
   xmlns:dc="http://purl.org/dc/elements/1.1/"
   xmlns:cc="http://creativecommons.org/ns#"
   xmlns:rdf="http://www.w3.org/1999/02/22-rdf-syntax-ns#"
   xmlns:svg="http://www.w3.org/2000/svg"
   xmlns="http://www.w3.org/2000/svg"
   id="svg15"
   version="1.1"
   viewBox="0 0 100 100"
   height="100px"
   width="100px">
  <metadata
     id="metadata21">
    <rdf:RDF>
      <cc:Work
         rdf:about="">
        <dc:format>image/svg+xml</dc:format>
        <dc:type
           rdf:resource="http://purl.org/dc/dcmitype/StillImage" />
        <dc:title>icon_beratung</dc:title>
      </cc:Work>
    </rdf:RDF>
  </metadata>
  <defs
     id="defs19" />
  <!-- Generator: Sketch 64 (93537) - https://sketch.com -->
  <title
     id="title2">icon_beratung</title>
  <desc
     id="desc4">Created with Sketch.</desc>
  <g
     fill-rule="evenodd"
     fill="none"
     stroke-width="1"
     stroke="none"
     id="icon_beratung">
    <path
       stroke-width="3"
       stroke="#0C0C0C"
       id="Path-11"
       d="M67,100 C66.1190102,90.5308047 66.1190102,83.5308047 67,79 C67.8809898,74.4691953 70.2143231,69.4691953 74,64" />
    <path
       stroke-width="3"
       stroke="#0C0C0C"
       id="Path-12"
       d="M74,14 C66.6666667,6 58,2 48,2 C33,2 24,11 22,14 C20,17 15,26 15,34 L4.17082039,55.6583592 C3.42985265,57.1402947 4.03052569,58.9423138 5.51246118,59.6832816 C5.92902748,59.8915647 6.38836668,60 6.85410197,60 L15,60 L15,60 L15,65 C15,72.7319865 21.2680135,79 29,79 L29,79 L29,79 L29,100" />
    <path
       stroke-width="3"
       stroke="#0C0C0C"
       id="Rectangle"
       d="M44,20 L94,20 C95.6568542,20 97,21.3431458 97,23 L97,55 C97,56.6568542 95.6568542,58 94,58 L59,58 L59,58 L50,66 L50,58 L44,58 C42.3431458,58 41,56.6568542 41,55 L41,23 C41,21.3431458 42.3431458,20 44,20 Z" />
    <line
       stroke-width="3"
       stroke="#0C0C0C"
       id="Path-14"
       y2="39"
       x2="90"
       y1="39"
       x1="50" />
    <line
       stroke-width="3"
       stroke="#0C0C0C"
       id="Path-15"
       y2="48"
       x2="90"
       y1="48"
       x1="58" />
    <line
       stroke-width="3"
       stroke="#0C0C0C"
       id="Path-13"
       y2="30"
       x2="71"
       y1="30"
       x1="50" />
  </g>
</svg>
