<?xml version="1.0" encoding="UTF-8" standalone="no"?>
<svg
   xmlns:dc="http://purl.org/dc/elements/1.1/"
   xmlns:cc="http://creativecommons.org/ns#"
   xmlns:rdf="http://www.w3.org/1999/02/22-rdf-syntax-ns#"
   xmlns:svg="http://www.w3.org/2000/svg"
   xmlns="http://www.w3.org/2000/svg"
   id="svg8"
   version="1.1"
   viewBox="0 0 100 100"
   height="100px"
   width="100px">
  <metadata
     id="metadata14">
    <rdf:RDF>
      <cc:Work
         rdf:about="">
        <dc:format>image/svg+xml</dc:format>
        <dc:type
           rdf:resource="http://purl.org/dc/dcmitype/StillImage" />
        <dc:title>icon_anwendung</dc:title>
      </cc:Work>
    </rdf:RDF>
  </metadata>
  <defs
     id="defs12" />
  <title
     id="title2">icon_anwendung</title>
  <g
     fill-rule="evenodd"
     fill="none"
     stroke-width="1"
     stroke="none"
     id="icon_anwendung">
    <path
       fill="#0C0C0C"
       id="Fill-1"
       d="M63,72 L63,94.5 C63,97.5376 60.5376,100 57.5,100 C57.5,100 6.5,100 6.5,100 C3.4624,100 1,97.5376 1,94.5 C1,94.5 1,6.5 1,6.5 C1,3.4624 3.4624,1 6.5,1 C6.5,1 57.5,1 57.5,1 C60.5376,1 63,3.4624 63,6.5 L63,33 L66.8787,33 L75.5503,24.3284 L72.7218,21.5 L80.5,13.7218 L88.2782,21.5 L80.5,29.2782 L77.6716,26.4497 L68.1213,36 L63,36 L63,54 L84.2218,54 L90.5,47.7218 L98.2782,55.5 L90.5,63.2782 L84.2218,57 L63,57 L63,69 L66.1213,69 L78.6716,81.5503 L81.5,78.7218 L89.2782,86.5 L81.5,94.2782 L73.7218,86.5 L76.5503,83.6716 L64.8787,72 L63,72 Z M60,33 L60,6.5 C60,5.1193 58.8807,4 57.5,4 L6.5,4 C5.1193,4 4,5.1193 4,6.5 L4,94.5 C4,95.8807 5.1193,97 6.5,97 L57.5,97 C58.8807,97 60,95.8807 60,94.5 L60,72 L56.5,72 L56.5,82.5 C56.5,84.9853 54.4853,87 52,87 C52,87 12,87 12,87 C9.5147,87 7.5,84.9853 7.5,82.5 C7.5,82.5 7.5,14.5 7.5,14.5 C7.5,12.0147 9.5147,10 12,10 L52,10 C54.4853,10 56.5,12.0147 56.5,14.5 L56.5,33 L60,33 Z M32,93.5 C32.8284,93.5 33.5,92.8284 33.5,92 C33.5,91.1716 32.8284,90.5 32,90.5 C31.1716,90.5 30.5,91.1716 30.5,92 C30.5,92.8284 31.1716,93.5 32,93.5 Z M77.9645,86.5 L81.5,90.0355 L85.0355,86.5 L81.5,82.9645 L77.9645,86.5 Z M53.5,33 L53.5,14.5 C53.5,13.6716 52.8284,13 52,13 L12,13 C11.1716,13 10.5,13.6716 10.5,14.5 L10.5,82.5 C10.5,83.3284 11.1716,84 12,84 L52,84 C52.8284,84 53.5,83.3284 53.5,82.5 L53.5,72 L29.8497,72 C29.1539,75.4217 26.1257,78 22.5,78 C18.3606,78 15,74.6394 15,70.5 C15,66.3606 18.3606,63 22.5,63 C26.1257,63 29.1539,65.5783 29.8497,69 L53.5,69 L53.5,57 L48.8787,57 L44.8787,53 L39.8497,53 C39.1539,56.4217 36.1257,59 32.5,59 C28.3606,59 25,55.6394 25,51.5 C25,47.3606 28.3606,44 32.5,44 C36.1257,44 39.1539,46.5783 39.8497,50 L46.1213,50 L50.1213,54 L53.5,54 L53.5,36 L39.8787,36 L35.0081,31.1295 C33.9612,31.6851 32.7671,32 31.5,32 C27.3606,32 24,28.6394 24,24.5 C24,20.3606 27.3606,17 31.5,17 C35.6394,17 39,20.3606 39,24.5 C39,26.2845 38.3754,27.9242 37.3334,29.2121 L41.1213,33 L53.5,33 Z M22.5,75 C20.0164,75 18,72.9836 18,70.5 C18,68.0164 20.0164,66 22.5,66 C24.9836,66 27,68.0164 27,70.5 C27,72.9836 24.9836,75 22.5,75 Z M56.5,69 L60,69 L60,57 L56.5,57 L56.5,69 Z M86.9645,55.5 L90.5,59.0355 L94.0355,55.5 L90.5,51.9645 L86.9645,55.5 Z M32.5,56 C30.0164,56 28,53.9836 28,51.5 C28,49.0164 30.0164,47 32.5,47 C34.9836,47 37,49.0164 37,51.5 C37,53.9836 34.9836,56 32.5,56 Z M56.5,54 L60,54 L60,36 L56.5,36 L56.5,54 Z M31.5,29 C29.0164,29 27,26.9836 27,24.5 C27,22.0164 29.0164,20 31.5,20 C33.9836,20 36,22.0164 36,24.5 C36,26.9836 33.9836,29 31.5,29 Z M76.9645,21.5 L80.5,25.0355 L84.0355,21.5 L80.5,17.9645 L76.9645,21.5 Z" />
  </g>
</svg>
