<?xml version="1.0" encoding="UTF-8"?>
<svg width="100px" height="100px" viewBox="0 0 100 100" version="1.1" xmlns="http://www.w3.org/2000/svg" xmlns:xlink="http://www.w3.org/1999/xlink">
    <!-- Generator: Sketch 64 (93537) - https://sketch.com -->
    <title>icon_klassifizierung</title>
    <desc>Created with Sketch.</desc>
    <g id="icon_klassifizierung" stroke="none" stroke-width="1" fill="none" fill-rule="evenodd">
        <path d="M2.02838338,9 C2.59605101,9 3.05676676,9.46071575 3.05676676,10.0283834 L3.05676676,10.0283834 L3.05676676,87.6631016 C8.43726861,84.4483752 13.9905389,81.4331551 19.8502674,78.2698478 C44.9572193,64.7157548 73.4125874,49.3558206 94.8379268,10.9436446 C95.1155903,10.445907 95.7408474,10.2690251 96.2365282,10.5466886 C96.732209,10.8222954 96.9111477,11.4496092 96.6334842,11.94529 C74.9181407,50.8819416 46.1809955,66.3961333 20.8272316,80.0839161 C15.5927602,82.9078568 10.6051008,85.6145619 5.77786919,88.4426162 L5.77786919,88.4426162 L99.9757302,88.4426162 C100.543398,88.4426162 101,88.903332 101,89.4709996 C101,90.0386672 100.539284,90.499383 99.9716166,90.499383 L99.9716166,90.499383 L2.02632661,90.499383 C1.86178527,90.499383 1.7116413,90.4500206 1.57383793,90.3821473 C1.53475936,90.3636364 1.50596462,90.3368984 1.46894282,90.3122172 C1.36816125,90.2443439 1.28177705,90.16413 1.20979021,90.0654052 C1.19333608,90.0427807 1.16454134,90.0345537 1.15014397,90.0078157 C1.13780337,89.9851913 1.13574661,89.9625668 1.12546277,89.9378856 C1.09461127,89.8761826 1.0740436,89.8144796 1.0555327,89.7445496 C1.0370218,89.6746195 1.0185109,89.6108597 1.01439737,89.5429864 C1.0123406,89.5162485 1,89.4977376 1,89.4709996 L1,89.4709996 L1,10.0283834 C1,9.46071575 1.46071575,9 2.02838338,9 Z M68.5730152,72.1633073 C68.9740847,71.7622378 69.6260798,71.7622378 70.0271493,72.1633073 L70.0271493,72.1633073 L73.2994652,75.4356232 C73.7005348,75.8366927 73.7005348,76.4886878 73.2994652,76.8897573 L73.2994652,76.8897573 L70.0271493,80.1620732 C69.8255862,80.3615796 69.56232,80.4623612 69.2990539,80.4623612 C69.0357877,80.4623612 68.7725216,80.3636364 68.5709585,80.1620732 L68.5709585,80.1620732 L65.3006993,76.8897573 C64.8996298,76.4886878 64.8996298,75.8366927 65.3006993,75.4356232 L65.3006993,75.4356232 Z M53.0649938,70.9827232 C53.4660633,70.5816536 54.1180584,70.5816536 54.5211847,70.9827232 L54.5211847,70.9827232 L57.7935006,74.2529823 C57.9847799,74.4463184 58.0937886,74.7075278 58.0937886,74.9810777 C58.0937886,75.2546277 57.9868367,75.5158371 57.7935006,75.7091732 L57.7935006,75.7091732 L54.5211847,78.9835459 C54.3278486,79.1748252 54.0666392,79.2838338 53.7930893,79.2838338 C53.5195393,79.2838338 53.2583299,79.1768819 53.0649938,78.9835459 L53.0649938,78.9835459 L49.7926779,75.7091732 C49.6013986,75.5158371 49.49239,75.2546277 49.49239,74.9810777 C49.49239,74.7075278 49.5993418,74.4463184 49.7926779,74.2529823 L49.7926779,74.2529823 Z M69.2990539,74.3455368 L67.4808721,76.1637186 L69.2990539,77.9819005 L71.1172357,76.1637186 L69.2990539,74.3455368 Z M53.7910325,73.1628959 L51.9728507,74.979021 L53.7910325,76.7992596 L55.6092143,74.979021 L53.7910325,73.1628959 Z M77.8881119,64.4360346 C78.2891814,64.034965 78.9411765,64.034965 79.342246,64.4360346 L79.342246,64.4360346 L82.6145619,67.7083505 C83.0156314,68.10942 83.0156314,68.7614151 82.6145619,69.1624846 L82.6145619,69.1624846 L79.342246,72.4348005 C79.1406828,72.6343069 78.8774167,72.7350884 78.6141506,72.7350884 C78.3508844,72.7350884 78.0876183,72.6363636 77.8860551,72.4348005 L77.8860551,72.4348005 L74.615796,69.1624846 C74.2147265,68.7614151 74.2147265,68.10942 74.615796,67.7083505 L74.615796,67.7083505 Z M63.178116,63.2883587 C63.5791855,62.8872892 64.2311806,62.8872892 64.6322501,63.2883587 L64.6322501,63.2883587 L67.904566,66.5606746 C68.3056355,66.9617441 68.3056355,67.6137392 67.9066228,68.0148087 L67.9066228,68.0148087 L64.6343069,71.2871246 C64.4327437,71.486631 64.1694776,71.5874126 63.9062114,71.5874126 C63.6429453,71.5874126 63.3796791,71.4886878 63.178116,71.2871246 L63.178116,71.2871246 L59.9058001,68.0148087 C59.5047306,67.6137392 59.5047306,66.9617441 59.9058001,66.5606746 L59.9058001,66.5606746 Z M78.6141506,66.6182641 L76.7959687,68.4364459 L78.6141506,70.2546277 L80.4323324,68.4364459 L78.6141506,66.6182641 Z M63.9041547,65.4685315 L62.0859729,67.2867133 L63.9041547,69.1048951 L65.7223365,67.2867133 L63.9041547,65.4685315 Z M27.2134924,62.0131633 C28.9494035,62.0131633 30.3644591,63.4261621 30.3644591,65.1661868 C30.3644591,66.9020979 28.9514603,68.3150967 27.2134924,68.3150967 C25.4755245,68.3150967 24.0625257,66.9041547 24.0645802,65.1661868 C24.0645802,63.4282188 25.4775812,62.0131633 27.2134924,62.0131633 Z M27.2134924,64.0699301 C26.6108597,64.0699301 26.1192925,64.5614973 26.1213428,65.1661868 C26.1213428,65.7688194 26.6108597,66.2583299 27.2134924,66.2583299 C27.8161251,66.2583299 28.3076923,65.7688194 28.3076923,65.1661868 C28.3076923,64.5614973 27.8161251,64.0699301 27.2134924,64.0699301 Z M88.8445084,53.6750309 C89.245578,53.2739613 89.897573,53.2739613 90.2986425,53.6750309 L90.2986425,53.6750309 L93.5709585,56.9473468 C93.972028,57.3484163 93.972028,58.0004114 93.5709585,58.4014809 L93.5709585,58.4014809 L90.2986425,61.6737968 C90.0970794,61.8733032 89.8338132,61.9740847 89.5705471,61.9740847 C89.307281,61.9740847 89.0440148,61.8753599 88.8424517,61.6737968 L88.8424517,61.6737968 L85.5721925,58.4014809 C85.171123,58.0004114 85.171123,57.3484163 85.5721925,56.9473468 L85.5721925,56.9473468 Z M75.9876594,53.6709173 C76.3722748,53.2842452 77.0551213,53.2842452 77.4417935,53.6709173 L77.4417935,53.6709173 L80.7141094,56.94529 C80.9053887,57.1386261 81.0143974,57.3998355 81.0143974,57.6733854 C81.0143974,57.9469354 80.9074455,58.2081448 80.7141094,58.4014809 L80.7141094,58.4014809 L77.4417935,61.67174 C77.2402304,61.8712464 76.9769642,61.972028 76.7136981,61.972028 C76.4504319,61.972028 76.1871658,61.8733032 75.9876594,61.6737968 L75.9876594,61.6737968 L72.7153435,58.4035376 C72.5240642,58.2102016 72.4150555,57.9489922 72.4150555,57.6754422 C72.4150555,57.4018922 72.5220074,57.1406828 72.7153435,56.9473468 L72.7153435,56.9473468 Z M89.5705471,55.8572604 L87.7523653,57.6754422 L89.5705471,59.493624 L91.3887289,57.6754422 L89.5705471,55.8572604 Z M76.7136981,55.8552036 L74.8955162,57.6754422 L76.7136981,59.4915673 L78.5318799,57.6754422 L76.7136981,55.8552036 Z M41.2365282,52.3998355 C42.9724393,52.3998355 44.3874949,53.8128342 44.3874949,55.5528589 C44.3874949,57.2887701 42.9744961,58.7017688 41.2365282,58.7017688 C39.500617,58.7017688 38.0876183,57.2908268 38.0876183,55.5528589 C38.0876183,53.814891 39.500617,52.3998355 41.2365282,52.3998355 Z M41.2365282,54.4566022 C40.6338955,54.4566022 40.144385,54.9481695 40.144385,55.5528589 C40.144385,56.1554916 40.6338955,56.6450021 41.2365282,56.6450021 C41.8391608,56.6450021 42.3307281,56.1554916 42.3307281,55.5528589 C42.3307281,54.9481695 41.8391608,54.4566022 41.2365282,54.4566022 Z M27.2134924,50.2751954 C28.9494035,50.2751954 30.3644591,51.6881942 30.3644591,53.4282188 C30.3644591,55.16413 28.9514603,56.5771288 27.2134924,56.5771288 C25.4775812,56.5771288 24.0645825,55.1661868 24.0645825,53.4282188 C24.0645825,51.6902509 25.4775812,50.2751954 27.2134924,50.2751954 Z M27.2134924,52.3319622 C26.6108597,52.3319622 26.1213492,52.8235294 26.1213492,53.4282188 C26.1213492,54.0308515 26.6108597,54.520362 27.2134924,54.520362 C27.8161251,54.520362 28.3076923,54.0308515 28.3076923,53.4282188 C28.3076923,52.8235294 27.8161251,52.3319622 27.2134924,52.3319622 Z M36.9913616,43.9321267 C38.7272727,43.9321267 40.1423283,45.3471822 40.1423283,47.0830934 C40.1423283,48.8190045 38.7293295,50.2340601 36.9913616,50.2340601 C35.2554504,50.2340601 33.8424517,48.8190045 33.8424517,47.0830934 C33.8424517,45.3471822 35.2554504,43.9321267 36.9913616,43.9321267 Z M84.430687,41.8671329 C84.8317565,41.4660633 85.4837515,41.4660633 85.8848211,41.8671329 L85.8848211,41.8671329 L89.157137,45.1394488 C89.5582065,45.5405183 89.5582065,46.1925134 89.157137,46.5935829 L89.157137,46.5935829 L85.8848211,49.8658988 C85.6832579,50.0654052 85.4199918,50.1661868 85.1567256,50.1661868 C84.8955162,50.1661868 84.6322501,50.0654052 84.430687,49.8658988 L84.430687,49.8658988 L81.158371,46.5935829 C80.7573015,46.1925134 80.7573015,45.5405183 81.158371,45.1394488 L81.158371,45.1394488 Z M18.7190457,42.7165775 C20.4549568,42.7165775 21.8700123,44.1316331 21.8700123,45.869601 C21.8700123,47.6055121 20.4570136,49.0185109 18.7190457,49.0185109 C16.9810777,49.0185109 15.568079,47.6055121 15.5701335,45.869601 C15.5701335,44.1316331 16.9831345,42.7165775 18.7190457,42.7165775 Z M49.5458659,42.7145208 C51.281777,42.7145208 52.6968326,44.1295763 52.6968326,45.8654875 C52.6968326,47.6013986 51.2838338,49.0164541 49.5458659,49.0164541 C47.8099548,49.0164541 46.396956,47.6034554 46.396956,45.8654875 C46.396956,44.1295763 47.8099548,42.7145208 49.5458659,42.7145208 Z M36.9913616,45.9888935 C36.3907857,45.9888935 35.8992184,46.4804607 35.8992184,47.0830934 C35.8992184,47.685726 36.3887289,48.1772933 36.9913616,48.1772933 C37.5939942,48.1772933 38.0855615,47.685726 38.0855615,47.0830934 C38.0855615,46.4804607 37.5939942,45.9888935 36.9913616,45.9888935 Z M85.1567256,44.0493624 L83.3385438,45.8675442 L85.1567256,47.685726 L86.9749074,45.8675442 L85.1567256,44.0493624 Z M18.7190457,44.7733443 C18.116413,44.7733443 17.6248457,45.2628548 17.6268961,45.869601 C17.6268961,46.4722336 18.116413,46.9617441 18.7190457,46.9617441 C19.3216783,46.9617441 19.8132456,46.4722336 19.8132456,45.869601 C19.8132456,45.2649116 19.3216783,44.7733443 18.7190457,44.7733443 Z M49.5458659,44.7712875 C48.9432332,44.7712875 48.4537227,45.2628548 48.4537227,45.8654875 C48.4537227,46.4681201 48.9432332,46.9596874 49.5458659,46.9596874 C50.1484986,46.9596874 50.6400658,46.4681201 50.6400658,45.8654875 C50.6400658,45.2628548 50.1484986,44.7712875 49.5458659,44.7712875 Z M61.7795146,38.4693542 C63.5154258,38.4693542 64.9304813,39.8823529 64.9304813,41.6203209 C64.9304813,43.3582888 63.5174825,44.7712875 61.7795146,44.7712875 C60.0436035,44.7712875 58.6306047,43.356232 58.6306047,41.6203209 C58.6306047,39.8844097 60.0436035,38.4693542 61.7795146,38.4693542 Z M61.7795146,40.5261209 C61.1768819,40.5261209 60.6873715,41.0156314 60.6873715,41.6203209 C60.6873715,42.2229535 61.1768819,42.7145208 61.7795146,42.7145208 C62.384204,42.7145208 62.8737145,42.2229535 62.8737145,41.6203209 C62.8737145,41.0176882 62.384204,40.5261209 61.7795146,40.5261209 Z M28.2501028,35.260798 C29.986014,35.260798 31.4010695,36.6737968 31.4010695,38.4117647 C31.4010695,40.1497326 29.9880708,41.5627314 28.2501028,41.5627314 C26.5141917,41.5627314 25.1011929,40.1476759 25.1011929,38.4117647 C25.1011929,36.6758536 26.5141917,35.260798 28.2501028,35.260798 Z M42.5651995,34.4216372 C44.3031674,34.4216372 45.7161662,35.8366927 45.7161662,37.5726039 C45.7161662,39.308515 44.3031674,40.7235705 42.5651995,40.7235705 C40.8272316,40.7235705 39.4142328,39.308515 39.4142328,37.5726039 C39.4142328,35.8366927 40.8272316,34.4216372 42.5651995,34.4216372 Z M28.2501028,37.3175648 C27.6495269,37.3175648 27.1579597,37.8070753 27.1579597,38.4117647 C27.1579597,39.0143974 27.6474702,39.5059646 28.2501028,39.5059646 C28.8527355,39.5059646 29.3443028,39.0143974 29.3443028,38.4117647 C29.3443028,37.809132 28.8527355,37.3175648 28.2501028,37.3175648 Z M42.5651995,36.4763472 C41.9605101,36.4763472 41.4709996,36.9679144 41.4709996,37.5705471 C41.4709996,38.1731798 41.9625668,38.664747 42.5651995,38.664747 C43.1678322,38.664747 43.6593994,38.1731798 43.6593994,37.5705471 C43.6593994,36.9679144 43.1678322,36.4763472 42.5651995,36.4763472 Z M53.7889757,32.2990539 C55.5248869,32.2990539 56.9399424,33.7120527 56.9399424,35.4500206 C56.9399424,37.1879885 55.5269436,38.6009872 53.7889757,38.6009872 C52.0530646,38.6009872 50.6400658,37.1859317 50.6400658,35.4500206 C50.6400658,33.7141094 52.0530646,32.2990539 53.7889757,32.2990539 Z M53.7889757,34.3558206 C53.1883998,34.3558206 52.6968326,34.8453311 52.6968326,35.4500206 C52.6968326,36.0526532 53.1863431,36.5442205 53.7889757,36.5442205 C54.3936652,36.5442205 54.8831756,36.0526532 54.8831756,35.4500206 C54.8831756,34.8473879 54.3936652,34.3558206 53.7889757,34.3558206 Z M36.9913616,26.8630193 C38.7272727,26.8630193 40.1423283,28.2760181 40.1423283,30.013986 C40.1423283,31.7519539 38.7293295,33.1649527 36.9913616,33.1649527 C35.2554504,33.1649527 33.8424517,31.7498972 33.8424517,30.013986 C33.8424517,28.2780749 35.2554504,26.8630193 36.9913616,26.8630193 Z M63.9020979,26.8609626 C65.638009,26.8609626 67.0530646,28.2739613 67.0530646,30.0119292 C67.0530646,31.7498972 65.6400658,33.1628959 63.9020979,33.1628959 C62.1661868,33.1628959 60.753188,31.7478404 60.753188,30.0119292 C60.753188,28.2760181 62.1661868,26.8609626 63.9020979,26.8609626 Z M36.9913616,28.9197861 C36.3907857,28.9197861 35.8992184,29.4092966 35.8992184,30.013986 C35.8992184,30.6166187 36.3887289,31.1081859 36.9913616,31.1081859 C37.5939942,31.1081859 38.0855615,30.6166187 38.0855615,30.013986 C38.0855615,29.4113534 37.5939942,28.9197861 36.9913616,28.9197861 Z M63.9020979,28.9177293 C63.2994652,28.9177293 62.8099548,29.4092966 62.8099548,30.0119292 C62.8099548,30.6145619 63.2994652,31.1061292 63.9020979,31.1061292 C64.5067873,31.1061292 64.9962978,30.6145619 64.9962978,30.0119292 C64.9962978,29.4092966 64.5067873,28.9177293 63.9020979,28.9177293 Z M48.1246401,23.7593583 C49.8605512,23.7593583 51.2756067,25.1723571 51.2756067,26.910325 C51.2756067,28.6482929 49.862608,30.0612916 48.1246401,30.0612916 C46.3866722,30.0612916 44.9757302,28.6462361 44.9757302,26.910325 C44.9757302,25.1744138 46.3887289,23.7593583 48.1246401,23.7593583 Z M48.1246401,25.8161251 C47.5220074,25.8161251 47.0304401,26.3076923 47.0324905,26.910325 C47.0324905,27.5129576 47.5220074,28.0045249 48.1246401,28.0045249 C48.7272727,28.0045249 49.21884,27.5129576 49.21884,26.910325 C49.21884,26.3076923 48.7272727,25.8161251 48.1246401,25.8161251 Z" id="Combined-Shape" fill="#000000" fill-rule="nonzero"></path>
    </g>
</svg>
