<?xml version="1.0" encoding="UTF-8"?>
<svg width="100px" height="100px" viewBox="0 0 100 100" version="1.1" xmlns="http://www.w3.org/2000/svg" xmlns:xlink="http://www.w3.org/1999/xlink">
    <title>icon_bild video</title>
    <g id="icon_bild-video" stroke="none" stroke-width="1" fill="none" fill-rule="evenodd">
        <path d="M63,46 L63,15.5 C63,14.119 64.1193,13 65.5,13 L96.5005,13 C97.8805,13 99.0005,14.119 99.0005,15.5 C99.0005,15.5 99.0005,46.5 99.0005,46.5 C99.0005,47.881 97.8805,49 96.5005,49 L66,49 L66,97.5 C66,98.881 64.8807,100 63.5,100 L2.5,100 C1.1193,100 0,98.881 0,97.5 L0,48.5 C0,47.119 1.1193,46 2.5,46 L63,46 Z M71,99.5 C71.8285,99.5 72.5,98.829 72.5,98 C72.5,97.172 71.8285,96.5 71,96.5 C70.1716,96.5 69.5,97.172 69.5,98 C69.5,98.829 70.1716,99.5 71,99.5 Z M80,99.5 C80.8285,99.5 81.5,98.829 81.5,98 C81.5,97.172 80.8285,96.5 80,96.5 C79.1716,96.5 78.5,97.172 78.5,98 C78.5,98.829 79.1716,99.5 80,99.5 Z M89,99.5 C89.8285,99.5 90.5,98.829 90.5,98 C90.5,97.172 89.8285,96.5 89,96.5 C88.1716,96.5 87.5,97.172 87.5,98 C87.5,98.829 88.1716,99.5 89,99.5 Z M97.0005,99.5 C97.8285,99.5 98.5005,98.829 98.5005,98 C98.5005,97.172 97.8285,96.5 97.0005,96.5 C96.1715,96.5 95.5005,97.172 95.5005,98 C95.5005,98.829 96.1715,99.5 97.0005,99.5 Z M32.8787,97 L19.5,83.622 L6.1214,97 L32.8787,97 Z M29.6214,89.5 L37.1214,97 L60.8787,97 L41.5,77.622 L29.6214,89.5 Z M63,94.879 L63,49 L3,49 L3,95.879 L18.4394,80.44 C19.0252,79.854 19.9749,79.854 20.5607,80.44 L27.5,87.379 L40.4394,74.44 C41.0252,73.854 41.9749,73.854 42.5607,74.44 L63,94.879 Z M97.0005,91.5 C97.8285,91.5 98.5005,90.829 98.5005,90 C98.5005,89.172 97.8285,88.5 97.0005,88.5 C96.1715,88.5 95.5005,89.172 95.5005,90 C95.5005,90.829 96.1715,91.5 97.0005,91.5 Z M97.0005,82.5 C97.8285,82.5 98.5005,81.829 98.5005,81 C98.5005,80.172 97.8285,79.5 97.0005,79.5 C96.1715,79.5 95.5005,80.172 95.5005,81 C95.5005,81.829 96.1715,82.5 97.0005,82.5 Z M97.0005,73.5 C97.8285,73.5 98.5005,72.829 98.5005,72 C98.5005,71.172 97.8285,70.5 97.0005,70.5 C96.1715,70.5 95.5005,71.172 95.5005,72 C95.5005,72.829 96.1715,73.5 97.0005,73.5 Z M18.5,69 C22.6394,69 26,65.64 26,61.5 C26,57.361 22.6394,54 18.5,54 C14.3607,54 11,57.361 11,61.5 C11,65.64 14.3607,69 18.5,69 Z M18.5,66 C16.0164,66 14,63.984 14,61.5 C14,59.017 16.0164,57 18.5,57 C20.9837,57 23,59.017 23,61.5 C23,63.984 20.9837,66 18.5,66 Z M97.0005,64.5 C97.8285,64.5 98.5005,63.829 98.5005,63 C98.5005,62.172 97.8285,61.5 97.0005,61.5 C96.1715,61.5 95.5005,62.172 95.5005,63 C95.5005,63.829 96.1715,64.5 97.0005,64.5 Z M97.0005,55.5 C97.8285,55.5 98.5005,54.829 98.5005,54 C98.5005,53.172 97.8285,52.5 97.0005,52.5 C96.1715,52.5 95.5005,53.172 95.5005,54 C95.5005,54.829 96.1715,55.5 97.0005,55.5 Z M66,46 L96,46 L96,16 L66,16 L66,46 Z M0.5,41 C0.5,40.172 1.1716,39.5 2,39.5 C2.8285,39.5 3.5,40.172 3.5,41 C3.5,41.829 2.8285,42.5 2,42.5 C1.1716,42.5 0.5,41.829 0.5,41 Z M0.5,32 C0.5,31.172 1.1716,30.5 2,30.5 C2.8285,30.5 3.5,31.172 3.5,32 C3.5,32.829 2.8285,33.5 2,33.5 C1.1716,33.5 0.5,32.829 0.5,32 Z M0.5,23 C0.5,22.172 1.1716,21.5 2,21.5 C2.8285,21.5 3.5,22.172 3.5,23 C3.5,23.829 2.8285,24.5 2,24.5 C1.1716,24.5 0.5,23.829 0.5,23 Z M0.5,15 C0.5,14.172 1.1716,13.5 2,13.5 C2.8285,13.5 3.5,14.172 3.5,15 C3.5,15.829 2.8285,16.5 2,16.5 C1.1716,16.5 0.5,15.829 0.5,15 Z M44.5,15 C44.5,14.172 45.1716,13.5 46,13.5 C46.8285,13.5 47.5,14.172 47.5,15 C47.5,15.829 46.8285,16.5 46,16.5 C45.1716,16.5 44.5,15.829 44.5,15 Z M53.5,15 C53.5,14.172 54.1716,13.5 55,13.5 C55.8285,13.5 56.5,14.172 56.5,15 C56.5,15.829 55.8285,16.5 55,16.5 C54.1716,16.5 53.5,15.829 53.5,15 Z M35.5,15 C35.5,14.172 36.1716,13.5 37,13.5 C37.8285,13.5 38.5,14.172 38.5,15 C38.5,15.829 37.8285,16.5 37,16.5 C36.1716,16.5 35.5,15.829 35.5,15 Z M26.5,15 C26.5,14.172 27.1716,13.5 28,13.5 C28.8285,13.5 29.5,14.172 29.5,15 C29.5,15.829 28.8285,16.5 28,16.5 C27.1716,16.5 26.5,15.829 26.5,15 Z M17.5,15 C17.5,14.172 18.1716,13.5 19,13.5 C19.8285,13.5 20.5,14.172 20.5,15 C20.5,15.829 19.8285,16.5 19,16.5 C18.1716,16.5 17.5,15.829 17.5,15 Z M8.5,15 C8.5,14.172 9.1716,13.5 10,13.5 C10.8285,13.5 11.5,14.172 11.5,15 C11.5,15.829 10.8285,16.5 10,16.5 C9.1716,16.5 8.5,15.829 8.5,15 Z" id="Fill-14" fill="#000000"></path>
    </g>
</svg>