<?xml version="1.0" encoding="UTF-8"?>
<svg width="100px" height="100px" viewBox="0 0 100 100" version="1.1" xmlns="http://www.w3.org/2000/svg" xmlns:xlink="http://www.w3.org/1999/xlink">
    <!-- Generator: Sketch 64 (93537) - https://sketch.com -->
    <title>icon_interface</title>
    <desc>Created with Sketch.</desc>
    <g id="icon_interface" stroke="none" stroke-width="1" fill="none" fill-rule="evenodd">
        <path d="M100,0 L100,100 L0,100 L0,0 L100,0 Z M96.7741935,16.1290323 L3.22580645,16.1290323 L3.22580645,96.7741935 L96.7741935,96.7741935 L96.7741935,16.1290323 Z M48.3870968,19.3548387 L48.3870968,93.5483871 L6.4516129,93.5483871 L6.4516129,19.3548387 L48.3870968,19.3548387 Z M93.5483871,58.0645161 L93.5483871,93.5483871 L51.6129032,93.5483871 L51.6129032,58.0645161 L93.5483871,58.0645161 Z M45.1612903,22.5806452 L9.67741935,22.5806452 L9.67741935,90.3225806 L45.1612903,90.3225806 L45.1612903,22.5806452 Z M90.3225806,61.2903226 L54.8387097,61.2903226 L54.8387097,90.3225806 L90.3225806,90.3225806 L90.3225806,61.2903226 Z M41.9354839,83.8709677 L41.9354839,87.0967742 L38.7096774,87.0967742 L38.7096774,83.8709677 L41.9354839,83.8709677 Z M35.483871,83.8709677 L35.483871,87.0967742 L12.9032258,87.0967742 L12.9032258,83.8709677 L35.483871,83.8709677 Z M72.5806452,64.516129 C78.8064516,64.516129 83.8709677,69.5822581 83.8709677,75.8064516 C83.8709677,82.0306452 78.8064516,87.0967742 72.5806452,87.0967742 C66.3548387,87.0967742 61.2903226,82.0306452 61.2903226,75.8064516 C61.2903226,69.5822581 66.3548387,64.516129 72.5806452,64.516129 Z M72.5806452,67.7419355 C68.133871,67.7419355 64.516129,71.3596774 64.516129,75.8064516 C64.516129,80.2532258 68.133871,83.8709677 72.5806452,83.8709677 C77.0274194,83.8709677 80.6451613,80.2532258 80.6451613,75.8064516 C80.6451613,71.3596774 77.0274194,67.7419355 72.5806452,67.7419355 Z M41.9354839,77.4193548 L41.9354839,80.6451613 L12.9032258,80.6451613 L12.9032258,77.4193548 L41.9354839,77.4193548 Z M41.9354839,70.9677419 L41.9354839,74.1935484 L12.9032258,74.1935484 L12.9032258,70.9677419 L41.9354839,70.9677419 Z M41.9354839,64.516129 L41.9354839,67.7419355 L12.9032258,67.7419355 L12.9032258,64.516129 L41.9354839,64.516129 Z M41.9354839,58.0645161 L41.9354839,61.2903226 L30.6451613,61.2903226 L30.6451613,58.0645161 L41.9354839,58.0645161 Z M27.4193548,58.0645161 L27.4193548,61.2903226 L12.9032258,61.2903226 L12.9032258,58.0645161 L27.4193548,58.0645161 Z M41.9354839,51.6129032 L41.9354839,54.8387097 L12.9032258,54.8387097 L12.9032258,51.6129032 L41.9354839,51.6129032 Z M93.5483871,19.3548387 L93.5483871,54.8387097 L51.6129032,54.8387097 L51.6129032,19.3548387 L93.5483871,19.3548387 Z M90.3225806,22.5806452 L54.8387097,22.5806452 L54.8387097,51.6129032 L90.3225806,51.6129032 L90.3225806,22.5806452 Z M41.9354839,45.1612903 L41.9354839,48.3870968 L12.9032258,48.3870968 L12.9032258,45.1612903 L41.9354839,45.1612903 Z M72.5806452,26.0290323 L86.8096774,48.3870968 L58.3516129,48.3870968 L72.5806452,26.0290323 Z M72.5806452,32.0354839 L64.2290323,45.1612903 L80.9322581,45.1612903 L72.5806452,32.0354839 Z M41.9354839,38.7096774 L41.9354839,41.9354839 L12.9032258,41.9354839 L12.9032258,38.7096774 L41.9354839,38.7096774 Z M41.9354839,32.2580645 L41.9354839,35.483871 L19.3548387,35.483871 L19.3548387,32.2580645 L41.9354839,32.2580645 Z M16.1290323,32.2580645 L16.1290323,35.483871 L12.9032258,35.483871 L12.9032258,32.2580645 L16.1290323,32.2580645 Z M41.9354839,25.8064516 L41.9354839,29.0322581 L12.9032258,29.0322581 L12.9032258,25.8064516 L41.9354839,25.8064516 Z M96.7741935,3.22580645 L3.22580645,3.22580645 L3.22580645,12.9032258 L96.7741935,12.9032258 L96.7741935,3.22580645 Z M9.67741935,6.4516129 L9.67741935,9.67741935 L6.4516129,9.67741935 L6.4516129,6.4516129 L9.67741935,6.4516129 Z M16.1290323,6.4516129 L16.1290323,9.67741935 L12.9032258,9.67741935 L12.9032258,6.4516129 L16.1290323,6.4516129 Z M22.5806452,6.4516129 L22.5806452,9.67741935 L19.3548387,9.67741935 L19.3548387,6.4516129 L22.5806452,6.4516129 Z" id="Combined-Shape" fill="#000000" fill-rule="nonzero"></path>
    </g>
</svg>
