<?xml version="1.0" encoding="UTF-8"?>
<svg width="100px" height="100px" viewBox="0 0 100 100" version="1.1" xmlns="http://www.w3.org/2000/svg" xmlns:xlink="http://www.w3.org/1999/xlink">
    <title>icon_datensatz</title>
    <g id="icon_datensatz" stroke="none" stroke-width="1" fill="none" fill-rule="evenodd">
        <path d="M3.5,73 C2.12,73 1,74.1193 1,75.5 L1,97.5 C1,98.8807 2.12,100 3.5,100 C3.5,100 97.5,100 97.5,100 C98.881,100 100,98.8807 100,97.5 C100,97.5 100,86.5 100,86.5 C100,79.0442 93.956,73 86.5,73 L3.5,73 Z M4,76 L4,97 L97,97 L97,86.5 C97,80.701 92.299,76 86.5,76 L4,76 Z M22,94.5 L22,79.5 L19,79.5 L19,94.5 L22,94.5 Z M10,94.5 L10,79.5 L7,79.5 L7,94.5 L10,94.5 Z M16,94.5 L16,79.5 L13,79.5 L13,94.5 L16,94.5 Z M86.5,94 C90.64,94 94,90.6394 94,86.5 C94,82.3607 90.64,79 86.5,79 C82.361,79 79,82.3607 79,86.5 C79,90.6394 82.361,94 86.5,94 Z M86.5,91 C84.017,91 82,88.9836 82,86.5 C82,84.0164 84.017,82 86.5,82 C88.984,82 91,84.0164 91,86.5 C91,88.9836 88.984,91 86.5,91 Z M3.5,43 C2.12,43 1,44.1193 1,45.5 L1,67.5 C1,68.8807 2.12,70 3.5,70 C3.5,70 97.5,70 97.5,70 C98.881,70 100,68.8807 100,67.5 C100,67.5 100,56.5 100,56.5 C100,49.0442 93.956,43 86.5,43 L3.5,43 Z M4,46 L4,67 L97,67 L97,56.5 C97,50.701 92.299,46 86.5,46 L4,46 Z M22,64.5 L22,49.5 L19,49.5 L19,64.5 L22,64.5 Z M10,64.5 L10,49.5 L7,49.5 L7,64.5 L10,64.5 Z M16,64.5 L16,49.5 L13,49.5 L13,64.5 L16,64.5 Z M86.5,64 C90.64,64 94,60.6394 94,56.5 C94,52.3607 90.64,49 86.5,49 C82.361,49 79,52.3607 79,56.5 C79,60.6394 82.361,64 86.5,64 Z M86.5,61 C84.017,61 82,58.9836 82,56.5 C82,54.0164 84.017,52 86.5,52 C88.984,52 91,54.0164 91,56.5 C91,58.9836 88.984,61 86.5,61 Z M3.5,13 C2.12,13 1,14.1193 1,15.5 L1,37.5 C1,38.8807 2.12,40 3.5,40 C3.5,40 97.5,40 97.5,40 C98.881,40 100,38.8807 100,37.5 C100,37.5 100,26.5 100,26.5 C100,19.0442 93.956,13 86.5,13 C86.5,13 3.5,13 3.5,13 Z M4,16 L4,37 L97,37 L97,26.5 C97,20.701 92.299,16 86.5,16 L4,16 Z M22,34.5 L22,19.5 L19,19.5 L19,34.5 L22,34.5 Z M10,34.5 L10,19.5 L7,19.5 L7,34.5 L10,34.5 Z M16,34.5 L16,19.5 L13,19.5 L13,34.5 L16,34.5 Z M86.5,34 C90.64,34 94,30.6394 94,26.5 C94,22.3607 90.64,19 86.5,19 C82.361,19 79,22.3607 79,26.5 C79,30.6394 82.361,34 86.5,34 Z M86.5,31 C84.017,31 82,28.9836 82,26.5 C82,24.0164 84.017,22 86.5,22 C88.984,22 91,24.0164 91,26.5 C91,28.9836 88.984,31 86.5,31 Z" id="Fill-9" fill="#0C0C0C"></path>
    </g>
</svg>