<?xml version="1.0" encoding="UTF-8"?>
<svg width="100px" height="100px" viewBox="0 0 100 100" version="1.1" xmlns="http://www.w3.org/2000/svg" xmlns:xlink="http://www.w3.org/1999/xlink">
    <title>icon_vorhersagen</title>
    <g id="icon_vorhersagen" stroke="none" stroke-width="1" fill="none" fill-rule="evenodd">
        <path d="M90,90.439 L95.439,85 L97.561,87.121 L92.121,92.561 L97.561,98 L95.439,100.121 L90,94.682 L84.561,100.121 L82.439,98 L87.879,92.561 L82.439,87.121 L84.561,85 L90,90.439 Z M78,82.061 C78.828,82.061 79.5,81.389 79.5,80.561 C79.5,79.732 78.828,79.061 78,79.061 C77.172,79.061 76.5,79.732 76.5,80.561 C76.5,81.389 77.172,82.061 78,82.061 Z M71,75.061 C71.828,75.061 72.5,74.389 72.5,73.561 C72.5,72.732 71.828,72.061 71,72.061 C70.172,72.061 69.5,72.732 69.5,73.561 C69.5,74.389 70.172,75.061 71,75.061 Z M64,68.061 C64.828,68.061 65.5,67.389 65.5,66.561 C65.5,65.732 64.828,65.061 64,65.061 C63.172,65.061 62.5,65.732 62.5,66.561 C62.5,67.389 63.172,68.061 64,68.061 Z M57,61.061 C57.828,61.061 58.5,60.389 58.5,59.561 C58.5,58.732 57.828,58.061 57,58.061 C56.172,58.061 55.5,58.732 55.5,59.561 C55.5,60.389 56.172,61.061 57,61.061 Z M9,59.561 C12.863,59.561 16,56.424 16,52.561 C16,48.697 12.863,45.561 9,45.561 C5.137,45.561 2,48.697 2,52.561 C2,56.424 5.137,59.561 9,59.561 Z M9,56.561 C6.792,56.561 5,54.768 5,52.561 C5,50.353 6.792,48.561 9,48.561 C11.208,48.561 13,50.353 13,52.561 C13,54.768 11.208,56.561 9,56.561 Z M48.879,50.561 L78.439,21 L80.561,23.121 L50.121,53.561 L21.5,53.561 L21.5,50.561 L48.879,50.561 Z M85.5,13.939 L96.439,3 L98.561,5.121 L85.5,18.182 L77.439,10.121 L79.561,8 L85.5,13.939 Z" id="Fill-2" fill="#0C0C0C"></path>
    </g>
</svg>