<?xml version="1.0" encoding="UTF-8" standalone="no"?>
<svg
   xmlns:dc="http://purl.org/dc/elements/1.1/"
   xmlns:cc="http://creativecommons.org/ns#"
   xmlns:rdf="http://www.w3.org/1999/02/22-rdf-syntax-ns#"
   xmlns:svg="http://www.w3.org/2000/svg"
   xmlns="http://www.w3.org/2000/svg"
   id="svg42"
   version="1.1"
   viewBox="0 0 100 100"
   height="100px"
   width="100px">
  <metadata
     id="metadata48">
    <rdf:RDF>
      <cc:Work
         rdf:about="">
        <dc:format>image/svg+xml</dc:format>
        <dc:type
           rdf:resource="http://purl.org/dc/dcmitype/StillImage" />
        <dc:title>icon_forschung</dc:title>
      </cc:Work>
    </rdf:RDF>
  </metadata>
  <defs
     id="defs46" />
  <!-- Generator: Sketch 64 (93537) - https://sketch.com -->
  <title
     id="title2">icon_forschung</title>
  <desc
     id="desc4">Created with Sketch.</desc>
  <g
     fill-rule="evenodd"
     fill="none"
     stroke-width="1"
     stroke="none"
     id="icon_forschung">
    <path
       stroke-width="3"
       stroke="#0C0C0C"
       id="Rectangle"
       d="M27,35 L53,35 C66.8071187,35 78,46.1928813 78,60 L78,84 C78,84.5522847 77.5522847,85 77,85 L15,85 C7.82029825,85 2,79.1797017 2,72 L2,60 C2,46.1928813 13.1928813,35 27,35 Z" />
    <path
       stroke-width="3"
       stroke="#0C0C0C"
       id="Path-16"
       d="M42,85 L54.4142136,97.4142136 C54.7892863,97.7892863 55.2979941,98 55.8284271,98 L66.5,98 C72.8512746,98 78,92.8512746 78,86.5 L78,85 L78,85 L42,85 Z" />
    <path
       stroke-width="3"
       stroke="#0C0C0C"
       id="Path-17"
       d="M45,85 L38,85 C33.581722,85 30,81.418278 30,77 C30,72.581722 33.581722,69 38,69 L60,69 L60,69" />
    <path
       stroke-width="3"
       stroke="#0C0C0C"
       id="Path-18"
       d="M40,35 L40,45 C40,50.5228475 35.5228475,55 30,55 L27,55 C21.4771525,55 17,59.4771525 17,65 L17,71 L17,71" />
    <path
       stroke-width="3"
       stroke="#0C0C0C"
       id="Path-19"
       d="M77,55 L62,55 C57.581722,55 54,51.418278 54,47 L54,47 L54,47" />
    <line
       stroke-width="3"
       stroke="#0C0C0C"
       id="Path-21"
       y2="60"
       x2="8"
       y1="60"
       x1="2" />
    <line
       stroke-width="3"
       stroke="#0C0C0C"
       id="Path-20"
       y2="78"
       x2="48"
       y1="85"
       x1="48" />
    <line
       stroke-width="3"
       stroke="#0C0C0C"
       id="line15"
       y2="36"
       x2="27"
       y1="45"
       x1="27" />
    <line
       stroke-width="3"
       stroke="#0C0C0C"
       id="Path-22"
       y2="48"
       x2="64"
       y1="42"
       x1="70" />
    <path
       stroke-width="3"
       stroke="#0C0C0C"
       id="Path-23"
       d="M18,32 L18,3 C18,2.44771525 18.4477153,2 19,2 L48,2 C51.8659932,2 55,5.13400675 55,9 L55,31 L55,31" />
    <path
       transform="translate(73.500000, 29.000000) scale(-1, 1) translate(-73.500000, -29.000000) "
       stroke-width="3"
       stroke="#0C0C0C"
       id="path19"
       d="M64,56 L56,56 C55.4477153,56 55,55.5522847 55,55 L55,3 C55,2.44771525 55.4477153,2 56,2 L85,2 C88.8659932,2 92,5.13400675 92,9 L92,31 L92,31" />
    <path
       stroke-width="3"
       stroke="#0C0C0C"
       id="Path-24"
       d="M18,8 L13,8 C12.4477153,8 12,8.44771525 12,9 L12,34 L12,34" />
    <path
       transform="translate(91.000000, 35.500000) scale(-1, 1) translate(-91.000000, -35.500000) "
       stroke-width="3"
       stroke="#0C0C0C"
       id="path22"
       d="M90,8 L85,8 C84.4477153,8 84,8.44771525 84,9 L84,62 C84,62.5522847 84.4477153,63 85,63 L98,63 L98,63" />
    <line
       stroke-width="3"
       stroke="#0C0C0C"
       id="Path-13"
       y2="11.5"
       x2="37"
       y1="11.5"
       x1="24" />
    <line
       stroke-width="3"
       stroke="#0C0C0C"
       id="line25"
       y2="11.5"
       x2="74"
       y1="11.5"
       x1="61" />
    <line
       stroke-width="3"
       stroke="#0C0C0C"
       id="Path-14"
       y2="19.5"
       x2="49"
       y1="19.5"
       x1="24" />
    <line
       stroke-width="3"
       stroke="#0C0C0C"
       id="Path-15"
       y2="28.5"
       x2="49"
       y1="28.5"
       x1="29" />
    <line
       stroke-width="3"
       stroke="#0C0C0C"
       id="line29"
       y2="19.5"
       x2="86"
       y1="19.5"
       x1="61" />
    <line
       stroke-width="3"
       stroke="#0C0C0C"
       id="line31"
       y2="28.5"
       x2="86"
       y1="28.5"
       x1="66" />
    <line
       stroke-width="3"
       stroke="#0C0C0C"
       id="line33"
       y2="37.5"
       x2="85.5"
       y1="37.5"
       x1="77.5" />
    <path
       stroke-width="3"
       stroke="#0C0C0C"
       id="Path-25"
       d="M66,63 C62.6862915,63 60,65.6862915 60,69 C60,72.3137085 62.6862915,75 66,75 L66,75 L66,75" />
    <path
       transform="translate(54.000000, 45.000000) rotate(-90.000000) translate(-54.000000, -45.000000) "
       stroke-width="3"
       stroke="#0C0C0C"
       id="path36"
       d="M57,39 C53.6862915,39 51,41.6862915 51,45 C51,48.3137085 53.6862915,51 57,51 L57,51 L57,51" />
    <path
       transform="translate(17.000000, 73.000000) rotate(-270.000000) translate(-17.000000, -73.000000) "
       stroke-width="3"
       stroke="#0C0C0C"
       id="path38"
       d="M20,67 C16.6862915,67 14,69.6862915 14,73 C14,76.3137085 16.6862915,79 20,79 L20,79 L20,79" />
    <line
       stroke-width="3"
       stroke="#0C0C0C"
       id="Path-26"
       y2="91"
       x2="76"
       y1="91"
       x1="49" />
  </g>
</svg>
