<?xml version="1.0" encoding="UTF-8"?>
<svg width="100px" height="100px" viewBox="0 0 100 100" version="1.1" xmlns="http://www.w3.org/2000/svg" xmlns:xlink="http://www.w3.org/1999/xlink">
    <title>icon_klassifizierung</title>
    <g id="icon_klassifizierung" stroke="none" stroke-width="1" fill="none" fill-rule="evenodd">
        <path d="M66.279,92.5 L58.5,84.721 L50.722,92.5 L58.5,100.278 L66.279,92.5 Z M30.561,99.56 L99.561,30.56 L97.44,28.439 L28.44,97.439 L30.561,99.56 Z M54.965,92.5 L58.5,96.035 L62.036,92.5 L58.5,88.964 L54.965,92.5 Z M96.279,79.5 L88.5,71.721 L80.722,79.5 L88.5,87.278 L96.279,79.5 Z M84.965,79.5 L88.5,83.035 L92.036,79.5 L88.5,75.964 L84.965,79.5 Z M7,78 C10.864,78 14,74.863 14,71 C14,67.136 10.864,64 7,64 C3.137,64 0,67.136 0,71 C0,74.863 3.137,78 7,78 Z M7,75 C4.793,75 3,73.207 3,71 C3,68.792 4.793,67 7,67 C9.208,67 11,68.792 11,71 C11,73.207 9.208,75 7,75 Z M96.279,58.5 L88.5,50.721 L80.722,58.5 L88.5,66.278 L96.279,58.5 Z M43,64 C46.864,64 50,60.863 50,57 C50,53.136 46.864,50 43,50 C39.137,50 36,53.136 36,57 C36,60.863 39.137,64 43,64 Z M84.965,58.5 L88.5,62.035 L92.036,58.5 L88.5,54.964 L84.965,58.5 Z M43,61 C40.793,61 39,59.207 39,57 C39,54.792 40.793,53 43,53 C45.208,53 47,54.792 47,57 C47,59.207 45.208,61 43,61 Z M16,42 C19.864,42 23,38.863 23,35 C23,31.136 19.864,28 16,28 C12.137,28 9,31.136 9,35 C9,38.863 12.137,42 16,42 Z M16,39 C13.793,39 12,37.207 12,35 C12,32.792 13.793,31 16,31 C18.208,31 20,32.792 20,35 C20,37.207 18.208,39 16,39 Z M70,36 C73.864,36 77,32.863 77,29 C77,25.136 73.864,22 70,22 C66.137,22 63,25.136 63,29 C63,32.863 66.137,36 70,36 Z M70,33 C67.793,33 66,31.207 66,29 C66,26.792 67.793,25 70,25 C72.208,25 74,26.792 74,29 C74,31.207 72.208,33 70,33 Z M47,16 C50.864,16 54,12.863 54,9 C54,5.136 50.864,2 47,2 C43.137,2 40,5.136 40,9 C40,12.863 43.137,16 47,16 Z M47,13 C44.793,13 43,11.207 43,9 C43,6.792 44.793,5 47,5 C49.208,5 51,6.792 51,9 C51,11.207 49.208,13 47,13 Z" id="Fill-6" fill="#0C0C0C"></path>
    </g>
</svg>