<?xml version="1.0" encoding="UTF-8" standalone="no"?>
<svg
   xmlns:dc="http://purl.org/dc/elements/1.1/"
   xmlns:cc="http://creativecommons.org/ns#"
   xmlns:rdf="http://www.w3.org/1999/02/22-rdf-syntax-ns#"
   xmlns:svg="http://www.w3.org/2000/svg"
   xmlns="http://www.w3.org/2000/svg"
   id="svg14"
   version="1.1"
   viewBox="0 0 100 100"
   height="100px"
   width="100px">
  <metadata
     id="metadata20">
    <rdf:RDF>
      <cc:Work
         rdf:about="">
        <dc:format>image/svg+xml</dc:format>
        <dc:type
           rdf:resource="http://purl.org/dc/dcmitype/StillImage" />
        <dc:title>icon_beratung</dc:title>
      </cc:Work>
    </rdf:RDF>
  </metadata>
  <defs
     id="defs18" />
  <title
     id="title2">icon_beratung</title>
  <g
     fill-rule="evenodd"
     fill="none"
     stroke-width="1"
     stroke="none"
     id="icon_beratung">
    <g
       fill="#0C0C0C"
       transform="translate(1.000000, 0.000000)"
       id="Group-7">
      <path
         id="Fill-1"
         d="M66.1404,99.3611 C65.2773,90.0836 65.2562,83.2254 66.1193,78.7863 C66.9676,74.424 69.2353,69.6197 72.8802,64.3538 L70.4135,62.6463 C66.4871,68.3188 64.0882,73.5145 63.1745,78.2137 C62.2756,82.8363 62.2545,89.978 63.1533,99.639 L66.1404,99.3611 Z" />
      <path
         id="Fill-2"
         d="M11.1503,33.139 C11.2951,24.9032 16.3468,15.746 18.3988,12.668 C20.4975,9.5199 29.9066,0 45.6469,0 C56.0687,0 65.11,4.149 72.7526,12.4865 L70.5412,14.5136 C63.5171,6.8511 55.2251,3 45.6469,3 C31.387,3 22.7963,11.4801 20.895,14.3321 C18.9769,17.2091 14.1469,25.828 14.1469,33.5 L14.1469,33.8541 C14.1469,33.8541 3.1593,55.8292 3.1593,55.8292 C2.7889,56.5702 3.0892,57.4712 3.8302,57.8417 C4.0384,57.9458 4.2681,58 4.501,58 L14.1469,58 C14.1469,58 14.1469,64.5 14.1469,64.5 C14.1469,71.4036 19.7433,77 26.6469,77 L28.1469,77 L28.1469,99.5 L25.1469,99.5 L25.1469,79.9281 C17.2904,79.1741 11.1469,72.5545 11.1469,64.5 L11.1469,61 L4.501,61 C3.8024,61 3.1134,60.8374 2.4885,60.525 C0.2656,59.4135 -0.6354,56.7105 0.4761,54.4876 L11.1503,33.139 Z" />
      <path
         id="Fill-3"
         d="M46.1469,59 L41.6469,59 C39.1616,59 37.1469,56.9853 37.1469,54.5 L37.1469,22.5 C37.1469,20.0148 39.1616,18 41.6469,18 C41.6469,18 91.6469,18 91.6469,18 C94.1322,18 96.1469,20.0148 96.1469,22.5 C96.1469,22.5 96.1469,54.5 96.1469,54.5 C96.1469,56.9853 94.1322,59 91.6469,59 L57.2172,59 L46.1469,68.8403 L46.1469,59 Z M49.1469,62.1598 L56.0766,56 C56.0766,56 91.6469,56 91.6469,56 C92.4753,56 93.1469,55.3285 93.1469,54.5 L93.1469,22.5 C93.1469,21.6716 92.4753,21 91.6469,21 L41.6469,21 C40.8185,21 40.1469,21.6716 40.1469,22.5 C40.1469,22.5 40.1469,54.5 40.1469,54.5 C40.1469,55.3285 40.8185,56 41.6469,56 L49.1469,56 L49.1469,62.1598 Z" />
      <polygon
         points="47.6469 40 87.6469 40 87.6469 37 47.6469 37"
         id="Fill-4" />
      <polygon
         points="55.6469 49 87.6469 49 87.6469 46 55.6469 46"
         id="Fill-5" />
      <polygon
         points="47.6469 31 68.6469 31 68.6469 28 47.6469 28"
         id="Fill-6" />
    </g>
  </g>
</svg>
