<?xml version="1.0" encoding="UTF-8"?>
<svg width="100px" height="100px" viewBox="0 0 100 100" version="1.1" xmlns="http://www.w3.org/2000/svg" xmlns:xlink="http://www.w3.org/1999/xlink">
    <title>icon_workshops</title>
    <g id="icon_workshops" stroke="none" stroke-width="1" fill="none" fill-rule="evenodd">
        <path d="M3.5,12 C2.12,12 1,13.119 1,14.5 C1,14.5 1,97.5 1,97.5 C1,98.881 2.12,100 3.5,100 C3.5,100 97.5,100 97.5,100 C98.881,100 100,98.881 100,97.5 C100,97.5 100,14.5 100,14.5 C100,13.119 98.881,12 97.5,12 C97.5,12 3.5,12 3.5,12 Z M4,97 L97,97 L97,15 L4,15 L4,97 Z M74.5,45 L66.75,45 C65.37,45 64.25,43.881 64.25,42.5 L64.25,33.5 C64.25,32.119 65.37,31 66.75,31 C66.75,31 85.75,31 85.75,31 C87.131,31 88.25,32.119 88.25,33.5 C88.25,33.5 88.25,42.5 88.25,42.5 C88.25,43.881 87.131,45 85.75,45 L77.5,45 L77.5,49.141 C81.2,49.843 84,53.097 84,57 C84,60.903 81.2,64.156 77.5,64.859 L77.5,69.015 L84.486,76 L76,84.485 L67.515,76 L74.5,69.015 L74.5,64.859 C70.801,64.156 68,60.903 68,57 C68,53.097 70.801,49.843 74.5,49.141 L74.5,45 Z M16.75,81 L48.25,81 L48.25,78 L16.75,78 L16.75,81 Z M71.758,76 L76,80.243 L80.243,76 L76,71.757 L71.758,76 Z M17,72.5 L24.5,72.5 L24.5,69.5 L17,69.5 L17,72.5 Z M31,72.5 L38.5,72.5 L38.5,69.5 L31,69.5 L31,72.5 Z M76,62 C73.241,62 71,59.759 71,57 C71,54.24 73.241,52 76,52 C78.76,52 81,54.24 81,57 C81,59.759 78.76,62 76,62 Z M16.5,44 L48,44 L48,41 L16.5,41 L16.5,44 Z M67.25,42 L85.25,42 L85.25,34 L67.25,34 L67.25,42 Z M16.75,35.5 L24.25,35.5 L24.25,32.5 L16.75,32.5 L16.75,35.5 Z M30.75,35.5 L38.25,35.5 L38.25,32.5 L30.75,32.5 L30.75,35.5 Z" id="Fill-8" fill="#0C0C0C"></path>
    </g>
</svg>