<?xml version="1.0" encoding="UTF-8"?>
<svg width="100px" height="100px" viewBox="0 0 100 100" version="1.1" xmlns="http://www.w3.org/2000/svg" xmlns:xlink="http://www.w3.org/1999/xlink">
    <!-- Generator: Sketch 64 (93537) - https://sketch.com -->
    <title>icon_beratung</title>
    <desc>Created with Sketch.</desc>
    <g id="icon_beratung" stroke="none" stroke-width="1" fill="none" fill-rule="evenodd">
        <path d="M97.9166667,18.75 L41.6666667,18.75 C40.4166667,18.75 39.5833333,19.5833333 39.5833333,20.8333333 L39.5833333,58.3333333 C39.5833333,59.5833333 40.4166667,60.4166667 41.6666667,60.4166667 L47.9166667,60.4166667 L47.9166667,66.6666667 C47.9166667,67.5 48.3333333,68.3333333 49.1666667,68.5416667 C49.375,68.75 49.7916667,68.75 50,68.75 C50.625,68.75 51.0416667,68.5416667 51.4583333,68.125 L59.1666667,60.4166667 L97.9166667,60.4166667 C99.1666667,60.4166667 100,59.5833333 100,58.3333333 L100,20.8333333 C100,19.5833333 99.1666667,18.75 97.9166667,18.75 Z M95.8333333,56.25 L58.3333333,56.25 C57.7083333,56.25 57.2916667,56.4583333 56.875,56.875 L52.0833333,61.6666667 L52.0833333,58.3333333 C52.0833333,57.0833333 51.25,56.25 50,56.25 L43.75,56.25 L43.75,22.9166667 L95.8333333,22.9166667 L95.8333333,56.25 Z M70.8333333,33.3333333 L50,33.3333333 L50,29.1666667 L70.8333333,29.1666667 L70.8333333,33.3333333 Z M62.5,41.6666667 L50,41.6666667 L50,37.5 L62.5,37.5 L62.5,41.6666667 Z M66.6666667,37.5 L89.5833333,37.5 L89.5833333,41.6666667 L66.6666667,41.6666667 L66.6666667,37.5 Z M58.3333333,45.8333333 L89.5833333,45.8333333 L89.5833333,50 L58.3333333,50 L58.3333333,45.8333333 Z M31.25,29.1666667 L35.4166667,29.1666667 L35.4166667,33.3333333 L31.25,33.3333333 L31.25,29.1666667 Z M31.25,37.5 L35.4166667,37.5 L35.4166667,41.6666667 L31.25,41.6666667 L31.25,37.5 Z M31.25,45.8333333 L35.4166667,45.8333333 L35.4166667,50 L31.25,50 L31.25,45.8333333 Z M31.25,79.1666667 L31.25,100 L27.0833333,100 L27.0833333,81.25 L20.8333333,81.25 C18.5416667,81.25 16.4583333,80.4166667 15,78.75 C13.3333333,77.2916667 12.5,75.2083333 12.5,72.9166667 L12.5,62.5 L2.08333333,62.5 C0.833333333,62.5 0,61.6666667 0,60.4166667 L0,58.3333333 C0,57.9166667 0,57.7083333 0.208333333,57.2916667 L12.5,34.7916667 C12.7083333,15.625 28.5416667,0 47.9166667,0 C59.5833333,0 70,5.625 76.6666667,15.4166667 L73.125,17.7083333 C67.2916667,9.16666667 58.125,4.16666667 47.9166667,4.16666667 C30.625,4.16666667 16.6666667,18.125 16.6666667,35.4166667 C16.6666667,35.8333333 16.6666667,36.0416667 16.4583333,36.4583333 L4.375,58.3333333 L14.5833333,58.3333333 C15.8333333,58.3333333 16.6666667,59.1666667 16.6666667,60.4166667 L16.6666667,72.9166667 C16.6666667,73.9583333 17.0833333,75 17.9166667,75.8333333 C18.75,76.6666667 19.7916667,77.0833333 20.8333333,77.0833333 L29.1666667,77.0833333 C30.4166667,77.0833333 31.25,77.9166667 31.25,79.1666667 Z M73.125,61.6666667 L76.875,63.3333333 C76.4583333,64.1666667 76.0416667,65 75.625,66.0416667 C73.125,71.6666667 70.8333333,77.0833333 70.8333333,83.3333333 L70.8333333,100 L66.6666667,100 L66.6666667,83.3333333 C66.6666667,76.25 69.375,70.2083333 71.875,64.375 C72.2916667,63.3333333 72.7083333,62.5 73.125,61.6666667 Z" id="Shape" fill="#000000" fill-rule="nonzero"></path>
    </g>
</svg>
