<?xml version="1.0" encoding="UTF-8"?>
<svg width="100px" height="100px" viewBox="0 0 100 100" version="1.1" xmlns="http://www.w3.org/2000/svg" xmlns:xlink="http://www.w3.org/1999/xlink">
    <title>icon_anomalie</title>
    <g id="icon_anomalie" stroke="none" stroke-width="1" fill="none" fill-rule="evenodd">
        <path d="M84.5,100 C88.6394,100 92,96.6394 92,92.5 C92,88.3607 88.6394,85 84.5,85 C80.3606,85 77,88.3607 77,92.5 C77,96.6394 80.3606,100 84.5,100 Z M84.5,97 C82.0164,97 80,94.9836 80,92.5 C80,90.0164 82.0164,88 84.5,88 C86.9836,88 89,90.0164 89,92.5 C89,94.9836 86.9836,97 84.5,97 Z M51.5,88 C55.6394,88 59,84.6394 59,80.5 C59,76.3607 55.6394,73 51.5,73 C47.3606,73 44,76.3607 44,80.5 C44,84.6394 47.3606,88 51.5,88 Z M51.5,85 C49.0164,85 47,82.9836 47,80.5 C47,78.0164 49.0164,76 51.5,76 C53.9836,76 56,78.0164 56,80.5 C56,82.9836 53.9836,85 51.5,85 Z M25.5,72 C29.6394,72 33,68.6394 33,64.5 C33,60.3607 29.6394,57 25.5,57 C21.3606,57 18,60.3607 18,64.5 C18,68.6394 21.3606,72 25.5,72 Z M70.5,72 C74.6394,72 78,68.6394 78,64.5 C78,60.3607 74.6394,57 70.5,57 C66.3606,57 63,60.3607 63,64.5 C63,68.6394 66.3606,72 70.5,72 Z M25.5,69 C23.0164,69 21,66.9836 21,64.5 C21,62.0164 23.0164,60 25.5,60 C27.9836,60 30,62.0164 30,64.5 C30,66.9836 27.9836,69 25.5,69 Z M51.5,57 C55.6394,57 59,53.6394 59,49.5 C59,45.3607 55.6394,42 51.5,42 C47.3606,42 44,45.3607 44,49.5 C44,53.6394 47.3606,57 51.5,57 Z M89.5,55 C93.6394,55 97,51.6394 97,47.5 C97,43.3607 93.6394,40 89.5,40 C85.3606,40 82,43.3607 82,47.5 C82,51.6394 85.3606,55 89.5,55 Z M51.5,54 C49.0164,54 47,51.9836 47,49.5 C47,47.0164 49.0164,45 51.5,45 C53.9836,45 56,47.0164 56,49.5 C56,51.9836 53.9836,54 51.5,54 Z M89.5,52 C87.0164,52 85,49.9836 85,47.5 C85,45.0164 87.0164,43 89.5,43 C91.9836,43 94,45.0164 94,47.5 C94,49.9836 91.9836,52 89.5,52 Z M28.5,41 C32.6394,41 36,37.6394 36,33.5 C36,29.3607 32.6394,26 28.5,26 C24.3606,26 21,29.3607 21,33.5 C21,37.6394 24.3606,41 28.5,41 Z M28.5,38 C26.0164,38 24,35.9836 24,33.5 C24,31.0164 26.0164,29 28.5,29 C30.9836,29 33,31.0164 33,33.5 C33,35.9836 30.9836,38 28.5,38 Z M65.5,35 C69.6394,35 73,31.6394 73,27.5 C73,23.3607 69.6394,20 65.5,20 C61.3606,20 58,23.3607 58,27.5 C58,31.6394 61.3606,35 65.5,35 Z M65.5,32 C63.0164,32 61,29.9836 61,27.5 C61,25.0164 63.0164,23 65.5,23 C67.9836,23 70,25.0164 70,27.5 C70,29.9836 67.9836,32 65.5,32 Z M10.5,26 C14.6394,26 18,22.6394 18,18.5 C18,14.3607 14.6394,11 10.5,11 C6.3606,11 3,14.3607 3,18.5 C3,22.6394 6.3606,26 10.5,26 Z M10.5,23 C8.0164,23 6,20.9836 6,18.5 C6,16.0164 8.0164,14 10.5,14 C12.9836,14 15,16.0164 15,18.5 C15,20.9836 12.9836,23 10.5,23 Z" id="Fill-13" fill="#0C0C0C"></path>
    </g>
</svg>