<?xml version="1.0" encoding="UTF-8"?>
<svg width="100px" height="100px" viewBox="0 0 100 100" version="1.1" xmlns="http://www.w3.org/2000/svg" xmlns:xlink="http://www.w3.org/1999/xlink">
    <!-- Generator: Sketch 64 (93537) - https://sketch.com -->
    <title>icon_vorhersagen</title>
    <desc>Created with Sketch.</desc>
    <g id="icon_vorhersagen" stroke="none" stroke-width="1" fill="none" fill-rule="evenodd">
        <path d="M95.0473939,83.1418723 L98.9526945,87.0471729 L95.0473939,90.9524735 L98.9526945,94.8577741 L95.0473939,98.7630747 L91.1420933,94.8577741 L87.2367927,98.7630747 L83.3314921,94.8577741 L87.2367927,90.9524735 L83.3314921,87.0471729 L87.2367927,83.1418723 L91.1420933,87.0471729 L95.0473939,83.1418723 Z M78.1380499,77.9484301 C79.1665746,76.9221149 81.022559,76.9221149 82.049979,77.9484301 C82.5570605,78.4687686 82.8564484,79.1758103 82.8564484,79.9049471 C82.8564484,80.6340838 82.5570605,81.3411255 82.049979,81.8603593 C81.5307453,82.3674407 80.8237036,82.6668287 80.0945668,82.6668287 C79.3654301,82.6668287 78.6583884,82.3674407 78.1380499,81.8603593 C77.6309684,81.3411255 77.3326852,80.6340838 77.3326852,79.9049471 C77.3326852,79.1758103 77.6309684,78.4687686 78.1380499,77.9484301 Z M70.7704545,70.57973 C71.8531121,69.5092247 73.6096688,69.5092247 74.6812789,70.5907775 L74.6812789,70.5907775 L74.6823836,70.5907775 L74.6823836,70.57973 C75.7650412,71.6623876 75.7650412,73.4090015 74.6823836,74.4905544 C74.1399501,75.0318832 73.4340131,75.2970238 72.7269714,75.2970238 C72.018825,75.2970238 71.3117833,75.0318832 70.7704545,74.4905544 C69.6988444,73.4090015 69.6988444,71.6623876 70.7704545,70.57973 Z M63.4116971,63.2220774 C64.4844119,62.1405245 66.2409686,62.1405245 67.3236262,63.2220774 C68.3963411,64.2936874 68.3963411,66.0502442 67.3236262,67.1218542 C66.7822974,67.663183 66.0752558,67.9393712 65.3682141,67.9393712 C64.6611724,67.9393712 63.9530259,67.663183 63.4116971,67.1218542 C62.3301443,66.0513489 62.3301443,64.2947922 63.4116971,63.2220774 Z M56.042997,55.8533772 C57.0825692,54.827062 58.9275061,54.827062 59.9549261,55.8533772 C60.4620076,56.3737157 60.7613955,57.0807574 60.7613955,57.8098942 C60.7613955,58.5390309 60.4620076,59.2460726 59.9549261,59.7653063 C59.4356923,60.2723878 58.7286507,60.5717758 57.9995139,60.5717758 C57.2703772,60.5717758 56.5633355,60.2723878 56.042997,59.7653063 C55.5359155,59.2460726 55.2376323,58.5390309 55.2376323,57.8098942 C55.2376323,57.0807574 55.5359155,56.3737157 56.042997,55.8533772 Z M8.28564484,41.2386045 C12.8549018,41.2386045 16.5712897,44.9549924 16.5712897,49.5242493 C16.5712897,54.0935063 12.8549018,57.8098942 8.28564484,57.8098942 C3.7163879,57.8098942 0,54.0935063 0,49.5242493 C0,44.9549924 3.7163879,41.2386045 8.28564484,41.2386045 Z M8.28564484,46.7623677 C6.76219095,46.7623677 5.52376323,48.0007954 5.52376323,49.5242493 C5.52376323,51.0477032 6.76219095,52.2861309 8.28564484,52.2861309 C9.80909874,52.2861309 11.0475265,51.0477032 11.0475265,49.5242493 C11.0475265,48.0007954 9.80909874,46.7623677 8.28564484,46.7623677 Z M80.0945668,15.238251 L83.9998674,19.1435516 L50.8572881,52.2861309 L22.0950529,52.2861309 L22.0950529,46.7623677 L48.5704501,46.7623677 L80.0945668,15.238251 Z M96.0935946,2 L100,5.90640536 L89.7611525,16.1441481 L82.2841866,8.66828697 L86.1905919,4.76188161 L89.7611525,8.33354692 L96.0935946,2 Z" id="Combined-Shape" fill="#000000" fill-rule="nonzero"></path>
    </g>
</svg>
