<?xml version="1.0" encoding="UTF-8" standalone="no"?>
<svg
   xmlns:dc="http://purl.org/dc/elements/1.1/"
   xmlns:cc="http://creativecommons.org/ns#"
   xmlns:rdf="http://www.w3.org/1999/02/22-rdf-syntax-ns#"
   xmlns:svg="http://www.w3.org/2000/svg"
   xmlns="http://www.w3.org/2000/svg"
   id="svg37"
   version="1.1"
   viewBox="0 0 100 100"
   height="100px"
   width="100px">
  <metadata
     id="metadata43">
    <rdf:RDF>
      <cc:Work
         rdf:about="">
        <dc:format>image/svg+xml</dc:format>
        <dc:type
           rdf:resource="http://purl.org/dc/dcmitype/StillImage" />
        <dc:title>icon_datensatz</dc:title>
      </cc:Work>
    </rdf:RDF>
  </metadata>
  <defs
     id="defs41" />
  <!-- Generator: Sketch 64 (93537) - https://sketch.com -->
  <title
     id="title2">icon_datensatz</title>
  <desc
     id="desc4">Created with Sketch.</desc>
  <g
     fill-rule="evenodd"
     fill="none"
     stroke-width="1"
     stroke="none"
     id="icon_datensatz">
    <circle
       r="6"
       cy="26.5"
       cx="85.5"
       stroke-width="3"
       stroke="#0C0C0C"
       id="Oval" />
    <circle
       r="6"
       cy="56.5"
       cx="85.5"
       stroke-width="3"
       stroke="#0C0C0C"
       id="circle9" />
    <g
       stroke-width="3"
       stroke="#0C0C0C"
       transform="translate(2.000000, 74.000000)"
       id="Group">
      <circle
         r="6"
         cy="12.5"
         cx="83.5"
         id="circle11" />
      <path
         id="Rectangle"
         d="M1,0 L84,0 C90.627417,-1.21743675e-15 96,5.372583 96,12 L96,23 C96,23.5522847 95.5522847,24 95,24 L1,24 C0.44771525,24 6.76353751e-17,23.5522847 0,23 L0,1 C-6.76353751e-17,0.44771525 0.44771525,1.01453063e-16 1,0 Z" />
      <line
         id="Path-7"
         y2="5"
         x2="6"
         y1="20"
         x1="6" />
      <line
         id="line15"
         y2="5"
         x2="12"
         y1="20"
         x1="12" />
      <line
         id="line17"
         y2="5"
         x2="18"
         y1="20"
         x1="18" />
    </g>
    <path
       stroke-width="3"
       stroke="#0C0C0C"
       id="path20"
       d="M3,14 L86,14 C92.627417,14 98,19.372583 98,26 L98,37 C98,37.5522847 97.5522847,38 97,38 L3,38 C2.44771525,38 2,37.5522847 2,37 L2,15 C2,14.4477153 2.44771525,14 3,14 Z" />
    <path
       stroke-width="3"
       stroke="#0C0C0C"
       id="path22"
       d="M3,44 L86,44 C92.627417,44 98,49.372583 98,56 L98,67 C98,67.5522847 97.5522847,68 97,68 L3,68 C2.44771525,68 2,67.5522847 2,67 L2,45 C2,44.4477153 2.44771525,44 3,44 Z" />
    <line
       stroke-width="3"
       stroke="#0C0C0C"
       id="line24"
       y2="49"
       x2="8"
       y1="64"
       x1="8" />
    <line
       stroke-width="3"
       stroke="#0C0C0C"
       id="line26"
       y2="49"
       x2="14"
       y1="64"
       x1="14" />
    <line
       stroke-width="3"
       stroke="#0C0C0C"
       id="line28"
       y2="49"
       x2="20"
       y1="64"
       x1="20" />
    <line
       stroke-width="3"
       stroke="#0C0C0C"
       id="line30"
       y2="19"
       x2="8"
       y1="34"
       x1="8" />
    <line
       stroke-width="3"
       stroke="#0C0C0C"
       id="line32"
       y2="19"
       x2="14"
       y1="34"
       x1="14" />
    <line
       stroke-width="3"
       stroke="#0C0C0C"
       id="line34"
       y2="19"
       x2="20"
       y1="34"
       x1="20" />
  </g>
</svg>
