<?xml version="1.0" encoding="UTF-8"?>
<svg width="100px" height="100px" viewBox="0 0 100 100" version="1.1" xmlns="http://www.w3.org/2000/svg" xmlns:xlink="http://www.w3.org/1999/xlink">
    <!-- Generator: Sketch 64 (93537) - https://sketch.com -->
    <title>icon_datensatz</title>
    <desc>Created with Sketch.</desc>
    <g id="icon_datensatz" stroke="none" stroke-width="1" fill="none" fill-rule="evenodd">
        <path d="M85.9664587,17.1789814 C85.955762,17.140384 85.9365078,17.1052629 85.9226021,17.0678244 C85.8912249,16.9832308 85.8568171,16.8997962 85.8106427,16.8227797 C85.7863966,16.7823103 85.7562676,16.7460305 85.7282777,16.7081462 C85.6794291,16.6420937 85.6273716,16.5787156 85.5678264,16.5214879 C85.5307443,16.4860995 85.4904532,16.4540984 85.4496273,16.422543 C85.4162892,16.3966034 85.3888341,16.3646022 85.3528217,16.341426 C85.3193052,16.3198542 85.28151,16.3093357 85.2465673,16.2907056 C85.2205385,16.2767107 85.2002147,16.2554954 85.1731162,16.2430159 L50.1220035,0.13370937 C49.734068,-0.0445697901 49.2890832,-0.0445697901 48.9011477,0.13370937 L13.8500349,16.2430159 C13.8222233,16.2558521 13.8013647,16.277602 13.7748011,16.2919535 C13.7405714,16.310138 13.7034894,16.320389 13.6703295,16.341426 C13.6343171,16.3646022 13.6068621,16.3966034 13.5735238,16.422543 C13.5326979,16.4540984 13.4924068,16.4860996 13.4553248,16.5214879 C13.3957795,16.5787156 13.343722,16.6420938 13.2948735,16.7081462 C13.2668837,16.7460305 13.2367545,16.7823103 13.2125085,16.8227797 C13.1663342,16.8997963 13.1319263,16.983231 13.1005491,17.0678244 C13.0866433,17.105263 13.0673891,17.140384 13.0566924,17.1789814 C13.0215718,17.3052031 13,17.4364165 13,17.5715521 L13,27.7569981 C13,28.3289178 13.3337386,28.8480667 13.8528876,29.0855346 L30.5141465,36.6982338 L13.8500352,44.3569291 C13.8229367,44.3694979 13.8022564,44.3908022 13.7762276,44.4048862 C13.7412849,44.4234272 13.7038464,44.4338565 13.6703297,44.4553392 C13.6343174,44.4785154 13.6068624,44.5105167 13.5735241,44.5364562 C13.5326982,44.5680116 13.4924071,44.6000128 13.4553251,44.6354011 C13.3957798,44.6926288 13.3437223,44.7560071 13.2948738,44.8220594 C13.266884,44.8599437 13.2367548,44.8962235 13.2125088,44.9366929 C13.1663345,45.0137096 13.1319265,45.0971442 13.1005494,45.1817376 C13.0866436,45.2191763 13.0673894,45.2542972 13.0566927,45.2928946 C13.0215718,45.4191164 13,45.5503298 13,45.6854654 L13,54.4104485 C13,54.9823681 13.3337386,55.501517 13.8528876,55.7389849 L32.1076059,64.0797764 L13.8500352,72.4708425 C13.8225802,72.4835003 13.8018998,72.5050721 13.7755145,72.5192453 C13.7409284,72.537608 13.7034897,72.5479482 13.6703297,72.5692525 C13.6343174,72.5924288 13.6068624,72.62443 13.5735241,72.6503696 C13.5326982,72.6819249 13.4924071,72.7139262 13.4553251,72.7493145 C13.3957798,72.8065422 13.3437223,72.8699204 13.2948738,72.9359728 C13.266884,72.973857 13.2367548,73.0101368 13.2125088,73.0506063 C13.1663345,73.1276229 13.1319265,73.2110576 13.1005494,73.2956509 C13.0866436,73.3330896 13.0673894,73.3682105 13.0566927,73.4068079 C13.0215718,73.5330298 13,73.6642432 13,73.7993788 L13,82.5243618 C13,83.0962815 13.3337386,83.6154304 13.8528876,83.8528983 L48.9040004,99.8680735 C49.0979681,99.9557868 49.304772,100 49.5115758,100 C49.7183795,100 49.9251834,99.9557868 50.1191512,99.8680735 L85.1702639,83.8528983 C85.689413,83.6154304 86.0231516,83.0962815 86.0231516,82.5243618 L86.0231516,73.7993788 L86.0231516,73.7979525 C86.0231516,73.6636191 86.0015798,73.5330296 85.9664587,73.4068079 C85.955762,73.3682105 85.9365078,73.3330895 85.9226021,73.2956509 C85.8912249,73.2110574 85.8568171,73.1276228 85.8106427,73.0506063 C85.7863966,73.0101368 85.7562676,72.973857 85.7282777,72.9359728 C85.6794291,72.8699203 85.6273716,72.8065422 85.5678264,72.7493145 C85.5307443,72.713926 85.4904532,72.6819249 85.4496273,72.6503696 C85.4162892,72.62443 85.3888341,72.5924288 85.3528217,72.5692525 C85.3189486,72.5474134 85.2807969,72.5367166 85.2458542,72.5179973 C85.2200037,72.5041807 85.1998582,72.4832329 85.1731162,72.4708425 L66.9155457,64.0797764 L85.1702639,55.7389849 C85.689413,55.501517 86.0231516,54.9823681 86.0231516,54.4104485 L86.0231516,45.6854654 L86.0231516,45.6840392 C86.0231516,45.5497058 86.0015798,45.4191163 85.9664587,45.2928946 C85.955762,45.2542972 85.9365078,45.2191761 85.9226021,45.1817376 C85.8912249,45.0971441 85.8568171,45.0137094 85.8106427,44.9366929 C85.7863966,44.8962235 85.7562676,44.8599437 85.7282777,44.8220594 C85.6794291,44.7560069 85.6273716,44.6926288 85.5678264,44.6354011 C85.5307443,44.6000127 85.4904532,44.5680116 85.4496273,44.5364562 C85.4162892,44.5105167 85.3888341,44.4785154 85.3528217,44.4553392 C85.3189486,44.4334109 85.2806186,44.4227141 85.2454977,44.4039056 C85.2198255,44.3901782 85.1998582,44.3692303 85.1731164,44.3569291 L68.5090051,36.6982338 L85.1702639,29.0855346 C85.689413,28.8480667 86.0231516,28.3289178 86.0231516,27.7569981 L86.0231516,17.5715521 L86.0231516,17.5701258 C86.0231516,17.4357926 86.0015798,17.3052031 85.9664587,17.1789814 Z M49.5115758,88.2071889 L17.9670362,73.7940304 L35.6157835,65.6825952 L48.9040004,71.7541601 C49.0979681,71.8418735 49.304772,71.8860866 49.5115758,71.8860866 C49.7183795,71.8860866 49.9251834,71.8418735 50.1191512,71.7541601 L63.407368,65.6825952 L81.0561153,73.7940304 L49.5115758,88.2071889 Z M53.8893993,58.0929832 L52.1351322,58.8946156 L50.3815781,59.6958022 L49.5115758,60.0932756 L48.6415734,59.6958021 L46.8880194,58.8946154 L45.1337523,58.0929831 L17.9670362,45.6801171 L34.022146,38.3010527 L48.9040004,45.1007098 C49.0979681,45.1884231 49.304772,45.2326363 49.5115758,45.2326363 C49.7183795,45.2326363 49.9251834,45.1884231 50.1191512,45.1007098 L65.0010056,38.3010527 L81.0561153,45.6801171 L53.8893993,58.0929832 Z M49.5115758,3.06818444 L81.0561153,17.5662039 L53.8893993,29.97907 L52.1351322,30.7807024 L50.3815781,31.581889 L49.5115758,31.9793622 L48.6415734,31.5818887 L46.8880194,30.7807021 L45.1337523,29.9790697 L17.9670362,17.5662037 L49.5115758,3.06818444 Z" id="Shape" fill="#000000" fill-rule="nonzero"></path>
    </g>
</svg>
