<?xml version="1.0" encoding="UTF-8" standalone="no"?>
<!-- Created with Inkscape (http://www.inkscape.org/) -->

<svg
   xmlns:dc="http://purl.org/dc/elements/1.1/"
   xmlns:cc="http://creativecommons.org/ns#"
   xmlns:rdf="http://www.w3.org/1999/02/22-rdf-syntax-ns#"
   xmlns:svg="http://www.w3.org/2000/svg"
   xmlns="http://www.w3.org/2000/svg"
   xmlns:sodipodi="http://sodipodi.sourceforge.net/DTD/sodipodi-0.dtd"
   xmlns:inkscape="http://www.inkscape.org/namespaces/inkscape"
   width="13.663083mm"
   height="13.22917mm"
   viewBox="0 0 13.663083 13.22917"
   version="1.1"
   id="svg1182"
   inkscape:version="0.92.4 (unknown)"
   sodipodi:docname="intraprenör_logo.svg">
  <defs
     id="defs1176" />
  <sodipodi:namedview
     id="base"
     pagecolor="#ffffff"
     bordercolor="#666666"
     borderopacity="1.0"
     inkscape:pageopacity="0.0"
     inkscape:pageshadow="2"
     inkscape:zoom="7.9195959"
     inkscape:cx="-10.658587"
     inkscape:cy="17.199114"
     inkscape:document-units="mm"
     inkscape:current-layer="layer1"
     showgrid="false"
     inkscape:window-width="1855"
     inkscape:window-height="1056"
     inkscape:window-x="65"
     inkscape:window-y="24"
     inkscape:window-maximized="1" />
  <metadata
     id="metadata1179">
    <rdf:RDF>
      <cc:Work
         rdf:about="">
        <dc:format>image/svg+xml</dc:format>
        <dc:type
           rdf:resource="http://purl.org/dc/dcmitype/StillImage" />
        <dc:title></dc:title>
      </cc:Work>
    </rdf:RDF>
  </metadata>
  <g
     inkscape:label="Layer 1"
     inkscape:groupmode="layer"
     id="layer1"
     transform="translate(-58.180363,-127.0997)">
    <path
       inkscape:connector-curvature="0"
       class="cls-7"
       d="M 65.011905,127.0997 C 61.238947,127.0997 58.180363,130.06304 58.180363,133.71429 58.180363,137.36554 61.238947,140.32887 65.011905,140.32887 68.784863,140.32887 71.843446,137.36554 71.843446,133.71429 71.843446,130.06304 68.784863,127.0997 65.011905,127.0997 Z M 62.535405,135.23299 A 1.5187083,1.5187083 0 1 1 64.048822,133.71429 1.5134167,1.5134167 0 0 1 62.535405,135.23299 Z M 67.522801,135.23299 A 1.5187083,1.5187083 0 1 1 69.02828,133.71429 1.5134167,1.5134167 0 0 1 67.522801,135.23299 Z"
       id="path152-3"
       style="fill:#46a0ff;stroke-width:0.26458332" />
  </g>
</svg>
